<svg xmlns="http://www.w3.org/2000/svg" xmlns:xlink="http://www.w3.org/1999/xlink" width="500" zoomAndPan="magnify" viewBox="0 0 375 374.999991" height="500" preserveAspectRatio="xMidYMid meet" version="1.0"><defs><g/><clipPath id="ed8c55bcf7"><path d="M 36.75 37.5 L 330 37.5 L 330 330.75 L 36.75 330.75 Z M 36.75 37.5 " clip-rule="nonzero"/></clipPath><clipPath id="773cf42a87"><path d="M 183.375 37.5 C 102.394531 37.5 36.75 103.144531 36.75 184.125 C 36.75 265.105469 102.394531 330.75 183.375 330.75 C 264.355469 330.75 330 265.105469 330 184.125 C 330 103.144531 264.355469 37.5 183.375 37.5 " clip-rule="nonzero"/></clipPath><clipPath id="3a95209528"><path d="M 82 145 L 375 145 L 375 375 L 82 375 Z M 82 145 " clip-rule="nonzero"/></clipPath><clipPath id="db1bcc46c2"><path d="M 82.476562 299.140625 L 332.589844 144.949219 L 394.097656 244.722656 L 143.984375 398.914062 Z M 82.476562 299.140625 " clip-rule="nonzero"/></clipPath><clipPath id="3ccc168bb5"><path d="M 82.476562 299.140625 L 332.058594 145.273438 L 393.535156 244.992188 L 143.949219 398.859375 Z M 82.476562 299.140625 " clip-rule="nonzero"/></clipPath></defs><g clip-path="url(#ed8c55bcf7)"><g clip-path="url(#773cf42a87)"><path stroke-linecap="butt" transform="matrix(0.75015, 0, 0, 0.75015, 36.750002, 37.499998)" fill="none" stroke-linejoin="miter" d="M 195.460968 0.00000328268 C 87.508565 0.00000328268 -0.00000278178 87.508571 -0.00000278178 195.460974 C -0.00000278178 303.413377 87.508565 390.921945 195.460968 390.921945 C 303.41337 390.921945 390.921939 303.413377 390.921939 195.460974 C 390.921939 87.508571 303.41337 0.00000328268 195.460968 0.00000328268 " stroke="#ffd230" stroke-width="4" stroke-opacity="1" stroke-miterlimit="4"/></g></g><g clip-path="url(#3a95209528)"><g clip-path="url(#db1bcc46c2)"><g clip-path="url(#3ccc168bb5)"><path fill="#ffffff" d="M 82.476562 299.140625 L 332.589844 144.949219 L 394.097656 244.722656 L 143.984375 398.914062 Z M 82.476562 299.140625 " fill-opacity="1" fill-rule="nonzero"/></g></g></g><g fill="#ffd230" fill-opacity="1"><g transform="translate(115.682952, 317.471714)"><g><path d="M 5.859375 -9.28125 L 10.15625 -7.28125 C 11.175781 -6.8125 11.878906 -6.21875 12.265625 -5.5 C 12.648438 -4.789062 12.664062 -4.054688 12.3125 -3.296875 C 12.0625 -2.734375 11.691406 -2.328125 11.203125 -2.078125 C 10.710938 -1.835938 10.164062 -1.773438 9.5625 -1.890625 C 10.175781 -1.460938 10.566406 -0.941406 10.734375 -0.328125 C 10.898438 0.285156 10.828125 0.925781 10.515625 1.59375 C 10.117188 2.4375 9.492188 2.945312 8.640625 3.125 C 7.785156 3.3125 6.800781 3.148438 5.6875 2.640625 L 1.296875 0.59375 Z M 6.84375 -7 L 5.640625 -4.40625 L 8.171875 -3.234375 C 8.691406 -2.992188 9.15625 -2.921875 9.5625 -3.015625 C 9.976562 -3.109375 10.28125 -3.363281 10.46875 -3.78125 C 10.664062 -4.195312 10.664062 -4.578125 10.46875 -4.921875 C 10.269531 -5.273438 9.90625 -5.578125 9.375 -5.828125 Z M 4.96875 -2.9375 L 3.65625 -0.09375 L 6.1875 1.078125 C 6.84375 1.378906 7.410156 1.488281 7.890625 1.40625 C 8.367188 1.320312 8.71875 1.046875 8.9375 0.578125 C 9.125 0.148438 9.09375 -0.269531 8.84375 -0.6875 C 8.59375 -1.101562 8.144531 -1.460938 7.5 -1.765625 Z M 4.96875 -2.9375 "/></g></g></g><g fill="#ffd230" fill-opacity="1"><g transform="translate(138.038275, 326.657825)"><g><path d="M 8.796875 -0.09375 L 3.515625 -1.5625 L 1.859375 0.515625 L 0.015625 0 L 7.546875 -9.203125 L 9.34375 -8.6875 L 11.03125 3.0625 L 9.140625 2.53125 Z M 8.5625 -1.84375 L 7.890625 -7.0625 L 4.609375 -2.9375 Z M 8.5625 -1.84375 "/></g></g></g><g fill="#ffd230" fill-opacity="1"><g transform="translate(162.093925, 332.226141)"><g><path d="M 10.796875 1.125 L 9.015625 0.9375 L 4.0625 -7.40625 L 3.25 0.34375 L 1.421875 0.140625 L 2.546875 -10.671875 L 4.34375 -10.484375 L 9.328125 -2.109375 L 10.140625 -9.875 L 11.921875 -9.6875 Z M 10.796875 1.125 "/></g></g></g><g fill="#ffd230" fill-opacity="1"><g transform="translate(187.574726, 333.721078)"><g><path d="M 8.28125 -3 L 2.8125 -2.640625 L 1.921875 -0.125 L 0.015625 0 L 4.109375 -11.171875 L 5.984375 -11.28125 L 11.4375 -0.734375 L 9.46875 -0.609375 Z M 7.46875 -4.5625 L 5.125 -9.265625 L 3.390625 -4.296875 Z M 7.46875 -4.5625 "/></g></g></g><g fill="#ffd230" fill-opacity="1"><g transform="translate(212.123628, 331.07458)"><g><path d="M 10.5625 -2.484375 L 8.828125 -2.078125 L 1.390625 -8.34375 L 3.171875 -0.75 L 1.390625 -0.328125 L -1.109375 -10.90625 L 0.640625 -11.3125 L 8.125 -5.0625 L 6.328125 -12.65625 L 8.0625 -13.0625 Z M 10.5625 -2.484375 "/></g></g></g><g fill="#ffd230" fill-opacity="1"><g transform="translate(236.681281, 324.114054)"><g><path d="M 6.84375 -5.546875 L 1.78125 -3.421875 L 1.765625 -0.75 L 0.015625 0 L 0.21875 -11.890625 L 1.9375 -12.609375 L 10.546875 -4.453125 L 8.734375 -3.6875 Z M 5.5625 -6.78125 L 1.78125 -10.4375 L 1.796875 -5.1875 Z M 5.5625 -6.78125 "/></g></g></g><g fill="#ffd230" fill-opacity="1"><g transform="translate(258.985535, 313.543232)"><g><path d="M 3.203125 -14.90625 L 6.609375 -9.515625 C 7.367188 -8.316406 7.613281 -7.144531 7.34375 -6 C 7.070312 -4.863281 6.316406 -3.898438 5.078125 -3.109375 C 3.835938 -2.328125 2.640625 -2.054688 1.484375 -2.296875 C 0.335938 -2.535156 -0.613281 -3.253906 -1.375 -4.453125 L -4.78125 -9.84375 L -3.234375 -10.8125 L 0.171875 -5.421875 C 0.648438 -4.660156 1.25 -4.195312 1.96875 -4.03125 C 2.6875 -3.863281 3.429688 -4.019531 4.203125 -4.5 C 4.941406 -4.976562 5.390625 -5.578125 5.546875 -6.296875 C 5.710938 -7.015625 5.550781 -7.757812 5.0625 -8.53125 L 1.65625 -13.921875 Z M 3.203125 -14.90625 "/></g></g></g><g fill="#ffd230" fill-opacity="1"><g transform="translate(279.519068, 299.187324)"><g><path d="M 2 -6.625 L 4.40625 -3.90625 L 3.046875 -2.6875 L 0.6875 -5.359375 L -7.203125 -8.15625 L -5.828125 -9.375 L 0.015625 -7.46875 L -1.21875 -13.453125 L 0.171875 -14.6875 Z M 2 -6.625 "/></g></g></g><g fill="#ffd230" fill-opacity="1"><g transform="translate(296.133264, 283.150376)"><g><path d="M -1.671875 -15.140625 L 3.265625 -11.109375 C 4.359375 -10.210938 4.957031 -9.179688 5.0625 -8.015625 C 5.164062 -6.847656 4.753906 -5.695312 3.828125 -4.5625 C 2.898438 -3.425781 1.847656 -2.785156 0.671875 -2.640625 C -0.492188 -2.503906 -1.625 -2.882812 -2.71875 -3.78125 L -7.65625 -7.8125 L -6.5 -9.234375 L -1.5625 -5.203125 C -0.863281 -4.628906 -0.144531 -4.375 0.59375 -4.4375 C 1.34375 -4.507812 2.003906 -4.898438 2.578125 -5.609375 C 3.128906 -6.296875 3.363281 -7.003906 3.28125 -7.734375 C 3.207031 -8.460938 2.816406 -9.113281 2.109375 -9.6875 L -2.828125 -13.71875 Z M -1.671875 -15.140625 "/></g></g></g><g fill="#ffd230" fill-opacity="1"><g transform="translate(311.117821, 263.041189)"><g><path d="M 4.3125 -7.53125 L -1.609375 -6.828125 L -0.78125 -4.203125 L 1.625 -2.828125 L 0.703125 -1.234375 L -8.734375 -6.640625 L -7.8125 -8.234375 L -2.9375 -5.4375 L -5.234375 -12.734375 L -4.15625 -14.609375 L -2.21875 -8.65625 L 5.40625 -9.453125 Z M 4.3125 -7.53125 "/></g></g></g><g fill="#ffd230" fill-opacity="1"><g transform="translate(322.265776, 241.404344)"><g><path d="M -9.671875 -5.15625 L -8.140625 -9.21875 C -7.660156 -10.5 -6.984375 -11.378906 -6.109375 -11.859375 C -5.242188 -12.335938 -4.257812 -12.363281 -3.15625 -11.9375 C -2 -11.507812 -1.238281 -10.820312 -0.875 -9.875 C -0.507812 -8.9375 -0.566406 -7.828125 -1.046875 -6.546875 L -1.921875 -4.21875 L 1.15625 -3.0625 L 0.5 -1.328125 Z M -7.46875 -6.3125 L -3.453125 -4.796875 L -2.609375 -7.0625 C -1.984375 -8.695312 -2.351562 -9.769531 -3.71875 -10.28125 C -5.03125 -10.78125 -6 -10.210938 -6.625 -8.578125 Z M -7.46875 -6.3125 "/></g></g></g><g fill="#ffd230" fill-opacity="1"><g transform="translate(329.662616, 218.916669)"><g><path d="M -8.734375 -3.953125 C -9.554688 -5.253906 -9.8125 -6.703125 -9.5 -8.296875 C -9.1875 -9.890625 -8.40625 -11.125 -7.15625 -12 C -5.90625 -12.875 -4.515625 -13.160156 -2.984375 -12.859375 C -1.460938 -12.566406 -0.289062 -11.773438 0.53125 -10.484375 C 1.351562 -9.191406 1.609375 -7.75 1.296875 -6.15625 C 0.984375 -4.5625 0.203125 -3.320312 -1.046875 -2.4375 C -2.304688 -1.5625 -3.695312 -1.269531 -5.21875 -1.5625 C -6.75 -1.863281 -7.921875 -2.660156 -8.734375 -3.953125 Z M -7.875 -7.984375 C -8.082031 -6.921875 -7.894531 -5.941406 -7.3125 -5.046875 C -6.726562 -4.160156 -5.910156 -3.613281 -4.859375 -3.40625 C -3.804688 -3.195312 -2.835938 -3.394531 -1.953125 -4 C -1.066406 -4.601562 -0.519531 -5.425781 -0.3125 -6.46875 C -0.101562 -7.519531 -0.296875 -8.492188 -0.890625 -9.390625 C -1.484375 -10.285156 -2.304688 -10.835938 -3.359375 -11.046875 C -4.410156 -11.253906 -5.375 -11.054688 -6.25 -10.453125 C -7.125 -9.847656 -7.664062 -9.023438 -7.875 -7.984375 Z M -7.875 -7.984375 "/></g></g></g><g fill="#ffd230" fill-opacity="1"><g transform="translate(333.509423, 193.416712)"><g><path d="M -10.828125 -1.75 L -10.703125 -6.09375 C -10.660156 -7.457031 -10.300781 -8.503906 -9.625 -9.234375 C -8.957031 -9.960938 -8.03125 -10.3125 -6.84375 -10.28125 C -5.613281 -10.238281 -4.671875 -9.832031 -4.015625 -9.0625 C -3.367188 -8.289062 -3.066406 -7.222656 -3.109375 -5.859375 L -3.1875 -3.359375 L 0.09375 -3.265625 L 0.046875 -1.421875 Z M -9.125 -3.546875 L -4.828125 -3.421875 L -4.75 -5.84375 C -4.695312 -7.59375 -5.398438 -8.488281 -6.859375 -8.53125 C -8.265625 -8.570312 -8.992188 -7.71875 -9.046875 -5.96875 Z M -9.125 -3.546875 "/></g></g></g><g fill="#ff8210" fill-opacity="1"><g transform="translate(276.242478, 99.27175)"><g><path d="M -98.605469 14.632812 L -56.621094 69.203125 L -82.195312 95.597656 C -87.117188 100.519531 -90.671875 104.078125 -97.511719 109.410156 L -90.398438 109.410156 C -86.84375 104.078125 -83.5625 100.65625 -78.089844 95.1875 L -34.054688 50.191406 L -34.054688 80.144531 C -34.054688 92.863281 -34.464844 99.015625 -35.558594 109.410156 L -9.574219 109.410156 C -10.667969 99.015625 -11.078125 92.863281 -11.078125 80.144531 L -11.078125 29.265625 C -11.078125 16.546875 -10.667969 10.394531 -9.574219 0 L -35.558594 0 C -34.464844 10.394531 -34.054688 16.546875 -34.054688 29.265625 L -34.054688 46.089844 L -40.070312 52.242188 L -69.476562 14.632812 C -74.671875 7.660156 -76.585938 5.332031 -79.183594 0 L -113.101562 0 C -106.402344 5.195312 -103.253906 8.617188 -98.605469 14.632812 Z M -98.605469 14.632812 "/></g></g></g><path fill="#ffbd59" d="M 94.21875 250.757812 L 192.269531 250.757812 L 192.269531 264.257812 L 94.21875 264.257812 Z M 94.21875 250.757812 " fill-opacity="1" fill-rule="nonzero"/><g fill="#ffbd59" fill-opacity="1"><g transform="translate(94.217008, 243.257458)"><g><path d="M 66.601562 -61.269531 C 83.015625 -64.140625 90.261719 -71.527344 90.261719 -84.65625 C 90.261719 -105.855469 71.800781 -109.410156 52.105469 -109.410156 L 9.574219 -109.410156 C 10.667969 -99.015625 11.078125 -92.863281 11.078125 -80.144531 L 11.078125 -29.265625 C 11.078125 -16.546875 10.667969 -10.394531 9.574219 0 L 54.292969 0 C 78.5 0 98.058594 -6.976562 98.058594 -30.359375 C 98.058594 -49.644531 84.792969 -58.125 66.601562 -61.269531 Z M 34.054688 -106.539062 L 43.082031 -106.539062 C 55.390625 -106.539062 66.875 -100.65625 66.875 -84.65625 C 66.875 -70.433594 60.859375 -62.773438 44.039062 -62.773438 L 34.054688 -62.773438 Z M 44.449219 -2.871094 L 34.054688 -2.871094 L 34.054688 -59.902344 L 45.40625 -59.902344 C 57.304688 -59.902344 73.167969 -54.703125 73.167969 -30.085938 C 73.167969 -9.710938 59.902344 -2.871094 44.449219 -2.871094 Z M 44.449219 -2.871094 "/></g></g></g><g fill="#ffdb4f" fill-opacity="1"><g transform="translate(197.063428, 230.127714)"><g><path d="M 2.398438 -31.996094 C 2.71875 -28.957031 2.839844 -27.160156 2.839844 -23.4375 L 2.839844 -13.597656 C 2.839844 -2.078125 8.597656 0.800781 16.800781 0.800781 C 24.359375 0.800781 27.757812 -3.121094 27.757812 -13.597656 L 27.757812 -23.4375 C 27.757812 -27.160156 27.878906 -28.957031 28.199219 -31.996094 L 26.476562 -31.996094 C 26.796875 -28.957031 26.917969 -27.160156 26.917969 -23.4375 L 26.917969 -13.597656 C 26.917969 -3.878906 23.917969 -0.601562 18.039062 -0.601562 C 11.71875 -0.601562 9.558594 -4.28125 9.558594 -13.597656 L 9.558594 -23.4375 C 9.558594 -27.160156 9.679688 -28.957031 10 -31.996094 Z M 2.398438 -31.996094 "/></g></g></g></svg>