<svg xmlns="http://www.w3.org/2000/svg" xmlns:xlink="http://www.w3.org/1999/xlink" width="500" zoomAndPan="magnify" viewBox="0 0 375 374.999991" height="500" preserveAspectRatio="xMidYMid meet" version="1.0"><defs><g/><clipPath id="8a2e520f82"><path d="M 76.554688 0 L 297.804688 0 L 297.804688 255 L 76.554688 255 Z M 76.554688 0 " clip-rule="nonzero"/></clipPath></defs><g clip-path="url(#8a2e520f82)"><path fill="#763c00" d="M 175.183594 233.636719 C 180.515625 229.632812 183.179688 222.957031 187.179688 216.28125 C 184.511719 214.945312 181.847656 214.945312 179.183594 214.945312 C 175.183594 214.945312 171.183594 216.28125 167.1875 218.949219 C 164.519531 221.621094 161.855469 225.625 160.523438 228.296875 C 157.855469 237.640625 163.1875 248.320312 175.183594 233.636719 Z M 195.175781 154.867188 C 197.84375 146.859375 203.171875 141.519531 209.835938 138.847656 C 215.167969 136.179688 221.832031 134.84375 228.496094 136.179688 L 227.164062 136.179688 C 243.15625 138.847656 257.820312 148.191406 264.484375 161.542969 C 260.484375 144.1875 243.15625 130.835938 225.832031 130.835938 C 211.171875 129.503906 196.507812 138.847656 195.175781 154.867188 Z M 199.175781 170.890625 C 200.507812 144.1875 229.828125 136.179688 247.15625 152.199219 C 240.492188 144.1875 231.164062 138.847656 220.5 140.183594 C 205.839844 141.519531 196.507812 156.203125 199.175781 170.890625 Z M 203.171875 172.222656 C 201.839844 177.5625 200.507812 181.570312 199.175781 185.574219 C 197.84375 193.585938 195.175781 200.261719 192.511719 206.933594 C 187.179688 205.601562 183.179688 204.265625 179.183594 204.265625 C 165.855469 204.265625 155.191406 213.609375 151.191406 225.625 C 145.863281 242.980469 161.855469 263.007812 181.847656 242.980469 C 187.179688 237.640625 191.175781 230.964844 195.175781 222.957031 C 207.171875 238.976562 195.175781 252.328125 180.515625 253.664062 C 205.839844 264.34375 220.5 230.964844 200.507812 213.609375 C 204.507812 205.601562 207.171875 197.589844 209.835938 188.246094 C 211.171875 184.238281 212.503906 180.234375 213.835938 176.230469 C 215.167969 169.554688 219.167969 158.875 229.828125 160.207031 C 236.492188 161.542969 240.492188 168.21875 245.824219 176.230469 C 251.15625 182.90625 255.152344 190.914062 261.816406 194.921875 C 272.480469 202.929688 289.808594 201.59375 297.804688 194.921875 C 291.140625 189.578125 288.472656 184.238281 287.140625 172.222656 C 284.476562 164.214844 283.144531 153.535156 276.480469 142.851562 C 269.816406 130.835938 257.820312 120.15625 245.824219 116.152344 C 237.828125 113.480469 231.164062 112.148438 223.164062 113.480469 C 223.164062 106.808594 223.164062 101.464844 223.164062 94.792969 C 221.832031 81.441406 217.835938 60.078125 211.171875 41.390625 C 204.507812 25.367188 196.507812 12.019531 185.847656 4.007812 C 179.183594 -1.332031 172.519531 -1.332031 167.1875 6.679688 C 164.519531 12.019531 161.855469 21.363281 160.523438 37.382812 C 159.191406 52.070312 157.855469 66.753906 157.855469 81.441406 C 159.191406 93.457031 159.191406 105.472656 160.523438 117.488281 C 156.523438 117.488281 153.859375 116.152344 149.859375 116.152344 C 144.527344 114.816406 139.199219 116.152344 133.867188 116.152344 C 100.546875 122.828125 107.210938 138.847656 76.554688 137.511719 C 85.882812 161.542969 92.546875 170.890625 128.535156 164.214844 C 132.53125 162.878906 141.863281 160.207031 145.863281 161.542969 C 151.191406 162.878906 152.527344 168.21875 153.859375 176.230469 C 155.191406 181.570312 155.191406 188.246094 155.191406 194.921875 C 155.191406 197.589844 155.191406 202.929688 155.191406 205.601562 C 159.191406 201.59375 172.519531 157.539062 148.527344 152.199219 C 141.863281 149.527344 132.53125 152.199219 125.867188 153.535156 C 115.207031 156.203125 100.546875 161.542969 89.882812 145.523438 C 107.210938 146.859375 113.875 130.835938 135.199219 126.832031 C 140.53125 125.496094 144.527344 125.496094 149.859375 126.832031 C 153.859375 126.832031 159.191406 128.167969 164.519531 129.503906 C 168.519531 130.835938 172.519531 133.507812 176.515625 136.179688 C 177.847656 138.847656 180.515625 141.519531 181.847656 144.1875 C 177.847656 152.199219 180.515625 165.550781 187.179688 177.5625 C 184.511719 156.203125 189.84375 140.183594 200.507812 132.171875 C 200.507812 132.171875 217.835938 116.152344 241.824219 125.496094 C 252.488281 129.503906 261.816406 137.511719 267.148438 148.191406 C 272.480469 157.539062 275.144531 166.882812 276.480469 174.894531 C 277.8125 180.234375 279.144531 185.574219 280.476562 190.914062 C 268.480469 190.914062 260.484375 180.234375 255.152344 169.554688 C 248.488281 160.207031 243.15625 152.199219 232.496094 149.527344 C 217.835938 146.859375 207.171875 158.875 203.171875 172.222656 Z M 203.171875 172.222656 " fill-opacity="1" fill-rule="evenodd"/></g><path fill="#ffcb65" d="M 200.507812 121.492188 C 200.507812 117.488281 200.507812 110.8125 200.507812 104.136719 C 199.175781 109.476562 197.84375 118.820312 197.84375 122.828125 C 195.175781 125.496094 192.511719 128.167969 189.84375 130.835938 C 193.84375 100.132812 189.84375 69.425781 181.847656 38.71875 C 187.179688 69.425781 188.511719 100.132812 185.847656 130.835938 C 184.511719 130.835938 183.179688 129.503906 183.179688 128.167969 C 179.183594 125.496094 175.183594 122.828125 171.183594 121.492188 C 169.851562 106.808594 168.519531 94.792969 168.519531 81.441406 C 168.519531 66.753906 169.851562 53.40625 171.183594 37.382812 C 171.183594 24.035156 173.851562 16.023438 176.515625 12.019531 C 176.515625 10.683594 177.847656 10.683594 180.515625 12.019531 C 188.511719 18.695312 195.175781 30.707031 200.507812 45.394531 C 208.503906 62.75 212.503906 82.777344 212.503906 96.125 C 212.503906 101.464844 212.503906 108.140625 212.503906 114.816406 C 211.171875 116.152344 209.835938 116.152344 208.503906 117.488281 C 208.503906 109.476562 208.503906 98.796875 207.171875 85.445312 C 207.171875 98.796875 205.839844 110.8125 205.839844 118.820312 C 203.171875 118.820312 201.839844 120.15625 200.507812 121.492188 Z M 200.507812 121.492188 " fill-opacity="1" fill-rule="evenodd"/><path fill="#f9f7dc" d="M 195.175781 125.496094 C 196.507812 96.125 191.175781 65.421875 181.847656 38.71875 C 189.84375 69.425781 193.84375 100.132812 189.84375 130.835938 C 191.175781 129.503906 193.84375 126.832031 195.175781 125.496094 Z M 201.839844 120.15625 C 201.839844 114.816406 201.839844 109.476562 200.507812 104.136719 C 200.507812 110.8125 200.507812 117.488281 200.507812 121.492188 C 200.507812 121.492188 201.839844 120.15625 201.839844 120.15625 Z M 179.183594 14.6875 C 193.84375 36.050781 203.171875 60.078125 207.171875 85.445312 C 208.503906 98.796875 208.503906 109.476562 208.503906 117.488281 C 209.835938 116.152344 211.171875 116.152344 212.503906 114.816406 C 212.503906 108.140625 212.503906 101.464844 212.503906 96.125 C 212.503906 82.777344 208.503906 62.75 200.507812 45.394531 C 195.175781 30.707031 188.511719 18.695312 180.515625 12.019531 C 177.847656 10.683594 176.515625 10.683594 176.515625 12.019531 C 175.183594 13.351562 175.183594 14.6875 173.851562 16.023438 C 176.515625 13.351562 177.847656 13.351562 179.183594 14.6875 Z M 179.183594 14.6875 " fill-opacity="1" fill-rule="evenodd"/><g fill="#f9f7dc" fill-opacity="1"><g transform="translate(73.700076, 324.681991)"><g><path d="M 7.71875 -2.375 C 7.132812 -1.820312 6.84375 -1.03125 6.84375 0 L 3.84375 0 L 3.84375 -26.15625 C 3.84375 -27.132812 3.757812 -27.769531 3.59375 -28.0625 C 3.425781 -28.363281 2.960938 -28.515625 2.203125 -28.515625 L 0.765625 -28.515625 L 0.765625 -30.734375 C 2.078125 -30.734375 3.109375 -30.832031 3.859375 -31.03125 C 4.609375 -31.226562 5.140625 -31.367188 5.453125 -31.453125 C 5.773438 -31.546875 6.117188 -31.59375 6.484375 -31.59375 C 7.203125 -31.59375 7.671875 -31.382812 7.890625 -30.96875 C 8.117188 -30.5625 8.234375 -29.90625 8.234375 -29 L 8.234375 -18.140625 C 9.671875 -20.015625 11.738281 -20.953125 14.4375 -20.953125 C 17.132812 -20.953125 19.273438 -20.085938 20.859375 -18.359375 C 22.453125 -16.640625 23.25 -14.101562 23.25 -10.75 C 23.25 -7.40625 22.421875 -4.707031 20.765625 -2.65625 C 19.109375 -0.613281 16.789062 0.40625 13.8125 0.40625 C 11.375 0.40625 9.34375 -0.519531 7.71875 -2.375 Z M 8.125 -10.03125 C 8.125 -7.5625 8.59375 -5.609375 9.53125 -4.171875 C 10.46875 -2.742188 11.742188 -2.03125 13.359375 -2.03125 C 14.953125 -2.03125 16.207031 -2.765625 17.125 -4.234375 C 18.050781 -5.703125 18.515625 -7.65625 18.515625 -10.09375 C 18.515625 -13.96875 17.597656 -16.546875 15.765625 -17.828125 C 15.097656 -18.273438 14.316406 -18.5 13.421875 -18.5 C 12.523438 -18.5 11.75 -18.28125 11.09375 -17.84375 C 10.445312 -17.414062 9.910156 -16.820312 9.484375 -16.0625 C 8.578125 -14.507812 8.125 -12.5 8.125 -10.03125 Z M 8.125 -10.03125 "/></g></g></g><g fill="#f9f7dc" fill-opacity="1"><g transform="translate(114.515041, 324.681991)"><g><path d="M 19.359375 -4.84375 C 19.359375 -3.238281 19.671875 -2.4375 20.296875 -2.4375 C 20.910156 -2.4375 21.359375 -2.640625 21.640625 -3.046875 C 21.921875 -3.460938 22.0625 -4.207031 22.0625 -5.28125 L 24.1875 -5.28125 C 24.207031 -5.113281 24.21875 -4.835938 24.21875 -4.453125 C 24.21875 -3.242188 23.910156 -2.191406 23.296875 -1.296875 C 22.554688 -0.160156 21.375 0.40625 19.75 0.40625 C 18.695312 0.40625 17.800781 0.109375 17.0625 -0.484375 C 16.320312 -1.078125 15.804688 -1.863281 15.515625 -2.84375 C 13.554688 -0.675781 11.078125 0.40625 8.078125 0.40625 C 6.429688 0.40625 5 -0.078125 3.78125 -1.046875 C 2.5625 -2.015625 1.953125 -3.363281 1.953125 -5.09375 C 1.953125 -8.082031 4.164062 -10.296875 8.59375 -11.734375 C 11.40625 -12.617188 13.085938 -13.234375 13.640625 -13.578125 C 14.191406 -13.929688 14.550781 -14.285156 14.71875 -14.640625 C 14.882812 -14.992188 14.96875 -15.394531 14.96875 -15.84375 C 14.96875 -16.644531 14.578125 -17.3125 13.796875 -17.84375 C 13.015625 -18.375 11.992188 -18.640625 10.734375 -18.640625 C 9.484375 -18.640625 8.378906 -18.300781 7.421875 -17.625 C 8.097656 -17.125 8.4375 -16.484375 8.4375 -15.703125 C 8.4375 -14.921875 8.175781 -14.289062 7.65625 -13.8125 C 7.132812 -13.34375 6.503906 -13.109375 5.765625 -13.109375 C 5.023438 -13.109375 4.414062 -13.332031 3.9375 -13.78125 C 3.457031 -14.226562 3.21875 -14.847656 3.21875 -15.640625 C 3.21875 -17.222656 4.015625 -18.503906 5.609375 -19.484375 C 7.203125 -20.460938 9.140625 -20.953125 11.421875 -20.953125 C 15.503906 -20.953125 18 -19.628906 18.90625 -16.984375 C 19.207031 -16.097656 19.359375 -15.082031 19.359375 -13.9375 Z M 10.421875 -9.890625 C 9.222656 -9.378906 8.328125 -8.71875 7.734375 -7.90625 C 7.140625 -7.101562 6.84375 -6.226562 6.84375 -5.28125 C 6.84375 -4.34375 7.097656 -3.628906 7.609375 -3.140625 C 8.128906 -2.648438 8.773438 -2.40625 9.546875 -2.40625 C 11.109375 -2.40625 12.398438 -2.957031 13.421875 -4.0625 C 14.453125 -5.164062 14.96875 -6.703125 14.96875 -8.671875 L 14.96875 -11.796875 C 14.101562 -11.347656 13.1875 -10.941406 12.21875 -10.578125 C 11.257812 -10.210938 10.660156 -9.984375 10.421875 -9.890625 Z M 10.421875 -9.890625 "/></g></g></g><g fill="#f9f7dc" fill-opacity="1"><g transform="translate(154.073902, 324.681991)"><g><path d="M 14.21875 -17.90625 C 12.007812 -17.90625 10.210938 -17.21875 8.828125 -15.84375 L 8.828125 -4.359375 C 8.828125 -3.515625 8.960938 -2.988281 9.234375 -2.78125 C 9.710938 -2.414062 10.609375 -2.234375 11.921875 -2.234375 L 11.921875 0 L 1.625 0 L 1.625 -2.234375 C 2.78125 -2.234375 3.503906 -2.347656 3.796875 -2.578125 C 4.097656 -2.816406 4.28125 -3.070312 4.34375 -3.34375 C 4.414062 -3.613281 4.453125 -3.953125 4.453125 -4.359375 L 4.453125 -15.40625 C 4.453125 -16.375 4.367188 -17.003906 4.203125 -17.296875 C 4.035156 -17.597656 3.570312 -17.75 2.8125 -17.75 L 1.578125 -17.75 L 1.578125 -19.984375 C 2.847656 -19.984375 3.84375 -20.078125 4.5625 -20.265625 C 5.289062 -20.460938 5.804688 -20.601562 6.109375 -20.6875 C 6.410156 -20.78125 6.738281 -20.828125 7.09375 -20.828125 C 7.8125 -20.828125 8.28125 -20.617188 8.5 -20.203125 C 8.71875 -19.796875 8.828125 -19.140625 8.828125 -18.234375 C 10.273438 -19.453125 11.953125 -20.273438 13.859375 -20.703125 C 14.492188 -20.859375 15.113281 -20.9375 15.71875 -20.9375 C 20.101562 -20.9375 22.296875 -18.035156 22.296875 -12.234375 L 22.296875 -4.390625 C 22.296875 -3.503906 22.421875 -2.921875 22.671875 -2.640625 C 22.929688 -2.367188 23.632812 -2.234375 24.78125 -2.234375 L 24.78125 0 L 15.203125 0 L 15.203125 -2.234375 C 16.429688 -2.234375 17.171875 -2.359375 17.421875 -2.609375 C 17.671875 -2.859375 17.8125 -3.117188 17.84375 -3.390625 C 17.882812 -3.660156 17.90625 -3.992188 17.90625 -4.390625 L 17.90625 -11.96875 C 17.90625 -13.851562 17.734375 -15.144531 17.390625 -15.84375 C 16.703125 -17.21875 15.644531 -17.90625 14.21875 -17.90625 Z M 14.21875 -17.90625 "/></g></g></g><g fill="#f9f7dc" fill-opacity="1"><g transform="translate(195.84107, 324.681991)"><g><path d="M 19.359375 -4.84375 C 19.359375 -3.238281 19.671875 -2.4375 20.296875 -2.4375 C 20.910156 -2.4375 21.359375 -2.640625 21.640625 -3.046875 C 21.921875 -3.460938 22.0625 -4.207031 22.0625 -5.28125 L 24.1875 -5.28125 C 24.207031 -5.113281 24.21875 -4.835938 24.21875 -4.453125 C 24.21875 -3.242188 23.910156 -2.191406 23.296875 -1.296875 C 22.554688 -0.160156 21.375 0.40625 19.75 0.40625 C 18.695312 0.40625 17.800781 0.109375 17.0625 -0.484375 C 16.320312 -1.078125 15.804688 -1.863281 15.515625 -2.84375 C 13.554688 -0.675781 11.078125 0.40625 8.078125 0.40625 C 6.429688 0.40625 5 -0.078125 3.78125 -1.046875 C 2.5625 -2.015625 1.953125 -3.363281 1.953125 -5.09375 C 1.953125 -8.082031 4.164062 -10.296875 8.59375 -11.734375 C 11.40625 -12.617188 13.085938 -13.234375 13.640625 -13.578125 C 14.191406 -13.929688 14.550781 -14.285156 14.71875 -14.640625 C 14.882812 -14.992188 14.96875 -15.394531 14.96875 -15.84375 C 14.96875 -16.644531 14.578125 -17.3125 13.796875 -17.84375 C 13.015625 -18.375 11.992188 -18.640625 10.734375 -18.640625 C 9.484375 -18.640625 8.378906 -18.300781 7.421875 -17.625 C 8.097656 -17.125 8.4375 -16.484375 8.4375 -15.703125 C 8.4375 -14.921875 8.175781 -14.289062 7.65625 -13.8125 C 7.132812 -13.34375 6.503906 -13.109375 5.765625 -13.109375 C 5.023438 -13.109375 4.414062 -13.332031 3.9375 -13.78125 C 3.457031 -14.226562 3.21875 -14.847656 3.21875 -15.640625 C 3.21875 -17.222656 4.015625 -18.503906 5.609375 -19.484375 C 7.203125 -20.460938 9.140625 -20.953125 11.421875 -20.953125 C 15.503906 -20.953125 18 -19.628906 18.90625 -16.984375 C 19.207031 -16.097656 19.359375 -15.082031 19.359375 -13.9375 Z M 10.421875 -9.890625 C 9.222656 -9.378906 8.328125 -8.71875 7.734375 -7.90625 C 7.140625 -7.101562 6.84375 -6.226562 6.84375 -5.28125 C 6.84375 -4.34375 7.097656 -3.628906 7.609375 -3.140625 C 8.128906 -2.648438 8.773438 -2.40625 9.546875 -2.40625 C 11.109375 -2.40625 12.398438 -2.957031 13.421875 -4.0625 C 14.453125 -5.164062 14.96875 -6.703125 14.96875 -8.671875 L 14.96875 -11.796875 C 14.101562 -11.347656 13.1875 -10.941406 12.21875 -10.578125 C 11.257812 -10.210938 10.660156 -9.984375 10.421875 -9.890625 Z M 10.421875 -9.890625 "/></g></g></g><g fill="#f9f7dc" fill-opacity="1"><g transform="translate(235.399937, 324.681991)"><g><path d="M 14.21875 -17.90625 C 12.007812 -17.90625 10.210938 -17.21875 8.828125 -15.84375 L 8.828125 -4.359375 C 8.828125 -3.515625 8.960938 -2.988281 9.234375 -2.78125 C 9.710938 -2.414062 10.609375 -2.234375 11.921875 -2.234375 L 11.921875 0 L 1.625 0 L 1.625 -2.234375 C 2.78125 -2.234375 3.503906 -2.347656 3.796875 -2.578125 C 4.097656 -2.816406 4.28125 -3.070312 4.34375 -3.34375 C 4.414062 -3.613281 4.453125 -3.953125 4.453125 -4.359375 L 4.453125 -15.40625 C 4.453125 -16.375 4.367188 -17.003906 4.203125 -17.296875 C 4.035156 -17.597656 3.570312 -17.75 2.8125 -17.75 L 1.578125 -17.75 L 1.578125 -19.984375 C 2.847656 -19.984375 3.84375 -20.078125 4.5625 -20.265625 C 5.289062 -20.460938 5.804688 -20.601562 6.109375 -20.6875 C 6.410156 -20.78125 6.738281 -20.828125 7.09375 -20.828125 C 7.8125 -20.828125 8.28125 -20.617188 8.5 -20.203125 C 8.71875 -19.796875 8.828125 -19.140625 8.828125 -18.234375 C 10.273438 -19.453125 11.953125 -20.273438 13.859375 -20.703125 C 14.492188 -20.859375 15.113281 -20.9375 15.71875 -20.9375 C 20.101562 -20.9375 22.296875 -18.035156 22.296875 -12.234375 L 22.296875 -4.390625 C 22.296875 -3.503906 22.421875 -2.921875 22.671875 -2.640625 C 22.929688 -2.367188 23.632812 -2.234375 24.78125 -2.234375 L 24.78125 0 L 15.203125 0 L 15.203125 -2.234375 C 16.429688 -2.234375 17.171875 -2.359375 17.421875 -2.609375 C 17.671875 -2.859375 17.8125 -3.117188 17.84375 -3.390625 C 17.882812 -3.660156 17.90625 -3.992188 17.90625 -4.390625 L 17.90625 -11.96875 C 17.90625 -13.851562 17.734375 -15.144531 17.390625 -15.84375 C 16.703125 -17.21875 15.644531 -17.90625 14.21875 -17.90625 Z M 14.21875 -17.90625 "/></g></g></g><g fill="#f9f7dc" fill-opacity="1"><g transform="translate(277.167116, 324.681991)"><g><path d="M 19.359375 -4.84375 C 19.359375 -3.238281 19.671875 -2.4375 20.296875 -2.4375 C 20.910156 -2.4375 21.359375 -2.640625 21.640625 -3.046875 C 21.921875 -3.460938 22.0625 -4.207031 22.0625 -5.28125 L 24.1875 -5.28125 C 24.207031 -5.113281 24.21875 -4.835938 24.21875 -4.453125 C 24.21875 -3.242188 23.910156 -2.191406 23.296875 -1.296875 C 22.554688 -0.160156 21.375 0.40625 19.75 0.40625 C 18.695312 0.40625 17.800781 0.109375 17.0625 -0.484375 C 16.320312 -1.078125 15.804688 -1.863281 15.515625 -2.84375 C 13.554688 -0.675781 11.078125 0.40625 8.078125 0.40625 C 6.429688 0.40625 5 -0.078125 3.78125 -1.046875 C 2.5625 -2.015625 1.953125 -3.363281 1.953125 -5.09375 C 1.953125 -8.082031 4.164062 -10.296875 8.59375 -11.734375 C 11.40625 -12.617188 13.085938 -13.234375 13.640625 -13.578125 C 14.191406 -13.929688 14.550781 -14.285156 14.71875 -14.640625 C 14.882812 -14.992188 14.96875 -15.394531 14.96875 -15.84375 C 14.96875 -16.644531 14.578125 -17.3125 13.796875 -17.84375 C 13.015625 -18.375 11.992188 -18.640625 10.734375 -18.640625 C 9.484375 -18.640625 8.378906 -18.300781 7.421875 -17.625 C 8.097656 -17.125 8.4375 -16.484375 8.4375 -15.703125 C 8.4375 -14.921875 8.175781 -14.289062 7.65625 -13.8125 C 7.132812 -13.34375 6.503906 -13.109375 5.765625 -13.109375 C 5.023438 -13.109375 4.414062 -13.332031 3.9375 -13.78125 C 3.457031 -14.226562 3.21875 -14.847656 3.21875 -15.640625 C 3.21875 -17.222656 4.015625 -18.503906 5.609375 -19.484375 C 7.203125 -20.460938 9.140625 -20.953125 11.421875 -20.953125 C 15.503906 -20.953125 18 -19.628906 18.90625 -16.984375 C 19.207031 -16.097656 19.359375 -15.082031 19.359375 -13.9375 Z M 10.421875 -9.890625 C 9.222656 -9.378906 8.328125 -8.71875 7.734375 -7.90625 C 7.140625 -7.101562 6.84375 -6.226562 6.84375 -5.28125 C 6.84375 -4.34375 7.097656 -3.628906 7.609375 -3.140625 C 8.128906 -2.648438 8.773438 -2.40625 9.546875 -2.40625 C 11.109375 -2.40625 12.398438 -2.957031 13.421875 -4.0625 C 14.453125 -5.164062 14.96875 -6.703125 14.96875 -8.671875 L 14.96875 -11.796875 C 14.101562 -11.347656 13.1875 -10.941406 12.21875 -10.578125 C 11.257812 -10.210938 10.660156 -9.984375 10.421875 -9.890625 Z M 10.421875 -9.890625 "/></g></g></g><g fill="#f9f7dc" fill-opacity="1"><g transform="translate(158.373123, 368.891867)"><g><path d="M 9.65625 -1.921875 C 8.675781 -0.484375 7.367188 0.234375 5.734375 0.234375 C 4.554688 0.234375 3.640625 -0.128906 2.984375 -0.859375 C 2.328125 -1.585938 2 -2.675781 2 -4.125 L 2 -8.984375 C 2 -9.546875 1.945312 -9.910156 1.84375 -10.078125 C 1.75 -10.253906 1.488281 -10.34375 1.0625 -10.34375 L 0.75 -10.34375 L 0.75 -11.640625 C 1.46875 -11.640625 1.988281 -11.695312 2.3125 -11.8125 C 2.632812 -11.925781 2.867188 -12.007812 3.015625 -12.0625 C 3.160156 -12.113281 3.332031 -12.140625 3.53125 -12.140625 C 3.925781 -12.140625 4.191406 -12.015625 4.328125 -11.765625 C 4.460938 -11.515625 4.53125 -11.117188 4.53125 -10.578125 L 4.53125 -4.03125 C 4.53125 -3.175781 4.617188 -2.59375 4.796875 -2.28125 C 5.140625 -1.675781 5.734375 -1.375 6.578125 -1.375 C 7.140625 -1.375 7.691406 -1.59375 8.234375 -2.03125 C 8.785156 -2.476562 9.175781 -3.003906 9.40625 -3.609375 L 9.40625 -8.984375 C 9.382812 -9.566406 9.328125 -9.9375 9.234375 -10.09375 C 9.140625 -10.257812 8.878906 -10.34375 8.453125 -10.34375 L 7.78125 -10.34375 L 7.78125 -11.640625 C 8.519531 -11.640625 9.09375 -11.695312 9.5 -11.8125 C 9.90625 -11.925781 10.191406 -12.007812 10.359375 -12.0625 C 10.535156 -12.113281 10.722656 -12.140625 10.921875 -12.140625 C 11.316406 -12.140625 11.582031 -12.019531 11.71875 -11.78125 C 11.863281 -11.539062 11.9375 -11.15625 11.9375 -10.625 L 11.9375 -3.125 C 11.9375 -2.363281 11.972656 -1.894531 12.046875 -1.71875 C 12.171875 -1.375 12.484375 -1.203125 12.984375 -1.203125 C 13.242188 -1.203125 13.46875 -1.242188 13.65625 -1.328125 L 13.65625 -0.1875 C 13.28125 0.09375 12.769531 0.234375 12.125 0.234375 C 10.757812 0.234375 9.9375 -0.484375 9.65625 -1.921875 Z M 9.65625 -1.921875 "/></g></g></g><g fill="#f9f7dc" fill-opacity="1"><g transform="translate(180.552242, 368.891867)"><g><path d="M 3.375 4.53125 C 3.570312 4.570312 3.738281 4.585938 3.875 4.578125 C 4.007812 4.578125 4.171875 4.507812 4.359375 4.375 C 4.554688 4.25 4.742188 4.082031 4.921875 3.875 C 5.273438 3.476562 5.578125 2.992188 5.828125 2.421875 C 6.085938 1.847656 6.21875 1.394531 6.21875 1.0625 C 6.21875 0.738281 6.175781 0.488281 6.09375 0.3125 C 6.007812 0.144531 5.910156 0 5.796875 -0.125 C 5.691406 -0.257812 5.578125 -0.390625 5.453125 -0.515625 C 5.328125 -0.640625 5.226562 -0.804688 5.15625 -1.015625 L 1.75 -9.359375 C 1.582031 -9.835938 1.410156 -10.164062 1.234375 -10.34375 C 1.054688 -10.519531 0.660156 -10.609375 0.046875 -10.609375 L 0.046875 -11.890625 L 6.359375 -11.890625 L 6.359375 -10.609375 C 5.460938 -10.609375 4.921875 -10.535156 4.734375 -10.390625 C 4.546875 -10.242188 4.445312 -10.09375 4.4375 -9.9375 C 4.425781 -9.78125 4.460938 -9.585938 4.546875 -9.359375 L 7.46875 -1.375 L 10.4375 -9.359375 C 10.613281 -9.804688 10.554688 -10.125 10.265625 -10.3125 C 9.972656 -10.507812 9.359375 -10.609375 8.421875 -10.609375 L 8.421875 -11.890625 L 13.890625 -11.890625 L 13.890625 -10.609375 C 13.378906 -10.609375 12.988281 -10.503906 12.71875 -10.296875 C 12.457031 -10.085938 12.25 -9.773438 12.09375 -9.359375 L 8.9375 -0.96875 C 8.664062 -0.34375 8.40625 0.257812 8.15625 0.84375 C 7.914062 1.425781 7.671875 1.976562 7.421875 2.5 C 6.867188 3.644531 6.265625 4.507812 5.609375 5.09375 C 4.960938 5.6875 4.207031 5.984375 3.34375 5.984375 C 2.476562 5.984375 1.8125 5.769531 1.34375 5.34375 C 0.875 4.914062 0.640625 4.421875 0.640625 3.859375 C 0.640625 3.304688 0.796875 2.863281 1.109375 2.53125 C 1.421875 2.207031 1.8125 2.046875 2.28125 2.046875 C 2.957031 2.046875 3.425781 2.34375 3.6875 2.9375 C 3.757812 3.113281 3.796875 3.304688 3.796875 3.515625 C 3.796875 3.898438 3.65625 4.238281 3.375 4.53125 Z M 3.375 4.53125 "/></g></g></g><g fill="#f9f7dc" fill-opacity="1"><g transform="translate(202.28556, 368.891867)"><g><path d="M 9.65625 -1.921875 C 8.675781 -0.484375 7.367188 0.234375 5.734375 0.234375 C 4.554688 0.234375 3.640625 -0.128906 2.984375 -0.859375 C 2.328125 -1.585938 2 -2.675781 2 -4.125 L 2 -8.984375 C 2 -9.546875 1.945312 -9.910156 1.84375 -10.078125 C 1.75 -10.253906 1.488281 -10.34375 1.0625 -10.34375 L 0.75 -10.34375 L 0.75 -11.640625 C 1.46875 -11.640625 1.988281 -11.695312 2.3125 -11.8125 C 2.632812 -11.925781 2.867188 -12.007812 3.015625 -12.0625 C 3.160156 -12.113281 3.332031 -12.140625 3.53125 -12.140625 C 3.925781 -12.140625 4.191406 -12.015625 4.328125 -11.765625 C 4.460938 -11.515625 4.53125 -11.117188 4.53125 -10.578125 L 4.53125 -4.03125 C 4.53125 -3.175781 4.617188 -2.59375 4.796875 -2.28125 C 5.140625 -1.675781 5.734375 -1.375 6.578125 -1.375 C 7.140625 -1.375 7.691406 -1.59375 8.234375 -2.03125 C 8.785156 -2.476562 9.175781 -3.003906 9.40625 -3.609375 L 9.40625 -8.984375 C 9.382812 -9.566406 9.328125 -9.9375 9.234375 -10.09375 C 9.140625 -10.257812 8.878906 -10.34375 8.453125 -10.34375 L 7.78125 -10.34375 L 7.78125 -11.640625 C 8.519531 -11.640625 9.09375 -11.695312 9.5 -11.8125 C 9.90625 -11.925781 10.191406 -12.007812 10.359375 -12.0625 C 10.535156 -12.113281 10.722656 -12.140625 10.921875 -12.140625 C 11.316406 -12.140625 11.582031 -12.019531 11.71875 -11.78125 C 11.863281 -11.539062 11.9375 -11.15625 11.9375 -10.625 L 11.9375 -3.125 C 11.9375 -2.363281 11.972656 -1.894531 12.046875 -1.71875 C 12.171875 -1.375 12.484375 -1.203125 12.984375 -1.203125 C 13.242188 -1.203125 13.46875 -1.242188 13.65625 -1.328125 L 13.65625 -0.1875 C 13.28125 0.09375 12.769531 0.234375 12.125 0.234375 C 10.757812 0.234375 9.9375 -0.484375 9.65625 -1.921875 Z M 9.65625 -1.921875 "/></g></g></g></svg>