<svg xmlns="http://www.w3.org/2000/svg" xmlns:xlink="http://www.w3.org/1999/xlink" width="500" zoomAndPan="magnify" viewBox="0 0 375 374.999991" height="500" preserveAspectRatio="xMidYMid meet" version="1.0"><defs><clipPath id="4e7f0736d9"><path d="M 14.414062 14.414062 L 360.914062 14.414062 L 360.914062 360.914062 L 14.414062 360.914062 Z M 14.414062 14.414062 " clip-rule="nonzero"/></clipPath><clipPath id="a078ee7c7f"><path d="M 14.414062 14.414062 L 360.914062 14.414062 L 360.914062 360.914062 L 14.414062 360.914062 Z M 14.414062 14.414062 " clip-rule="nonzero"/></clipPath></defs><path fill="#231f20" d="M 148.355469 194.871094 L 141.992188 192.9375 L 145.179688 193.90625 L 141.984375 192.957031 C 141.984375 192.871094 144.339844 184.636719 139.488281 177.265625 C 135.035156 170.550781 126.085938 166.351562 112.867188 164.785156 C 74.214844 160.246094 66.59375 157.347656 64.496094 151.476562 C 64.28125 150.878906 64.136719 150.265625 64.066406 149.636719 C 64.019531 149.117188 64.019531 148.59375 64.066406 148.074219 C 64.945312 139.238281 82.816406 133.488281 88.273438 131.933594 C 107.054688 126.6875 126.191406 123.71875 145.675781 123.023438 C 179.785156 122.515625 197.375 128.183594 207.582031 132.492188 C 221.683594 138.449219 228.4375 144.453125 227.65625 150.34375 C 226.875 156.234375 218.039062 161.800781 213.511719 163.871094 L 212.789062 164.195312 C 206.351562 167.023438 200.660156 167.273438 195.160156 167.523438 C 189.335938 167.773438 183.90625 168.015625 177.949219 171.425781 C 176.222656 172.316406 174.839844 173.578125 173.789062 175.210938 C 173.105469 176.308594 171.957031 181.46875 172.78125 190.425781 L 166.125 191.035156 C 165.292969 182.347656 166.125 174.929688 168.105469 171.683594 C 169.738281 169.105469 171.898438 167.097656 174.585938 165.652344 C 181.949219 161.433594 188.496094 161.152344 194.820312 160.867188 C 199.9375 160.644531 204.761719 160.4375 210.019531 158.121094 L 210.710938 157.816406 C 216.398438 155.234375 220.824219 151.035156 221.035156 149.496094 C 221.199219 148.296875 217.375 143.898438 204.96875 138.679688 C 195.308594 134.605469 178.671875 129.246094 145.703125 129.738281 C 126.820312 130.464844 108.269531 133.34375 90.054688 138.371094 C 80.164062 141.203125 70.917969 146.152344 70.644531 148.773438 C 70.644531 148.8125 70.644531 148.929688 70.644531 148.996094 C 70.660156 149.09375 70.6875 149.1875 70.726562 149.28125 C 72.175781 153.355469 101.203125 156.765625 113.597656 158.230469 C 128.921875 160.027344 139.503906 165.253906 145.0625 173.746094 C 151.625 183.730469 148.488281 194.421875 148.355469 194.871094 Z M 148.355469 194.871094 " fill-opacity="1" fill-rule="nonzero"/><path fill="#231f20" d="M 86.402344 263.539062 L 80.421875 260.667969 C 80.503906 260.5 88.824219 243.460938 99.554688 226.558594 C 114.605469 202.765625 126.59375 191.007812 136.203125 190.609375 C 148.023438 190.128906 159.585938 188.15625 170.761719 186.25 C 178.246094 184.96875 185.292969 183.753906 191.875 183.113281 C 208.644531 181.449219 210.566406 182.148438 226.074219 190.042969 C 232.679688 193.414062 240.027344 191.476562 247.8125 189.410156 C 255.601562 187.347656 263.769531 185.195312 271.941406 188.1875 C 279.285156 190.875 304.203125 203.472656 316.863281 252.714844 L 316.914062 252.898438 C 317.023438 253.324219 317.046875 253.757812 316.988281 254.195312 C 316.925781 254.632812 316.78125 255.039062 316.558594 255.421875 C 316.332031 255.800781 316.046875 256.125 315.691406 256.390625 C 315.339844 256.652344 314.949219 256.84375 314.523438 256.953125 C 314.09375 257.0625 313.664062 257.085938 313.226562 257.027344 C 312.789062 256.964844 312.378906 256.820312 312 256.597656 C 311.617188 256.371094 311.296875 256.082031 311.03125 255.730469 C 310.765625 255.378906 310.578125 254.988281 310.464844 254.5625 C 301.066406 217.824219 283.230469 199.429688 269.703125 194.460938 C 263.496094 192.191406 256.722656 193.980469 249.5625 195.875 C 240.917969 198.164062 231.972656 200.527344 223.097656 196 C 208.753906 188.6875 207.898438 188.253906 192.582031 189.761719 C 186.234375 190.394531 179.269531 191.574219 171.933594 192.832031 C 160.542969 194.777344 148.773438 196.792969 136.527344 197.289062 C 123.265625 197.765625 98.757812 238.203125 86.402344 263.539062 Z M 86.402344 263.539062 " fill-opacity="1" fill-rule="nonzero"/><path fill="#231f20" d="M 223.445312 153.113281 C 148.472656 132.542969 68.921875 151.449219 68.125 151.632812 L 66.550781 145.160156 C 67.382812 144.96875 148.53125 125.652344 225.210938 146.691406 Z M 223.445312 153.113281 " fill-opacity="1" fill-rule="nonzero"/><path fill="#231f20" d="M 353.011719 195.527344 C 352.863281 195.269531 338.359375 169.863281 313.402344 166.609375 C 295.882812 164.320312 277.15625 173.265625 257.761719 193.230469 L 252.988281 188.597656 C 273.945312 167.015625 294.585938 157.390625 314.320312 159.988281 C 342.605469 163.714844 358.167969 191.09375 358.820312 192.257812 Z M 353.011719 195.527344 " fill-opacity="1" fill-rule="nonzero"/><path fill="#231f20" d="M 165.417969 334 C 161.832031 334 157.933594 333.019531 153.304688 330.308594 C 145.101562 325.5 143.097656 325.609375 138.238281 325.875 C 132.746094 326.242188 127.277344 326.019531 121.835938 325.207031 C 114.980469 324.285156 109.945312 325.167969 105.503906 325.949219 C 97.066406 327.429688 89.78125 328.703125 78.234375 316.554688 L 77.574219 315.859375 L 77.382812 314.917969 C 77.117188 313.5625 70.96875 281.640625 89.164062 271.03125 C 91.101562 269.902344 95.394531 267.390625 96.726562 266.289062 C 96.625 264.121094 96.976562 261.449219 100.886719 255.867188 C 107.183594 246.808594 109.761719 245.71875 116.285156 243.902344 C 119.933594 242.933594 123.496094 241.71875 126.976562 240.25 C 130.46875 238.871094 133.832031 237.222656 137.058594 235.300781 C 140.460938 233.289062 142.707031 231.972656 157.074219 227.8125 C 171.824219 223.539062 175.234375 225.792969 179.535156 231.972656 C 180.726562 233.871094 182.148438 235.570312 183.804688 237.074219 C 185.460938 238.578125 187.292969 239.828125 189.296875 240.824219 C 196.199219 244.484375 205.460938 243.820312 214.402344 243.179688 C 225.476562 242.390625 236.914062 241.566406 241.324219 250.824219 C 245.734375 260.085938 242.628906 264.96875 240.785156 267.945312 C 240.609375 268.238281 240.382812 268.585938 240.234375 268.871094 L 240.417969 269.027344 C 241.84375 270.105469 243.339844 271.066406 244.910156 271.914062 C 250.019531 274.84375 256.367188 278.488281 256.941406 288.601562 C 257.09375 292.789062 256.304688 296.789062 254.570312 300.601562 C 253.128906 304.253906 252.90625 304.816406 255.640625 307.03125 C 259.351562 310.042969 260.101562 314.867188 257.648438 319.933594 C 253.636719 328.253906 241.882812 335.515625 229.886719 332.828125 C 225.65625 331.898438 221.550781 330.582031 217.566406 328.886719 C 212.507812 326.832031 209.460938 325.558594 196.433594 326.507812 C 188.371094 327.070312 182.804688 329.144531 177.898438 330.972656 C 173.679688 332.546875 169.769531 334 165.417969 334 Z M 140.992188 319.128906 C 145.304688 319.128906 148.929688 320.027344 156.675781 324.558594 C 164.203125 328.96875 168.238281 327.472656 175.570312 324.742188 C 180.644531 322.84375 186.949219 320.5 195.96875 319.867188 C 210.527344 318.84375 214.527344 320.464844 220.09375 322.722656 C 223.738281 324.269531 227.492188 325.464844 231.359375 326.316406 C 240.667969 328.394531 249.144531 322.253906 251.683594 317.015625 C 252.421875 315.484375 252.988281 313.402344 251.472656 312.179688 C 244.960938 306.890625 246.867188 302.039062 248.40625 298.136719 C 249.417969 295.550781 250.476562 292.871094 250.25 288.984375 C 249.886719 282.472656 246.207031 280.359375 241.558594 277.695312 C 239.671875 276.675781 237.882812 275.511719 236.183594 274.203125 C 231.40625 270.335938 233.902344 266.347656 235.101562 264.425781 C 236.574219 262.074219 238.097656 259.628906 235.277344 253.695312 C 232.980469 248.886719 226.023438 249.027344 214.84375 249.828125 C 205.410156 250.5 194.726562 251.273438 186.132812 246.707031 C 183.652344 245.457031 181.378906 243.898438 179.320312 242.03125 C 177.261719 240.164062 175.484375 238.054688 173.996094 235.710938 C 171.441406 232.015625 170.578125 230.777344 158.886719 234.160156 C 145.335938 238.089844 143.371094 239.246094 140.410156 241 C 136.917969 243.070312 133.285156 244.855469 129.511719 246.359375 C 125.777344 247.929688 121.949219 249.238281 118.03125 250.285156 C 112.808594 251.730469 111.566406 252.082031 106.320312 259.628906 C 103.257812 264.042969 103.339844 265.390625 103.390625 266.125 C 103.648438 270.242188 101.292969 271.625 92.523438 276.75 C 79.871094 284.144531 82.941406 307.679688 83.75 312.65625 C 92.367188 321.457031 96.675781 320.699219 104.355469 319.359375 C 109.03125 318.527344 114.847656 317.511719 122.722656 318.578125 C 127.75 319.335938 132.800781 319.542969 137.875 319.203125 C 138.988281 319.167969 140.035156 319.128906 140.992188 319.128906 Z M 140.992188 319.128906 " fill-opacity="1" fill-rule="nonzero"/><path fill="#231f20" d="M 278.910156 331.324219 C 278.785156 331.164062 266.183594 314.785156 253.070312 312.886719 L 254.027344 306.296875 C 269.835938 308.59375 283.636719 326.539062 284.210938 327.304688 L 278.910156 331.324219 L 281.566406 329.308594 Z M 278.910156 331.324219 " fill-opacity="1" fill-rule="nonzero"/><path fill="#231f20" d="M 58.101562 295.332031 L 52.058594 292.546875 C 72.390625 248.453125 102.972656 254.234375 104.265625 254.503906 L 102.914062 261.023438 L 103.589844 257.761719 L 102.933594 261.023438 C 101.84375 260.816406 76.109375 256.265625 58.101562 295.332031 Z M 58.101562 295.332031 " fill-opacity="1" fill-rule="nonzero"/><path fill="#231f20" d="M 339.699219 264.578125 C 339.175781 264.386719 286.457031 245.785156 241.292969 264.519531 L 238.746094 258.371094 C 286.347656 238.628906 339.71875 257.539062 341.964844 258.3125 Z M 339.699219 264.578125 " fill-opacity="1" fill-rule="nonzero"/><path fill="#f15a29" d="M 228.558594 205.277344 C 228.84375 205.632812 229.070312 206.027344 229.242188 206.464844 C 229.414062 206.90625 229.523438 207.375 229.570312 207.878906 C 229.617188 208.382812 229.605469 208.910156 229.527344 209.457031 C 229.449219 210.007812 229.3125 210.570312 229.117188 211.144531 C 228.917969 211.71875 228.660156 212.296875 228.351562 212.875 C 228.039062 213.453125 227.675781 214.019531 227.261719 214.578125 C 226.847656 215.136719 226.386719 215.675781 225.886719 216.195312 C 225.386719 216.714844 224.855469 217.199219 224.289062 217.660156 C 223.71875 218.117188 223.128906 218.535156 222.519531 218.914062 C 221.90625 219.292969 221.285156 219.625 220.648438 219.914062 C 220.015625 220.199219 219.382812 220.433594 218.753906 220.617188 C 218.121094 220.800781 217.503906 220.929688 216.902344 221 C 216.296875 221.074219 215.71875 221.089844 215.164062 221.046875 C 214.613281 221.007812 214.09375 220.910156 213.613281 220.757812 C 213.128906 220.601562 212.691406 220.394531 212.300781 220.136719 C 211.910156 219.878906 211.570312 219.570312 211.28125 219.214844 C 210.996094 218.859375 210.765625 218.464844 210.597656 218.023438 C 210.425781 217.585938 210.316406 217.117188 210.269531 216.613281 C 210.222656 216.109375 210.234375 215.582031 210.3125 215.035156 C 210.386719 214.484375 210.527344 213.921875 210.722656 213.347656 C 210.921875 212.773438 211.179688 212.195312 211.488281 211.617188 C 211.800781 211.039062 212.164062 210.472656 212.578125 209.914062 C 212.992188 209.351562 213.449219 208.816406 213.953125 208.296875 C 214.453125 207.777344 214.984375 207.289062 215.550781 206.832031 C 216.121094 206.375 216.710938 205.957031 217.320312 205.578125 C 217.933594 205.199219 218.554688 204.863281 219.191406 204.578125 C 219.824219 204.292969 220.457031 204.058594 221.085938 203.875 C 221.71875 203.691406 222.335938 203.5625 222.9375 203.492188 C 223.542969 203.417969 224.121094 203.402344 224.675781 203.445312 C 225.226562 203.484375 225.746094 203.582031 226.226562 203.734375 C 226.710938 203.890625 227.148438 204.09375 227.539062 204.355469 C 227.929688 204.613281 228.269531 204.921875 228.558594 205.277344 Z M 228.558594 205.277344 " fill-opacity="1" fill-rule="nonzero"/><path fill="#f15a29" d="M 192.179688 199.542969 C 192.703125 200.046875 193.1875 200.578125 193.636719 201.136719 C 194.085938 201.695312 194.492188 202.273438 194.851562 202.863281 C 195.210938 203.457031 195.519531 204.054688 195.777344 204.65625 C 196.03125 205.257812 196.234375 205.855469 196.375 206.445312 C 196.519531 207.035156 196.605469 207.605469 196.628906 208.160156 C 196.652344 208.714844 196.617188 209.242188 196.523438 209.738281 C 196.429688 210.238281 196.277344 210.695312 196.066406 211.117188 C 195.855469 211.539062 195.589844 211.917969 195.269531 212.246094 C 194.953125 212.578125 194.585938 212.855469 194.171875 213.078125 C 193.757812 213.304688 193.300781 213.472656 192.808594 213.585938 C 192.3125 213.699219 191.789062 213.75 191.234375 213.746094 C 190.679688 213.738281 190.105469 213.675781 189.511719 213.550781 C 188.914062 213.429688 188.3125 213.25 187.703125 213.015625 C 187.089844 212.777344 186.484375 212.492188 185.878906 212.152344 C 185.277344 211.8125 184.6875 211.425781 184.113281 210.996094 C 183.539062 210.566406 182.992188 210.101562 182.46875 209.597656 C 181.949219 209.09375 181.460938 208.5625 181.011719 208.003906 C 180.5625 207.445312 180.160156 206.867188 179.796875 206.277344 C 179.4375 205.683594 179.128906 205.085938 178.875 204.484375 C 178.617188 203.882812 178.417969 203.285156 178.273438 202.695312 C 178.128906 202.105469 178.046875 201.535156 178.019531 200.980469 C 177.996094 200.425781 178.03125 199.898438 178.125 199.402344 C 178.21875 198.90625 178.375 198.445312 178.585938 198.023438 C 178.796875 197.601562 179.058594 197.222656 179.378906 196.894531 C 179.699219 196.5625 180.0625 196.285156 180.480469 196.0625 C 180.894531 195.835938 181.347656 195.667969 181.839844 195.554688 C 182.335938 195.441406 182.859375 195.390625 183.414062 195.394531 C 183.96875 195.402344 184.546875 195.464844 185.140625 195.589844 C 185.734375 195.710938 186.335938 195.890625 186.949219 196.125 C 187.558594 196.363281 188.164062 196.648438 188.769531 196.988281 C 189.375 197.328125 189.960938 197.714844 190.535156 198.144531 C 191.109375 198.574219 191.660156 199.039062 192.179688 199.542969 Z M 192.179688 199.542969 " fill-opacity="1" fill-rule="nonzero"/><path fill="#f15a29" d="M 223.640625 226.039062 C 223.871094 226.324219 224.054688 226.644531 224.195312 226.996094 C 224.332031 227.347656 224.421875 227.730469 224.460938 228.132812 C 224.5 228.539062 224.488281 228.964844 224.429688 229.410156 C 224.367188 229.851562 224.257812 230.304688 224.097656 230.769531 C 223.9375 231.234375 223.734375 231.699219 223.480469 232.164062 C 223.230469 232.632812 222.9375 233.089844 222.605469 233.542969 C 222.273438 233.992188 221.902344 234.429688 221.5 234.847656 C 221.097656 235.265625 220.667969 235.660156 220.210938 236.027344 C 219.753906 236.398438 219.28125 236.738281 218.785156 237.042969 C 218.292969 237.351562 217.792969 237.621094 217.28125 237.851562 C 216.769531 238.085938 216.261719 238.277344 215.753906 238.425781 C 215.242188 238.574219 214.746094 238.675781 214.257812 238.734375 C 213.773438 238.796875 213.304688 238.808594 212.859375 238.777344 C 212.414062 238.742188 211.996094 238.667969 211.605469 238.542969 C 211.21875 238.421875 210.863281 238.253906 210.546875 238.046875 C 210.230469 237.839844 209.957031 237.589844 209.726562 237.304688 C 209.496094 237.019531 209.308594 236.699219 209.171875 236.347656 C 209.035156 235.992188 208.945312 235.613281 208.90625 235.207031 C 208.867188 234.800781 208.878906 234.378906 208.9375 233.933594 C 209 233.492188 209.109375 233.039062 209.269531 232.574219 C 209.429688 232.109375 209.632812 231.644531 209.882812 231.179688 C 210.136719 230.710938 210.425781 230.253906 210.761719 229.800781 C 211.09375 229.351562 211.460938 228.914062 211.863281 228.496094 C 212.269531 228.078125 212.699219 227.683594 213.15625 227.3125 C 213.609375 226.945312 214.085938 226.605469 214.578125 226.296875 C 215.074219 225.992188 215.574219 225.722656 216.085938 225.488281 C 216.597656 225.257812 217.105469 225.066406 217.613281 224.917969 C 218.121094 224.769531 218.621094 224.667969 219.105469 224.605469 C 219.59375 224.546875 220.058594 224.535156 220.507812 224.566406 C 220.953125 224.597656 221.371094 224.675781 221.761719 224.800781 C 222.148438 224.921875 222.5 225.085938 222.816406 225.296875 C 223.132812 225.503906 223.40625 225.753906 223.640625 226.039062 Z M 223.640625 226.039062 " fill-opacity="1" fill-rule="nonzero"/><path fill="#f15a29" d="M 192.324219 220.589844 C 192.746094 220.996094 193.136719 221.421875 193.5 221.875 C 193.859375 222.324219 194.1875 222.789062 194.476562 223.265625 C 194.769531 223.742188 195.015625 224.226562 195.222656 224.710938 C 195.429688 225.195312 195.589844 225.679688 195.707031 226.152344 C 195.824219 226.628906 195.890625 227.089844 195.910156 227.539062 C 195.929688 227.984375 195.902344 228.410156 195.824219 228.8125 C 195.75 229.214844 195.625 229.585938 195.453125 229.925781 C 195.285156 230.265625 195.070312 230.570312 194.8125 230.835938 C 194.554688 231.101562 194.261719 231.324219 193.925781 231.507812 C 193.589844 231.691406 193.222656 231.824219 192.824219 231.917969 C 192.425781 232.007812 192.003906 232.050781 191.554688 232.046875 C 191.109375 232.042969 190.644531 231.988281 190.164062 231.890625 C 189.6875 231.792969 189.199219 231.648438 188.707031 231.457031 C 188.214844 231.265625 187.722656 231.035156 187.238281 230.761719 C 186.75 230.488281 186.273438 230.179688 185.8125 229.832031 C 185.347656 229.484375 184.90625 229.109375 184.484375 228.703125 C 184.066406 228.296875 183.671875 227.867188 183.3125 227.414062 C 182.949219 226.964844 182.621094 226.5 182.332031 226.023438 C 182.042969 225.546875 181.792969 225.066406 181.585938 224.578125 C 181.378906 224.09375 181.21875 223.613281 181.101562 223.136719 C 180.988281 222.660156 180.917969 222.199219 180.898438 221.75 C 180.878906 221.304688 180.90625 220.878906 180.984375 220.476562 C 181.0625 220.078125 181.183594 219.707031 181.355469 219.363281 C 181.527344 219.023438 181.738281 218.722656 181.996094 218.453125 C 182.253906 218.1875 182.550781 217.964844 182.882812 217.78125 C 183.21875 217.601562 183.585938 217.464844 183.984375 217.375 C 184.382812 217.28125 184.804688 217.238281 185.253906 217.242188 C 185.703125 217.25 186.164062 217.300781 186.644531 217.398438 C 187.125 217.496094 187.609375 217.640625 188.101562 217.832031 C 188.597656 218.023438 189.085938 218.253906 189.574219 218.527344 C 190.058594 218.800781 190.535156 219.113281 191 219.457031 C 191.460938 219.804688 191.902344 220.183594 192.324219 220.589844 Z M 192.324219 220.589844 " fill-opacity="1" fill-rule="nonzero"/><path fill="#231f20" d="M 218.464844 191.78125 C 218.238281 188.230469 219.902344 182.898438 225.058594 181.632812 C 224.875 181.054688 224.734375 180.460938 224.636719 179.863281 C 224.019531 176.074219 224.902344 172.898438 227.132812 170.910156 C 227.84375 170.292969 228.632812 169.808594 229.503906 169.449219 C 230.375 169.09375 231.28125 168.886719 232.21875 168.828125 C 233.160156 168.769531 234.082031 168.859375 234.992188 169.105469 C 235.902344 169.347656 236.746094 169.730469 237.53125 170.253906 C 237.730469 169.308594 238.042969 168.398438 238.472656 167.53125 C 238.855469 166.777344 239.332031 166.085938 239.902344 165.457031 C 240.472656 164.832031 241.117188 164.292969 241.832031 163.839844 C 242.550781 163.390625 243.316406 163.042969 244.128906 162.800781 C 244.9375 162.554688 245.769531 162.425781 246.617188 162.40625 C 247.359375 162.40625 248.09375 162.496094 248.816406 162.679688 C 249.539062 162.863281 250.226562 163.132812 250.878906 163.488281 C 251.535156 163.847656 252.132812 164.277344 252.679688 164.785156 C 253.226562 165.292969 253.699219 165.859375 254.101562 166.484375 C 254.875 167.859375 255.324219 169.328125 255.441406 170.902344 C 256.289062 170.511719 257.179688 170.28125 258.109375 170.214844 C 259.042969 170.148438 259.953125 170.246094 260.851562 170.511719 C 264.820312 171.824219 266.671875 176.632812 267.046875 180.351562 C 267.152344 181.390625 267.136719 182.429688 267.007812 183.464844 L 260.402344 182.632812 C 260.464844 182.097656 260.464844 181.566406 260.402344 181.035156 C 260.191406 178.988281 259.234375 177.066406 258.738281 176.832031 C 258.078125 176.996094 257.453125 177.242188 256.863281 177.582031 C 255.425781 178.296875 252.753906 179.636719 250.492188 177.582031 C 250.035156 177.152344 249.683594 176.648438 249.441406 176.066406 C 249.203125 175.488281 249.089844 174.882812 249.113281 174.253906 C 249.113281 173.945312 249.113281 173.515625 248.988281 172.890625 C 248.941406 171.875 248.753906 170.882812 248.429688 169.917969 C 247.972656 169.324219 247.367188 169.019531 246.617188 169.011719 C 246.144531 169.054688 245.710938 169.210938 245.316406 169.476562 C 244.921875 169.742188 244.617188 170.085938 244.402344 170.511719 C 244.007812 171.414062 243.828125 172.355469 243.871094 173.339844 C 243.871094 173.539062 243.871094 173.722656 243.910156 173.90625 C 244.054688 174.703125 244.023438 175.492188 243.820312 176.277344 C 243.613281 177.058594 243.253906 177.761719 242.738281 178.390625 C 242.125 179.058594 241.386719 179.535156 240.527344 179.820312 C 239.664062 180.105469 238.789062 180.164062 237.898438 179.996094 C 235.402344 179.496094 234.46875 177.398438 234.019531 176.390625 C 233.90625 176.101562 233.761719 175.824219 233.585938 175.558594 C 233.257812 175.433594 232.914062 175.386719 232.558594 175.429688 C 232.207031 175.472656 231.882812 175.59375 231.589844 175.792969 C 231.226562 176.125 230.984375 177.242188 231.226562 178.746094 C 231.339844 179.320312 231.511719 179.875 231.742188 180.410156 C 232.207031 181.609375 232.980469 183.613281 231.640625 185.652344 C 231.109375 186.371094 230.445312 186.929688 229.648438 187.335938 C 228.851562 187.742188 228.007812 187.949219 227.113281 187.957031 C 225.152344 188.140625 225.101562 190.617188 225.125 191.367188 Z M 218.464844 191.78125 " fill-opacity="1" fill-rule="nonzero"/><path fill="#231f20" d="M 269.476562 178.839844 L 262.820312 178.472656 C 263.402344 167.898438 266.625 161.175781 272.390625 158.503906 C 281.539062 154.230469 292.613281 162.167969 293.84375 163.082031 L 289.875 168.421875 L 291.855469 165.75 L 289.875 168.421875 C 287.378906 166.59375 279.894531 162.316406 275.199219 164.539062 C 271.015625 166.484375 269.816406 173.390625 269.476562 178.839844 Z M 269.476562 178.839844 " fill-opacity="1" fill-rule="nonzero"/><path fill="#231f20" d="M 170.992188 103.339844 C 170.410156 103.339844 169.832031 103.3125 169.25 103.253906 C 168.671875 103.199219 168.097656 103.113281 167.527344 103 C 166.957031 102.886719 166.390625 102.742188 165.835938 102.574219 C 165.277344 102.40625 164.730469 102.210938 164.191406 101.988281 C 163.65625 101.765625 163.128906 101.515625 162.617188 101.242188 C 162.101562 100.96875 161.605469 100.667969 161.121094 100.34375 C 160.636719 100.023438 160.167969 99.675781 159.71875 99.304688 C 159.269531 98.9375 158.839844 98.546875 158.425781 98.136719 C 158.015625 97.722656 157.625 97.292969 157.257812 96.84375 C 156.886719 96.394531 156.542969 95.925781 156.21875 95.441406 C 155.894531 94.957031 155.59375 94.460938 155.320312 93.945312 C 155.046875 93.433594 154.796875 92.90625 154.574219 92.371094 C 154.351562 91.832031 154.15625 91.285156 153.988281 90.730469 C 153.820312 90.171875 153.679688 89.609375 153.5625 89.035156 C 153.449219 88.464844 153.367188 87.890625 153.308594 87.3125 C 153.25 86.734375 153.222656 86.152344 153.222656 85.570312 C 153.222656 84.988281 153.25 84.40625 153.308594 83.828125 C 153.367188 83.25 153.449219 82.675781 153.5625 82.101562 C 153.679688 81.53125 153.820312 80.96875 153.988281 80.410156 C 154.15625 79.855469 154.351562 79.308594 154.574219 78.769531 C 154.796875 78.230469 155.046875 77.707031 155.320312 77.195312 C 155.59375 76.679688 155.894531 76.179688 156.21875 75.699219 C 156.542969 75.214844 156.886719 74.746094 157.257812 74.296875 C 157.625 73.847656 158.015625 73.417969 158.425781 73.003906 C 158.839844 72.59375 159.269531 72.203125 159.71875 71.832031 C 160.167969 71.464844 160.636719 71.117188 161.121094 70.792969 C 161.605469 70.472656 162.101562 70.171875 162.617188 69.898438 C 163.128906 69.625 163.65625 69.375 164.191406 69.152344 C 164.730469 68.929688 165.277344 68.734375 165.835938 68.566406 C 166.390625 68.394531 166.957031 68.253906 167.527344 68.140625 C 168.097656 68.027344 168.671875 67.941406 169.25 67.886719 C 169.832031 67.828125 170.410156 67.800781 170.992188 67.800781 C 171.574219 67.800781 172.15625 67.828125 172.734375 67.886719 C 173.3125 67.941406 173.890625 68.027344 174.460938 68.140625 C 175.03125 68.253906 175.59375 68.394531 176.152344 68.566406 C 176.707031 68.734375 177.253906 68.929688 177.792969 69.152344 C 178.332031 69.375 178.855469 69.625 179.371094 69.898438 C 179.882812 70.171875 180.382812 70.472656 180.867188 70.792969 C 181.347656 71.117188 181.816406 71.464844 182.265625 71.832031 C 182.714844 72.203125 183.148438 72.59375 183.558594 73.003906 C 183.96875 73.417969 184.359375 73.847656 184.730469 74.296875 C 185.097656 74.746094 185.445312 75.214844 185.769531 75.699219 C 186.089844 76.179688 186.390625 76.679688 186.664062 77.195312 C 186.9375 77.707031 187.1875 78.230469 187.410156 78.769531 C 187.632812 79.308594 187.828125 79.855469 187.996094 80.410156 C 188.167969 80.96875 188.308594 81.53125 188.421875 82.101562 C 188.535156 82.675781 188.621094 83.25 188.675781 83.828125 C 188.734375 84.40625 188.761719 84.988281 188.761719 85.570312 C 188.761719 86.152344 188.734375 86.734375 188.675781 87.3125 C 188.617188 87.890625 188.53125 88.464844 188.417969 89.035156 C 188.304688 89.605469 188.164062 90.171875 187.996094 90.726562 C 187.824219 91.285156 187.628906 91.832031 187.40625 92.367188 C 187.183594 92.90625 186.933594 93.429688 186.660156 93.945312 C 186.386719 94.457031 186.085938 94.953125 185.761719 95.4375 C 185.441406 95.921875 185.09375 96.390625 184.722656 96.839844 C 184.355469 97.289062 183.964844 97.71875 183.554688 98.128906 C 183.140625 98.542969 182.710938 98.933594 182.261719 99.300781 C 181.8125 99.671875 181.34375 100.015625 180.863281 100.339844 C 180.378906 100.664062 179.878906 100.960938 179.367188 101.238281 C 178.851562 101.511719 178.328125 101.761719 177.789062 101.984375 C 177.253906 102.207031 176.707031 102.402344 176.148438 102.570312 C 175.59375 102.742188 175.027344 102.882812 174.457031 102.996094 C 173.886719 103.109375 173.3125 103.195312 172.734375 103.253906 C 172.15625 103.3125 171.574219 103.339844 170.992188 103.339844 Z M 170.992188 74.457031 C 170.261719 74.457031 169.539062 74.527344 168.824219 74.667969 C 168.109375 74.8125 167.414062 75.023438 166.738281 75.300781 C 166.066406 75.582031 165.425781 75.921875 164.816406 76.328125 C 164.210938 76.734375 163.648438 77.195312 163.132812 77.710938 C 162.617188 78.226562 162.15625 78.789062 161.75 79.394531 C 161.347656 80.003906 161.003906 80.640625 160.722656 81.316406 C 160.445312 81.992188 160.234375 82.6875 160.09375 83.402344 C 159.949219 84.117188 159.878906 84.839844 159.878906 85.570312 C 159.878906 86.300781 159.949219 87.023438 160.09375 87.738281 C 160.234375 88.453125 160.445312 89.148438 160.722656 89.824219 C 161.003906 90.496094 161.347656 91.136719 161.75 91.746094 C 162.15625 92.351562 162.617188 92.914062 163.132812 93.429688 C 163.648438 93.945312 164.210938 94.40625 164.816406 94.8125 C 165.425781 95.21875 166.066406 95.558594 166.738281 95.839844 C 167.414062 96.117188 168.109375 96.328125 168.824219 96.472656 C 169.539062 96.613281 170.261719 96.683594 170.992188 96.683594 C 171.722656 96.683594 172.445312 96.613281 173.160156 96.472656 C 173.878906 96.328125 174.570312 96.117188 175.246094 95.839844 C 175.921875 95.558594 176.5625 95.21875 177.167969 94.8125 C 177.773438 94.40625 178.335938 93.945312 178.851562 93.429688 C 179.367188 92.914062 179.828125 92.351562 180.234375 91.746094 C 180.640625 91.136719 180.980469 90.496094 181.261719 89.824219 C 181.539062 89.148438 181.75 88.453125 181.894531 87.738281 C 182.035156 87.023438 182.109375 86.300781 182.109375 85.570312 C 182.105469 84.839844 182.035156 84.117188 181.894531 83.402344 C 181.75 82.6875 181.539062 81.992188 181.257812 81.316406 C 180.980469 80.644531 180.636719 80.003906 180.230469 79.398438 C 179.828125 78.789062 179.367188 78.230469 178.851562 77.714844 C 178.332031 77.199219 177.773438 76.738281 177.164062 76.332031 C 176.558594 75.925781 175.917969 75.582031 175.246094 75.304688 C 174.570312 75.023438 173.875 74.8125 173.160156 74.671875 C 172.445312 74.527344 171.722656 74.457031 170.992188 74.457031 Z M 170.992188 74.457031 " fill-opacity="1" fill-rule="nonzero"/><path fill="#231f20" d="M 135.878906 62.277344 C 135.210938 62.277344 134.554688 62.210938 133.902344 62.082031 C 133.25 61.953125 132.617188 61.761719 132.003906 61.503906 C 131.386719 61.25 130.804688 60.9375 130.253906 60.570312 C 129.699219 60.199219 129.1875 59.78125 128.71875 59.3125 C 128.246094 58.839844 127.828125 58.328125 127.457031 57.777344 C 127.089844 57.222656 126.777344 56.640625 126.523438 56.027344 C 126.269531 55.410156 126.078125 54.777344 125.945312 54.125 C 125.816406 53.476562 125.753906 52.816406 125.753906 52.152344 C 125.753906 51.488281 125.816406 50.828125 125.945312 50.175781 C 126.078125 49.523438 126.269531 48.890625 126.523438 48.277344 C 126.777344 47.664062 127.089844 47.078125 127.457031 46.527344 C 127.828125 45.972656 128.246094 45.460938 128.71875 44.992188 C 129.1875 44.523438 129.699219 44.101562 130.253906 43.734375 C 130.804688 43.363281 131.386719 43.050781 132.003906 42.796875 C 132.617188 42.542969 133.25 42.351562 133.902344 42.222656 C 134.554688 42.089844 135.210938 42.027344 135.878906 42.027344 C 136.542969 42.027344 137.199219 42.089844 137.851562 42.222656 C 138.503906 42.351562 139.136719 42.542969 139.75 42.796875 C 140.367188 43.050781 140.949219 43.363281 141.503906 43.734375 C 142.054688 44.101562 142.566406 44.523438 143.035156 44.992188 C 143.507812 45.460938 143.925781 45.972656 144.296875 46.527344 C 144.664062 47.078125 144.976562 47.664062 145.230469 48.277344 C 145.484375 48.890625 145.675781 49.523438 145.808594 50.175781 C 145.9375 50.828125 146 51.488281 146 52.152344 C 146 52.816406 145.9375 53.472656 145.804688 54.125 C 145.675781 54.777344 145.484375 55.410156 145.230469 56.023438 C 144.972656 56.636719 144.664062 57.222656 144.292969 57.773438 C 143.921875 58.328125 143.503906 58.839844 143.035156 59.308594 C 142.5625 59.777344 142.050781 60.199219 141.5 60.566406 C 140.949219 60.9375 140.363281 61.25 139.75 61.503906 C 139.136719 61.757812 138.503906 61.949219 137.851562 62.082031 C 137.199219 62.210938 136.542969 62.277344 135.878906 62.277344 Z M 135.878906 48.683594 C 135.417969 48.683594 134.972656 48.769531 134.550781 48.945312 C 134.125 49.121094 133.75 49.375 133.425781 49.699219 C 133.097656 50.023438 132.847656 50.398438 132.671875 50.824219 C 132.496094 51.25 132.40625 51.691406 132.40625 52.152344 C 132.40625 52.613281 132.496094 53.054688 132.671875 53.480469 C 132.847656 53.902344 133.097656 54.277344 133.425781 54.605469 C 133.75 54.929688 134.125 55.179688 134.550781 55.355469 C 134.972656 55.53125 135.417969 55.621094 135.878906 55.621094 C 136.335938 55.621094 136.78125 55.53125 137.203125 55.355469 C 137.628906 55.179688 138.003906 54.929688 138.332031 54.605469 C 138.65625 54.277344 138.90625 53.902344 139.082031 53.480469 C 139.257812 53.054688 139.347656 52.613281 139.347656 52.152344 C 139.347656 51.691406 139.257812 51.25 139.082031 50.824219 C 138.90625 50.398438 138.65625 50.023438 138.332031 49.699219 C 138.003906 49.375 137.628906 49.121094 137.203125 48.945312 C 136.78125 48.769531 136.335938 48.683594 135.878906 48.683594 Z M 135.878906 48.683594 " fill-opacity="1" fill-rule="nonzero"/><path fill="#231f20" d="M 326.046875 151.773438 C 325.46875 151.773438 324.890625 151.71875 324.320312 151.605469 C 323.75 151.492188 323.199219 151.324219 322.660156 151.101562 C 322.125 150.878906 321.613281 150.605469 321.132812 150.285156 C 320.648438 149.960938 320.199219 149.59375 319.789062 149.183594 C 319.378906 148.773438 319.011719 148.324219 318.6875 147.839844 C 318.367188 147.359375 318.09375 146.847656 317.871094 146.3125 C 317.648438 145.773438 317.480469 145.21875 317.367188 144.652344 C 317.253906 144.082031 317.195312 143.503906 317.195312 142.921875 C 317.195312 142.34375 317.253906 141.765625 317.367188 141.195312 C 317.480469 140.625 317.648438 140.074219 317.871094 139.535156 C 318.09375 139 318.367188 138.488281 318.6875 138.007812 C 319.011719 137.523438 319.378906 137.074219 319.789062 136.664062 C 320.199219 136.253906 320.648438 135.886719 321.132812 135.5625 C 321.613281 135.242188 322.125 134.96875 322.660156 134.746094 C 323.199219 134.523438 323.75 134.355469 324.320312 134.242188 C 324.890625 134.128906 325.46875 134.070312 326.046875 134.070312 C 326.628906 134.070312 327.207031 134.128906 327.777344 134.242188 C 328.34375 134.355469 328.898438 134.523438 329.4375 134.746094 C 329.972656 134.96875 330.484375 135.242188 330.964844 135.5625 C 331.449219 135.886719 331.898438 136.253906 332.308594 136.664062 C 332.71875 137.074219 333.085938 137.523438 333.410156 138.003906 C 333.730469 138.488281 334.003906 139 334.226562 139.535156 C 334.449219 140.074219 334.617188 140.625 334.730469 141.195312 C 334.84375 141.765625 334.902344 142.34375 334.902344 142.921875 C 334.898438 143.503906 334.839844 144.078125 334.726562 144.648438 C 334.613281 145.21875 334.445312 145.773438 334.222656 146.308594 C 334 146.84375 333.726562 147.355469 333.402344 147.835938 C 333.082031 148.320312 332.714844 148.765625 332.304688 149.179688 C 331.890625 149.589844 331.445312 149.957031 330.960938 150.277344 C 330.480469 150.601562 329.96875 150.875 329.433594 151.097656 C 328.898438 151.320312 328.34375 151.488281 327.773438 151.601562 C 327.203125 151.714844 326.628906 151.773438 326.046875 151.773438 Z M 326.046875 140.726562 C 325.757812 140.726562 325.476562 140.78125 325.207031 140.894531 C 324.9375 141.007812 324.703125 141.164062 324.496094 141.371094 C 324.289062 141.578125 324.132812 141.8125 324.019531 142.082031 C 323.90625 142.351562 323.851562 142.632812 323.851562 142.921875 C 323.851562 143.214844 323.90625 143.496094 324.019531 143.765625 C 324.132812 144.03125 324.289062 144.269531 324.496094 144.476562 C 324.703125 144.683594 324.9375 144.839844 325.207031 144.953125 C 325.476562 145.0625 325.757812 145.121094 326.046875 145.121094 C 326.339844 145.121094 326.621094 145.0625 326.890625 144.953125 C 327.160156 144.839844 327.394531 144.683594 327.601562 144.476562 C 327.808594 144.269531 327.964844 144.03125 328.078125 143.765625 C 328.1875 143.496094 328.246094 143.214844 328.246094 142.921875 C 328.246094 142.632812 328.1875 142.351562 328.078125 142.082031 C 327.964844 141.8125 327.808594 141.578125 327.601562 141.371094 C 327.394531 141.164062 327.15625 141.007812 326.890625 140.894531 C 326.621094 140.78125 326.339844 140.726562 326.046875 140.726562 Z M 326.046875 140.726562 " fill-opacity="1" fill-rule="nonzero"/><path fill="#231f20" d="M 263.105469 132.589844 C 262.855469 132.589844 262.613281 132.589844 262.363281 132.589844 L 261.949219 132.589844 C 256.957031 132.167969 251.875 128.796875 249.84375 124.585938 C 246.816406 118.308594 250.585938 110.710938 254.21875 107.316406 C 259.75 102.160156 269.636719 102.074219 281.28125 106.59375 C 282.949219 103.28125 284.414062 99.878906 285.675781 96.394531 C 285.882812 95.8125 286.226562 95.328125 286.703125 94.9375 C 287.183594 94.550781 287.726562 94.3125 288.335938 94.222656 C 288.945312 94.136719 289.535156 94.214844 290.101562 94.453125 C 290.671875 94.695312 291.136719 95.0625 291.5 95.5625 C 293.65625 98.476562 295.339844 101.644531 296.546875 105.0625 C 296.605469 105.21875 296.757812 105.652344 296.921875 106.183594 C 298.105469 109.976562 298.6875 113.859375 298.667969 117.832031 C 298.671875 118.445312 298.515625 119.015625 298.199219 119.542969 C 297.886719 120.070312 297.457031 120.476562 296.917969 120.769531 C 296.378906 121.058594 295.800781 121.191406 295.1875 121.160156 C 294.578125 121.132812 294.015625 120.949219 293.503906 120.609375 C 290.523438 118.574219 287.429688 116.726562 284.21875 115.078125 C 279.128906 123.796875 271.816406 132.589844 263.105469 132.589844 Z M 266.050781 109.9375 C 262.773438 109.9375 260.277344 110.71875 258.753906 112.132812 C 256.648438 114.105469 254.460938 118.789062 255.84375 121.652344 C 256.730469 123.507812 259.617188 125.660156 262.496094 125.902344 L 262.753906 125.902344 C 267.886719 126.203125 273.496094 119.980469 278.054688 112.417969 C 274.199219 110.890625 270.195312 110.066406 266.050781 109.9375 Z M 287.371094 109.253906 C 288.703125 109.921875 290.046875 110.636719 291.398438 111.402344 C 291.1875 110.292969 290.910156 109.203125 290.566406 108.132812 C 290.433594 107.707031 290.308594 107.359375 290.257812 107.226562 C 289.992188 106.46875 289.691406 105.71875 289.367188 104.988281 C 288.785156 106.292969 288.121094 107.734375 287.371094 109.253906 Z M 287.371094 109.253906 " fill-opacity="1" fill-rule="nonzero"/><path fill="#231f20" d="M 266.921875 130.292969 L 260.601562 128.222656 C 263.96875 117.933594 256.566406 111.027344 256.25 110.753906 L 260.691406 105.761719 C 261.148438 106.183594 271.671875 115.792969 266.921875 130.292969 Z M 266.921875 130.292969 " fill-opacity="1" fill-rule="nonzero"/><path fill="#231f20" d="M 73.890625 211.582031 C 67.144531 211.582031 60.519531 205.859375 55.445312 199.859375 C 53.121094 201.570312 50.902344 203.410156 48.789062 205.375 C 48.339844 205.796875 47.816406 206.070312 47.214844 206.199219 C 46.617188 206.328125 46.023438 206.292969 45.441406 206.09375 C 44.863281 205.898438 44.371094 205.5625 43.976562 205.09375 C 43.578125 204.625 43.332031 204.085938 43.234375 203.480469 C 42.664062 200.105469 42.609375 196.722656 43.074219 193.332031 C 43.148438 192.855469 43.214844 192.5 43.242188 192.316406 C 43.792969 189.230469 44.777344 186.289062 46.203125 183.496094 C 46.484375 182.953125 46.882812 182.515625 47.40625 182.191406 C 47.925781 181.867188 48.492188 181.703125 49.105469 181.691406 L 49.164062 181.691406 C 49.765625 181.691406 50.328125 181.84375 50.847656 182.148438 C 51.367188 182.457031 51.773438 182.871094 52.066406 183.398438 C 53.550781 185.984375 55.167969 188.480469 56.925781 190.882812 C 66.078125 185.578125 74.398438 184.363281 79.878906 187.964844 C 83.539062 190.394531 87.90625 196.484375 86.167969 202.421875 C 85.011719 206.398438 81.0625 210.078125 76.785156 211.167969 L 76.402344 211.257812 C 75.578125 211.460938 74.738281 211.566406 73.890625 211.582031 Z M 61.128906 196.191406 C 65.71875 201.476562 70.9375 205.726562 74.972656 204.8125 L 75.203125 204.753906 C 76.253906 204.453125 77.179688 203.9375 77.992188 203.207031 C 78.800781 202.476562 79.40625 201.605469 79.8125 200.59375 C 80.503906 198.238281 78.148438 194.769531 76.234375 193.546875 C 73.480469 191.714844 67.992188 192.382812 61.128906 196.183594 Z M 49.996094 192.613281 C 49.941406 192.898438 49.882812 193.1875 49.820312 193.488281 C 49.820312 193.605469 49.746094 193.914062 49.695312 194.277344 C 49.613281 194.851562 49.554688 195.425781 49.515625 196.015625 C 50.128906 195.527344 50.753906 195.050781 51.371094 194.59375 C 50.886719 193.914062 50.429688 193.28125 49.996094 192.613281 Z M 49.996094 192.613281 " fill-opacity="1" fill-rule="nonzero"/><path fill="#231f20" d="M 71.742188 209.769531 C 65.578125 197.964844 73.273438 188.140625 73.605469 187.757812 L 78.789062 191.917969 L 76.203125 189.828125 L 78.804688 191.898438 C 78.589844 192.175781 73.523438 198.789062 77.640625 206.675781 Z M 71.742188 209.769531 " fill-opacity="1" fill-rule="nonzero"/><path fill="#231f20" d="M 202.832031 250.191406 C 194.613281 250.191406 193.722656 229.34375 193.722656 220.386719 C 193.722656 211.425781 194.613281 190.578125 202.832031 190.578125 C 211.050781 190.578125 211.980469 211.425781 211.980469 220.386719 C 211.980469 229.34375 211.050781 250.191406 202.832031 250.191406 Z M 202.832031 199.179688 C 201.65625 202.707031 200.375 209.910156 200.375 220.386719 C 200.375 230.859375 201.65625 238.0625 202.832031 241.582031 C 204.003906 238.0625 205.328125 230.859375 205.328125 220.386719 C 205.328125 209.910156 204.003906 202.707031 202.832031 199.179688 Z M 202.832031 199.179688 " fill-opacity="1" fill-rule="nonzero"/><path fill="#f15a29" d="M 302.488281 180.378906 C 302.488281 180.726562 302.453125 181.070312 302.386719 181.414062 C 302.316406 181.753906 302.21875 182.085938 302.085938 182.410156 C 301.949219 182.730469 301.789062 183.035156 301.59375 183.324219 C 301.398438 183.617188 301.179688 183.882812 300.933594 184.128906 C 300.6875 184.375 300.417969 184.597656 300.128906 184.789062 C 299.839844 184.984375 299.535156 185.148438 299.210938 185.28125 C 298.890625 185.414062 298.558594 185.515625 298.214844 185.582031 C 297.875 185.652344 297.527344 185.683594 297.179688 185.683594 C 296.832031 185.683594 296.488281 185.652344 296.144531 185.582031 C 295.804688 185.515625 295.472656 185.414062 295.148438 185.28125 C 294.828125 185.148438 294.523438 184.984375 294.230469 184.789062 C 293.941406 184.597656 293.675781 184.375 293.425781 184.128906 C 293.179688 183.882812 292.960938 183.617188 292.765625 183.324219 C 292.574219 183.035156 292.410156 182.730469 292.277344 182.410156 C 292.144531 182.085938 292.042969 181.753906 291.976562 181.414062 C 291.90625 181.070312 291.871094 180.726562 291.871094 180.378906 C 291.871094 180.027344 291.90625 179.683594 291.976562 179.339844 C 292.042969 179 292.144531 178.667969 292.277344 178.347656 C 292.410156 178.023438 292.574219 177.71875 292.765625 177.429688 C 292.960938 177.136719 293.179688 176.871094 293.425781 176.625 C 293.675781 176.378906 293.941406 176.15625 294.230469 175.964844 C 294.523438 175.769531 294.828125 175.605469 295.148438 175.472656 C 295.472656 175.339844 295.804688 175.238281 296.144531 175.171875 C 296.488281 175.101562 296.832031 175.070312 297.179688 175.070312 C 297.527344 175.070312 297.875 175.101562 298.214844 175.171875 C 298.558594 175.238281 298.890625 175.339844 299.210938 175.472656 C 299.535156 175.605469 299.839844 175.769531 300.128906 175.964844 C 300.417969 176.15625 300.6875 176.378906 300.933594 176.625 C 301.179688 176.871094 301.398438 177.136719 301.59375 177.429688 C 301.789062 177.71875 301.949219 178.023438 302.085938 178.347656 C 302.21875 178.667969 302.316406 179 302.386719 179.339844 C 302.453125 179.683594 302.488281 180.027344 302.488281 180.378906 Z M 302.488281 180.378906 " fill-opacity="1" fill-rule="nonzero"/><path fill="#f15a29" d="M 352.8125 224.910156 C 352.8125 225.894531 352.707031 226.871094 352.5 227.839844 C 352.296875 228.804688 351.988281 229.742188 351.582031 230.652344 C 351.179688 231.5625 350.679688 232.429688 350.09375 233.25 C 349.503906 234.066406 348.835938 234.824219 348.085938 235.523438 C 347.335938 236.21875 346.519531 236.84375 345.640625 237.390625 C 344.757812 237.9375 343.828125 238.398438 342.847656 238.777344 C 341.871094 239.152344 340.859375 239.4375 339.820312 239.628906 C 338.78125 239.824219 337.730469 239.917969 336.671875 239.917969 C 335.613281 239.917969 334.5625 239.824219 333.523438 239.628906 C 332.484375 239.4375 331.476562 239.152344 330.496094 238.777344 C 329.515625 238.398438 328.585938 237.9375 327.707031 237.390625 C 326.824219 236.84375 326.007812 236.21875 325.261719 235.523438 C 324.511719 234.824219 323.839844 234.066406 323.253906 233.25 C 322.664062 232.429688 322.167969 231.5625 321.761719 230.652344 C 321.355469 229.742188 321.050781 228.804688 320.84375 227.839844 C 320.636719 226.871094 320.53125 225.894531 320.53125 224.910156 C 320.53125 223.925781 320.636719 222.949219 320.84375 221.984375 C 321.050781 221.015625 321.355469 220.078125 321.761719 219.167969 C 322.167969 218.257812 322.664062 217.390625 323.253906 216.574219 C 323.839844 215.753906 324.511719 214.996094 325.261719 214.296875 C 326.007812 213.601562 326.824219 212.980469 327.707031 212.433594 C 328.585938 211.882812 329.515625 211.421875 330.496094 211.046875 C 331.476562 210.667969 332.484375 210.382812 333.523438 210.191406 C 334.5625 210 335.613281 209.902344 336.671875 209.902344 C 337.730469 209.902344 338.78125 210 339.820312 210.191406 C 340.859375 210.382812 341.871094 210.667969 342.847656 211.046875 C 343.828125 211.421875 344.757812 211.882812 345.640625 212.433594 C 346.519531 212.980469 347.335938 213.601562 348.085938 214.296875 C 348.835938 214.996094 349.503906 215.753906 350.09375 216.574219 C 350.679688 217.390625 351.179688 218.257812 351.582031 219.167969 C 351.988281 220.078125 352.296875 221.015625 352.5 221.984375 C 352.707031 222.949219 352.8125 223.925781 352.8125 224.910156 Z M 352.8125 224.910156 " fill-opacity="1" fill-rule="nonzero"/><path fill="#f15a29" d="M 313.679688 214.910156 C 313.679688 215.265625 313.609375 215.601562 313.476562 215.929688 C 313.339844 216.253906 313.148438 216.542969 312.898438 216.792969 C 312.648438 217.042969 312.359375 217.234375 312.035156 217.371094 C 311.707031 217.503906 311.367188 217.574219 311.015625 217.574219 C 310.664062 217.574219 310.324219 217.503906 309.996094 217.371094 C 309.671875 217.234375 309.382812 217.042969 309.132812 216.792969 C 308.882812 216.542969 308.691406 216.253906 308.554688 215.929688 C 308.421875 215.601562 308.351562 215.265625 308.351562 214.910156 C 308.351562 214.558594 308.421875 214.21875 308.554688 213.890625 C 308.691406 213.566406 308.882812 213.277344 309.132812 213.027344 C 309.382812 212.777344 309.671875 212.585938 309.996094 212.453125 C 310.324219 212.316406 310.664062 212.25 311.015625 212.25 C 311.367188 212.25 311.707031 212.316406 312.035156 212.453125 C 312.359375 212.585938 312.648438 212.777344 312.898438 213.027344 C 313.148438 213.277344 313.339844 213.566406 313.476562 213.890625 C 313.609375 214.21875 313.679688 214.558594 313.679688 214.910156 Z M 313.679688 214.910156 " fill-opacity="1" fill-rule="nonzero"/><path fill="#f15a29" d="M 139.269531 333.660156 C 139.269531 334.089844 139.230469 334.511719 139.144531 334.929688 C 139.0625 335.351562 138.9375 335.757812 138.777344 336.152344 C 138.613281 336.546875 138.410156 336.925781 138.171875 337.28125 C 137.9375 337.636719 137.664062 337.964844 137.363281 338.265625 C 137.0625 338.570312 136.730469 338.839844 136.375 339.078125 C 136.019531 339.316406 135.644531 339.515625 135.25 339.679688 C 134.855469 339.84375 134.449219 339.964844 134.027344 340.050781 C 133.609375 340.132812 133.183594 340.175781 132.757812 340.175781 C 132.328125 340.175781 131.90625 340.132812 131.488281 340.050781 C 131.066406 339.964844 130.660156 339.84375 130.265625 339.679688 C 129.871094 339.515625 129.492188 339.316406 129.136719 339.078125 C 128.78125 338.839844 128.453125 338.570312 128.152344 338.265625 C 127.847656 337.964844 127.578125 337.636719 127.339844 337.28125 C 127.105469 336.925781 126.902344 336.546875 126.738281 336.152344 C 126.574219 335.757812 126.453125 335.351562 126.367188 334.929688 C 126.285156 334.511719 126.242188 334.089844 126.242188 333.660156 C 126.242188 333.234375 126.285156 332.808594 126.367188 332.390625 C 126.453125 331.96875 126.574219 331.5625 126.738281 331.167969 C 126.902344 330.773438 127.105469 330.398438 127.339844 330.042969 C 127.578125 329.6875 127.847656 329.355469 128.152344 329.054688 C 128.453125 328.753906 128.78125 328.480469 129.136719 328.246094 C 129.492188 328.007812 129.871094 327.804688 130.265625 327.644531 C 130.660156 327.480469 131.066406 327.355469 131.488281 327.273438 C 131.90625 327.1875 132.328125 327.148438 132.757812 327.148438 C 133.183594 327.148438 133.609375 327.1875 134.027344 327.273438 C 134.449219 327.355469 134.855469 327.480469 135.25 327.644531 C 135.644531 327.804688 136.019531 328.007812 136.375 328.246094 C 136.730469 328.480469 137.0625 328.753906 137.363281 329.054688 C 137.664062 329.355469 137.9375 329.6875 138.171875 330.042969 C 138.410156 330.398438 138.613281 330.773438 138.777344 331.167969 C 138.9375 331.5625 139.0625 331.96875 139.144531 332.390625 C 139.230469 332.808594 139.269531 333.234375 139.269531 333.660156 Z M 139.269531 333.660156 " fill-opacity="1" fill-rule="nonzero"/><path fill="#f15a29" d="M 231.324219 345.015625 C 231.324219 345.761719 231.253906 346.5 231.105469 347.230469 C 230.960938 347.964844 230.746094 348.671875 230.460938 349.363281 C 230.175781 350.050781 229.824219 350.707031 229.410156 351.324219 C 228.996094 351.945312 228.527344 352.519531 228 353.046875 C 227.472656 353.574219 226.898438 354.042969 226.277344 354.457031 C 225.65625 354.871094 225.003906 355.222656 224.316406 355.507812 C 223.625 355.792969 222.914062 356.007812 222.183594 356.15625 C 221.453125 356.300781 220.714844 356.371094 219.96875 356.371094 C 219.222656 356.371094 218.484375 356.300781 217.753906 356.15625 C 217.023438 356.007812 216.3125 355.792969 215.625 355.507812 C 214.933594 355.222656 214.28125 354.871094 213.660156 354.457031 C 213.039062 354.042969 212.464844 353.574219 211.9375 353.046875 C 211.410156 352.519531 210.941406 351.945312 210.527344 351.324219 C 210.113281 350.707031 209.761719 350.050781 209.476562 349.363281 C 209.191406 348.671875 208.976562 347.964844 208.832031 347.230469 C 208.6875 346.5 208.613281 345.761719 208.613281 345.015625 C 208.613281 344.269531 208.6875 343.53125 208.832031 342.800781 C 208.976562 342.070312 209.191406 341.359375 209.476562 340.671875 C 209.761719 339.980469 210.113281 339.328125 210.527344 338.707031 C 210.941406 338.085938 211.410156 337.515625 211.9375 336.988281 C 212.464844 336.460938 213.039062 335.988281 213.660156 335.574219 C 214.28125 335.160156 214.933594 334.8125 215.625 334.523438 C 216.3125 334.238281 217.023438 334.023438 217.753906 333.878906 C 218.484375 333.734375 219.222656 333.660156 219.96875 333.660156 C 220.714844 333.660156 221.453125 333.734375 222.183594 333.878906 C 222.914062 334.023438 223.625 334.238281 224.316406 334.523438 C 225.003906 334.8125 225.65625 335.160156 226.277344 335.574219 C 226.898438 335.988281 227.472656 336.460938 228 336.988281 C 228.527344 337.515625 228.996094 338.085938 229.410156 338.707031 C 229.824219 339.328125 230.175781 339.980469 230.460938 340.671875 C 230.746094 341.359375 230.960938 342.070312 231.105469 342.800781 C 231.253906 343.53125 231.324219 344.269531 231.324219 345.015625 Z M 231.324219 345.015625 " fill-opacity="1" fill-rule="nonzero"/><g clip-path="url(#4e7f0736d9)"><path fill="#231f20" d="M 187.671875 360.921875 C 92.132812 360.921875 14.414062 283.203125 14.414062 187.671875 C 14.414062 92.140625 92.132812 14.414062 187.671875 14.414062 C 283.210938 14.414062 360.921875 92.132812 360.921875 187.671875 C 360.921875 283.210938 283.203125 360.921875 187.671875 360.921875 Z M 187.671875 21.070312 C 95.804688 21.070312 21.070312 95.804688 21.070312 187.671875 C 21.070312 279.542969 95.804688 354.269531 187.671875 354.269531 C 279.542969 354.269531 354.269531 279.535156 354.269531 187.671875 C 354.269531 95.8125 279.535156 21.070312 187.671875 21.070312 Z M 187.671875 21.070312 " fill-opacity="1" fill-rule="nonzero"/></g><path fill="#231f20" d="M 249.71875 296.28125 C 225.925781 272.332031 199.039062 273.820312 198.769531 273.820312 L 198.304688 267.164062 C 199.527344 267.082031 228.40625 265.367188 254.445312 291.566406 Z M 249.71875 296.28125 " fill-opacity="1" fill-rule="nonzero"/><path fill="#231f20" d="M 87.964844 320.75 L 81.800781 318.152344 C 93.007812 291.632812 109.195312 283.210938 120.8125 280.867188 C 124.648438 280.066406 128.519531 279.789062 132.433594 280.027344 C 136.34375 280.269531 140.152344 281.019531 143.863281 282.28125 L 141.425781 288.480469 C 140.035156 287.929688 106.992188 275.707031 87.964844 320.75 Z M 87.964844 320.75 " fill-opacity="1" fill-rule="nonzero"/><path fill="#231f20" d="M 129.855469 246.226562 L 126.601562 240.402344 C 141.777344 231.898438 159.621094 238.203125 160.378906 238.480469 L 158.105469 244.734375 L 159.238281 241.609375 L 158.113281 244.734375 C 157.957031 244.695312 142.332031 239.226562 129.855469 246.226562 Z M 129.855469 246.226562 " fill-opacity="1" fill-rule="nonzero"/><path fill="#231f20" d="M 253.546875 208.921875 L 295.316406 208.921875 L 295.316406 215.578125 L 253.546875 215.578125 Z M 253.546875 208.921875 " fill-opacity="1" fill-rule="nonzero"/><path fill="#231f20" d="M 239.976562 225.601562 L 302.488281 225.601562 L 302.488281 232.257812 L 239.976562 232.257812 Z M 239.976562 225.601562 " fill-opacity="1" fill-rule="nonzero"/><path fill="#231f20" d="M 113.441406 208.921875 L 156.550781 208.921875 L 156.550781 215.578125 L 113.441406 215.578125 Z M 113.441406 208.921875 " fill-opacity="1" fill-rule="nonzero"/><path fill="#231f20" d="M 101.933594 225.601562 L 118.878906 225.601562 L 118.878906 232.257812 L 101.933594 232.257812 Z M 101.933594 225.601562 " fill-opacity="1" fill-rule="nonzero"/><path fill="#231f20" d="M 303.308594 256.214844 L 308.011719 251.507812 L 333.972656 277.46875 L 329.269531 282.175781 Z M 303.308594 256.214844 " fill-opacity="1" fill-rule="nonzero"/><path fill="#231f20" d="M 288.035156 255.140625 L 292.742188 250.433594 L 329.308594 287 L 324.601562 291.707031 Z M 288.035156 255.140625 " fill-opacity="1" fill-rule="nonzero"/><path fill="#231f20" d="M 272.097656 255.164062 L 276.777344 250.433594 L 322.871094 296.011719 L 318.191406 300.746094 Z M 272.097656 255.164062 " fill-opacity="1" fill-rule="nonzero"/><path fill="#231f20" d="M 258.292969 258.363281 L 262.972656 253.628906 L 314.578125 304.664062 L 309.898438 309.394531 Z M 258.292969 258.363281 " fill-opacity="1" fill-rule="nonzero"/><path fill="#231f20" d="M 82.691406 138.191406 L 88.191406 134.441406 L 94.125 143.140625 L 88.625 146.890625 Z M 82.691406 138.191406 " fill-opacity="1" fill-rule="nonzero"/><path fill="#231f20" d="M 97.152344 133.527344 L 103.34375 131.085938 L 107.527344 141.707031 L 101.335938 144.144531 Z M 97.152344 133.527344 " fill-opacity="1" fill-rule="nonzero"/><path fill="#231f20" d="M 112.839844 130.03125 L 119.316406 128.503906 L 122.117188 140.363281 L 115.640625 141.894531 Z M 112.839844 130.03125 " fill-opacity="1" fill-rule="nonzero"/><path fill="#231f20" d="M 127.003906 128.238281 L 133.484375 126.710938 L 136.65625 140.195312 L 130.179688 141.71875 Z M 127.003906 128.238281 " fill-opacity="1" fill-rule="nonzero"/><path fill="#231f20" d="M 145.285156 126.328125 L 151.941406 126.328125 L 151.941406 140.136719 L 145.285156 140.136719 Z M 145.285156 126.328125 " fill-opacity="1" fill-rule="nonzero"/><path fill="#231f20" d="M 157.789062 140.878906 L 163.425781 126.324219 L 169.613281 128.722656 L 163.980469 143.273438 Z M 157.789062 140.878906 " fill-opacity="1" fill-rule="nonzero"/><path fill="#231f20" d="M 172.328125 139.640625 L 179.640625 127.542969 L 185.335938 130.984375 L 178.027344 143.082031 Z M 172.328125 139.640625 " fill-opacity="1" fill-rule="nonzero"/><path fill="#231f20" d="M 186.96875 140.769531 L 196.003906 130.152344 L 201.074219 134.464844 L 192.039062 145.082031 Z M 186.96875 140.769531 " fill-opacity="1" fill-rule="nonzero"/><path fill="#231f20" d="M 200.542969 142.621094 L 207.296875 136.199219 L 211.882812 141.023438 L 205.128906 147.441406 Z M 200.542969 142.621094 " fill-opacity="1" fill-rule="nonzero"/><g clip-path="url(#a078ee7c7f)"><path fill="#f15a29" d="M 187.664062 360.914062 C 91.949219 360.914062 14.414062 282.84375 14.414062 187.664062 C 14.414062 92.484375 91.949219 14.414062 187.664062 14.414062 C 283.378906 14.414062 360.914062 91.949219 360.914062 187.664062 C 360.914062 283.378906 282.84375 360.914062 187.664062 360.914062 Z M 187.664062 25.109375 C 97.832031 25.109375 25.109375 97.832031 25.109375 187.664062 C 25.109375 277.5 97.832031 350.21875 187.664062 350.21875 C 277.5 350.21875 350.21875 277.5 350.21875 187.664062 C 350.21875 97.832031 276.964844 25.109375 187.664062 25.109375 Z M 187.664062 25.109375 " fill-opacity="1" fill-rule="nonzero"/></g></svg>