<svg xmlns="http://www.w3.org/2000/svg" xmlns:xlink="http://www.w3.org/1999/xlink" width="500" zoomAndPan="magnify" viewBox="0 0 375 374.999991" height="500" preserveAspectRatio="xMidYMid meet" version="1.0"><defs><clipPath id="6447737a47"><path d="M 5.742188 5.742188 L 369.492188 5.742188 L 369.492188 369.492188 L 5.742188 369.492188 Z M 5.742188 5.742188 " clip-rule="nonzero"/></clipPath></defs><path fill="#ffffff" d="M 146.351562 195.179688 L 139.671875 193.15625 L 143.015625 194.167969 L 139.664062 193.171875 C 139.664062 193.085938 142.132812 184.4375 137.042969 176.699219 C 132.371094 169.652344 122.972656 165.242188 109.09375 163.601562 C 68.519531 158.832031 60.519531 155.792969 58.320312 149.628906 C 58.089844 149 57.941406 148.359375 57.863281 147.695312 C 57.816406 147.148438 57.816406 146.601562 57.863281 146.054688 C 58.789062 136.78125 77.550781 130.746094 83.277344 129.113281 C 102.996094 123.605469 123.082031 120.488281 143.539062 119.757812 C 179.347656 119.226562 197.808594 125.171875 208.527344 129.695312 C 223.328125 135.949219 230.421875 142.257812 229.601562 148.4375 C 228.777344 154.621094 219.503906 160.464844 214.753906 162.640625 L 213.992188 162.980469 C 207.234375 165.949219 201.257812 166.210938 195.488281 166.472656 C 189.375 166.734375 183.671875 166.988281 177.417969 170.570312 C 175.609375 171.503906 174.152344 172.832031 173.050781 174.542969 C 172.335938 175.695312 171.128906 181.109375 171.992188 190.515625 L 165.007812 191.15625 C 164.132812 182.035156 165.007812 174.246094 167.085938 170.839844 C 168.800781 168.136719 171.066406 166.027344 173.886719 164.507812 C 181.617188 160.082031 188.492188 159.785156 195.128906 159.488281 C 200.5 159.25 205.566406 159.03125 211.085938 156.605469 L 211.808594 156.28125 C 217.785156 153.574219 222.429688 149.164062 222.648438 147.546875 C 222.824219 146.289062 218.804688 141.671875 205.785156 136.195312 C 195.644531 131.914062 178.175781 126.292969 143.566406 126.804688 C 123.742188 127.570312 104.269531 130.589844 85.148438 135.871094 C 74.761719 138.839844 65.0625 144.039062 64.773438 146.789062 C 64.773438 146.832031 64.773438 146.953125 64.773438 147.023438 C 64.789062 147.128906 64.816406 147.226562 64.859375 147.320312 C 66.378906 151.601562 96.851562 155.179688 109.863281 156.71875 C 125.949219 158.605469 137.058594 164.089844 142.894531 173.007812 C 149.785156 183.488281 146.492188 194.710938 146.351562 195.179688 Z M 146.351562 195.179688 " fill-opacity="1" fill-rule="nonzero"/><path fill="#ffffff" d="M 81.3125 267.265625 L 75.035156 264.253906 C 75.121094 264.078125 83.855469 246.191406 95.121094 228.445312 C 110.921875 203.46875 123.503906 191.128906 133.59375 190.710938 C 146.003906 190.203125 158.140625 188.132812 169.871094 186.132812 C 177.730469 184.789062 185.128906 183.511719 192.035156 182.839844 C 209.644531 181.09375 211.660156 181.828125 227.941406 190.117188 C 234.875 193.652344 242.585938 191.617188 250.761719 189.453125 C 258.933594 187.285156 267.511719 185.023438 276.089844 188.167969 C 283.800781 190.988281 309.957031 204.210938 323.25 255.90625 L 323.300781 256.097656 C 323.417969 256.546875 323.441406 257 323.378906 257.457031 C 323.3125 257.917969 323.164062 258.347656 322.925781 258.746094 C 322.691406 259.144531 322.390625 259.484375 322.019531 259.761719 C 321.648438 260.042969 321.238281 260.238281 320.789062 260.355469 C 320.339844 260.46875 319.886719 260.496094 319.429688 260.429688 C 318.96875 260.367188 318.539062 260.214844 318.140625 259.980469 C 317.742188 259.746094 317.402344 259.441406 317.125 259.074219 C 316.847656 258.703125 316.648438 258.292969 316.53125 257.84375 C 306.664062 219.277344 287.9375 199.96875 273.738281 194.753906 C 267.222656 192.367188 260.113281 194.246094 252.59375 196.238281 C 243.519531 198.640625 234.132812 201.121094 224.8125 196.367188 C 209.757812 188.691406 208.859375 188.238281 192.777344 189.820312 C 186.117188 190.480469 178.804688 191.722656 171.101562 193.042969 C 159.148438 195.085938 146.789062 197.199219 133.933594 197.722656 C 120.011719 198.21875 94.28125 240.671875 81.3125 267.265625 Z M 81.3125 267.265625 " fill-opacity="1" fill-rule="nonzero"/><path fill="#ffffff" d="M 225.179688 151.347656 C 146.472656 129.75 62.964844 149.601562 62.125 149.792969 L 60.476562 143 C 61.347656 142.796875 146.535156 122.519531 227.03125 144.605469 Z M 225.179688 151.347656 " fill-opacity="1" fill-rule="nonzero"/><path fill="#ffffff" d="M 361.195312 195.871094 C 361.039062 195.601562 345.816406 168.929688 319.617188 165.511719 C 301.222656 163.113281 281.5625 172.5 261.207031 193.460938 L 256.191406 188.597656 C 278.191406 165.941406 299.859375 155.835938 320.578125 158.5625 C 350.269531 162.472656 366.609375 191.214844 367.292969 192.4375 Z M 361.195312 195.871094 " fill-opacity="1" fill-rule="nonzero"/><path fill="#ffffff" d="M 164.265625 341.238281 C 160.5 341.238281 156.402344 340.210938 151.546875 337.363281 C 142.9375 332.3125 140.832031 332.429688 135.730469 332.707031 C 129.964844 333.09375 124.226562 332.859375 118.507812 332.007812 C 111.3125 331.039062 106.03125 331.964844 101.367188 332.785156 C 92.511719 334.339844 84.859375 335.675781 72.738281 322.925781 L 72.046875 322.191406 L 71.847656 321.207031 C 71.566406 319.78125 65.113281 286.269531 84.214844 275.136719 C 86.25 273.949219 90.753906 271.3125 92.152344 270.15625 C 92.046875 267.878906 92.414062 265.074219 96.519531 259.214844 C 103.128906 249.703125 105.835938 248.558594 112.683594 246.65625 C 116.515625 245.640625 120.253906 244.359375 123.90625 242.820312 C 127.574219 241.375 131.101562 239.640625 134.492188 237.625 C 138.0625 235.511719 140.421875 234.132812 155.503906 229.765625 C 170.988281 225.277344 174.570312 227.644531 179.085938 234.132812 C 180.332031 236.125 181.824219 237.90625 183.566406 239.484375 C 185.304688 241.0625 187.226562 242.378906 189.328125 243.425781 C 196.578125 247.265625 206.296875 246.570312 215.6875 245.894531 C 227.3125 245.066406 239.320312 244.203125 243.949219 253.921875 C 248.578125 263.644531 245.320312 268.769531 243.382812 271.894531 C 243.199219 272.203125 242.960938 272.570312 242.804688 272.867188 L 242.996094 273.03125 C 244.492188 274.160156 246.0625 275.171875 247.710938 276.0625 C 253.074219 279.136719 259.738281 282.960938 260.339844 293.582031 C 260.503906 297.976562 259.671875 302.171875 257.851562 306.175781 C 256.339844 310.007812 256.105469 310.601562 258.980469 312.925781 C 262.875 316.085938 263.660156 321.152344 261.082031 326.472656 C 256.875 335.203125 244.535156 342.828125 231.941406 340.007812 C 227.5 339.03125 223.1875 337.652344 219.007812 335.867188 C 213.695312 333.710938 210.5 332.375 196.824219 333.371094 C 188.359375 333.964844 182.515625 336.140625 177.363281 338.0625 C 172.9375 339.710938 168.832031 341.238281 164.265625 341.238281 Z M 138.621094 325.625 C 143.148438 325.625 146.953125 326.566406 155.085938 331.328125 C 162.988281 335.957031 167.226562 334.382812 174.917969 331.519531 C 180.246094 329.527344 186.867188 327.066406 196.332031 326.402344 C 211.617188 325.328125 215.816406 327.03125 221.660156 329.398438 C 225.484375 331.019531 229.425781 332.277344 233.484375 333.171875 C 243.257812 335.351562 252.160156 328.90625 254.820312 323.40625 C 255.597656 321.800781 256.191406 319.617188 254.605469 318.332031 C 247.765625 312.777344 249.765625 307.6875 251.382812 303.589844 C 252.445312 300.875 253.554688 298.0625 253.320312 293.984375 C 252.933594 287.144531 249.074219 284.925781 244.191406 282.132812 C 242.214844 281.058594 240.335938 279.835938 238.550781 278.464844 C 233.539062 274.402344 236.160156 270.21875 237.417969 268.203125 C 238.960938 265.730469 240.558594 263.164062 237.597656 256.933594 C 235.1875 251.886719 227.886719 252.035156 216.148438 252.875 C 206.246094 253.582031 195.03125 254.394531 186.011719 249.597656 C 183.40625 248.285156 181.019531 246.648438 178.859375 244.691406 C 176.695312 242.730469 174.832031 240.519531 173.269531 238.054688 C 170.585938 234.175781 169.679688 232.875 157.410156 236.429688 C 143.183594 240.550781 141.121094 241.765625 138.011719 243.609375 C 134.34375 245.78125 130.53125 247.65625 126.570312 249.234375 C 122.648438 250.882812 118.628906 252.257812 114.519531 253.355469 C 109.035156 254.875 107.734375 255.242188 102.222656 263.164062 C 99.007812 267.800781 99.09375 269.214844 99.148438 269.984375 C 99.417969 274.304688 96.945312 275.757812 87.742188 281.136719 C 74.457031 288.898438 77.679688 313.605469 78.527344 318.828125 C 87.574219 328.070312 92.097656 327.273438 100.160156 325.867188 C 105.070312 324.996094 111.171875 323.929688 119.445312 325.046875 C 124.722656 325.84375 130.023438 326.0625 135.347656 325.703125 C 136.519531 325.667969 137.617188 325.625 138.621094 325.625 Z M 138.621094 325.625 " fill-opacity="1" fill-rule="nonzero"/><path fill="#ffffff" d="M 283.40625 338.425781 C 283.277344 338.261719 270.042969 321.066406 256.28125 319.074219 L 257.285156 312.15625 C 273.878906 314.566406 288.367188 333.40625 288.96875 334.210938 L 283.40625 338.425781 L 286.191406 336.3125 Z M 283.40625 338.425781 " fill-opacity="1" fill-rule="nonzero"/><path fill="#ffffff" d="M 51.601562 300.648438 L 45.261719 297.722656 C 66.605469 251.433594 98.710938 257.503906 100.0625 257.78125 L 98.648438 264.628906 L 99.355469 261.207031 L 98.667969 264.628906 C 97.523438 264.410156 70.511719 259.632812 51.601562 300.648438 Z M 51.601562 300.648438 " fill-opacity="1" fill-rule="nonzero"/><path fill="#ffffff" d="M 347.222656 268.359375 C 346.671875 268.15625 291.328125 248.628906 243.914062 268.296875 L 241.242188 261.84375 C 291.214844 241.117188 347.238281 260.96875 349.597656 261.78125 Z M 347.222656 268.359375 " fill-opacity="1" fill-rule="nonzero"/><path fill="#ffbd59" d="M 230.546875 206.105469 C 230.847656 206.480469 231.085938 206.894531 231.265625 207.355469 C 231.445312 207.816406 231.558594 208.308594 231.609375 208.835938 C 231.660156 209.367188 231.644531 209.917969 231.5625 210.496094 C 231.484375 211.074219 231.339844 211.664062 231.132812 212.265625 C 230.921875 212.871094 230.65625 213.476562 230.328125 214.082031 C 230 214.6875 229.617188 215.285156 229.183594 215.871094 C 228.75 216.457031 228.269531 217.023438 227.742188 217.566406 C 227.21875 218.113281 226.660156 218.625 226.0625 219.105469 C 225.46875 219.585938 224.847656 220.023438 224.207031 220.421875 C 223.5625 220.820312 222.910156 221.171875 222.246094 221.472656 C 221.578125 221.773438 220.914062 222.019531 220.253906 222.210938 C 219.589844 222.402344 218.941406 222.539062 218.308594 222.613281 C 217.675781 222.6875 217.066406 222.707031 216.488281 222.664062 C 215.90625 222.617188 215.363281 222.515625 214.855469 222.355469 C 214.351562 222.195312 213.890625 221.980469 213.480469 221.707031 C 213.070312 221.433594 212.710938 221.113281 212.410156 220.738281 C 212.109375 220.367188 211.871094 219.949219 211.691406 219.488281 C 211.511719 219.03125 211.398438 218.535156 211.347656 218.007812 C 211.296875 217.480469 211.3125 216.925781 211.390625 216.347656 C 211.472656 215.773438 211.617188 215.179688 211.824219 214.578125 C 212.03125 213.972656 212.300781 213.371094 212.628906 212.761719 C 212.957031 212.15625 213.335938 211.558594 213.773438 210.972656 C 214.207031 210.386719 214.6875 209.820312 215.210938 209.277344 C 215.738281 208.734375 216.296875 208.21875 216.894531 207.742188 C 217.488281 207.261719 218.109375 206.820312 218.75 206.421875 C 219.394531 206.023438 220.046875 205.675781 220.710938 205.375 C 221.378906 205.070312 222.042969 204.824219 222.703125 204.632812 C 223.367188 204.441406 224.015625 204.308594 224.648438 204.230469 C 225.28125 204.15625 225.890625 204.140625 226.46875 204.183594 C 227.050781 204.226562 227.59375 204.328125 228.101562 204.488281 C 228.605469 204.648438 229.066406 204.867188 229.476562 205.136719 C 229.886719 205.410156 230.246094 205.734375 230.546875 206.105469 Z M 230.546875 206.105469 " fill-opacity="1" fill-rule="nonzero"/><path fill="#ffbd59" d="M 192.359375 200.089844 C 192.90625 200.617188 193.414062 201.175781 193.886719 201.761719 C 194.359375 202.347656 194.785156 202.953125 195.160156 203.574219 C 195.539062 204.195312 195.863281 204.820312 196.132812 205.453125 C 196.402344 206.085938 196.613281 206.710938 196.761719 207.332031 C 196.914062 207.949219 197.003906 208.550781 197.027344 209.132812 C 197.054688 209.714844 197.015625 210.269531 196.917969 210.789062 C 196.816406 211.3125 196.65625 211.796875 196.4375 212.238281 C 196.214844 212.683594 195.9375 213.078125 195.601562 213.421875 C 195.265625 213.769531 194.882812 214.0625 194.449219 214.296875 C 194.011719 214.535156 193.535156 214.710938 193.015625 214.828125 C 192.496094 214.945312 191.945312 215.003906 191.363281 214.996094 C 190.78125 214.992188 190.179688 214.921875 189.554688 214.792969 C 188.929688 214.664062 188.296875 214.476562 187.65625 214.230469 C 187.015625 213.980469 186.378906 213.679688 185.742188 213.324219 C 185.109375 212.96875 184.492188 212.5625 183.890625 212.113281 C 183.285156 211.660156 182.710938 211.171875 182.164062 210.640625 C 181.617188 210.113281 181.105469 209.554688 180.632812 208.96875 C 180.164062 208.382812 179.738281 207.777344 179.359375 207.15625 C 178.980469 206.535156 178.65625 205.90625 178.386719 205.273438 C 178.117188 204.644531 177.910156 204.015625 177.757812 203.398438 C 177.609375 202.777344 177.519531 202.179688 177.492188 201.597656 C 177.46875 201.015625 177.503906 200.460938 177.601562 199.9375 C 177.703125 199.417969 177.863281 198.933594 178.085938 198.492188 C 178.304688 198.046875 178.585938 197.652344 178.917969 197.308594 C 179.253906 196.960938 179.636719 196.667969 180.074219 196.433594 C 180.507812 196.195312 180.984375 196.019531 181.503906 195.902344 C 182.023438 195.785156 182.574219 195.726562 183.15625 195.734375 C 183.738281 195.738281 184.34375 195.808594 184.964844 195.9375 C 185.589844 196.066406 186.222656 196.253906 186.863281 196.5 C 187.503906 196.75 188.144531 197.050781 188.777344 197.40625 C 189.410156 197.761719 190.03125 198.167969 190.632812 198.617188 C 191.234375 199.070312 191.808594 199.558594 192.359375 200.089844 Z M 192.359375 200.089844 " fill-opacity="1" fill-rule="nonzero"/><path fill="#ffbd59" d="M 225.382812 227.902344 C 225.625 228.203125 225.820312 228.535156 225.964844 228.90625 C 226.109375 229.277344 226.203125 229.675781 226.246094 230.101562 C 226.285156 230.527344 226.273438 230.972656 226.210938 231.4375 C 226.148438 231.90625 226.03125 232.382812 225.863281 232.867188 C 225.695312 233.355469 225.480469 233.84375 225.21875 234.332031 C 224.953125 234.824219 224.648438 235.304688 224.296875 235.777344 C 223.949219 236.253906 223.5625 236.707031 223.136719 237.148438 C 222.714844 237.585938 222.265625 238 221.785156 238.390625 C 221.304688 238.777344 220.808594 239.132812 220.289062 239.457031 C 219.769531 239.777344 219.246094 240.0625 218.707031 240.304688 C 218.171875 240.546875 217.636719 240.75 217.101562 240.90625 C 216.570312 241.058594 216.046875 241.167969 215.535156 241.230469 C 215.023438 241.292969 214.535156 241.308594 214.066406 241.273438 C 213.597656 241.238281 213.160156 241.160156 212.75 241.03125 C 212.34375 240.902344 211.972656 240.726562 211.640625 240.507812 C 211.308594 240.289062 211.019531 240.03125 210.777344 239.730469 C 210.535156 239.429688 210.339844 239.09375 210.195312 238.722656 C 210.050781 238.351562 209.957031 237.953125 209.914062 237.527344 C 209.875 237.101562 209.886719 236.65625 209.949219 236.191406 C 210.015625 235.726562 210.128906 235.25 210.296875 234.761719 C 210.464844 234.273438 210.679688 233.785156 210.941406 233.296875 C 211.207031 232.808594 211.511719 232.324219 211.863281 231.851562 C 212.214844 231.378906 212.601562 230.921875 213.023438 230.480469 C 213.445312 230.042969 213.898438 229.628906 214.375 229.242188 C 214.855469 228.851562 215.355469 228.496094 215.871094 228.175781 C 216.390625 227.851562 216.917969 227.570312 217.453125 227.324219 C 217.988281 227.082031 218.523438 226.882812 219.058594 226.726562 C 219.589844 226.570312 220.113281 226.460938 220.625 226.398438 C 221.136719 226.335938 221.625 226.324219 222.09375 226.355469 C 222.5625 226.390625 223 226.472656 223.410156 226.601562 C 223.816406 226.730469 224.1875 226.902344 224.519531 227.121094 C 224.851562 227.339844 225.140625 227.601562 225.382812 227.902344 Z M 225.382812 227.902344 " fill-opacity="1" fill-rule="nonzero"/><path fill="#ffbd59" d="M 192.507812 222.179688 C 192.949219 222.605469 193.363281 223.054688 193.742188 223.53125 C 194.121094 224.003906 194.464844 224.488281 194.769531 224.992188 C 195.074219 225.492188 195.335938 225.996094 195.550781 226.507812 C 195.769531 227.019531 195.9375 227.523438 196.058594 228.023438 C 196.183594 228.523438 196.253906 229.007812 196.273438 229.476562 C 196.292969 229.945312 196.265625 230.390625 196.183594 230.8125 C 196.101562 231.234375 195.972656 231.625 195.796875 231.980469 C 195.617188 232.339844 195.390625 232.65625 195.121094 232.9375 C 194.851562 233.21875 194.539062 233.453125 194.191406 233.644531 C 193.839844 233.835938 193.453125 233.976562 193.035156 234.074219 C 192.617188 234.167969 192.171875 234.210938 191.703125 234.207031 C 191.230469 234.203125 190.746094 234.148438 190.242188 234.046875 C 189.738281 233.941406 189.230469 233.789062 188.710938 233.589844 C 188.195312 233.390625 187.679688 233.148438 187.167969 232.859375 C 186.65625 232.574219 186.15625 232.246094 185.671875 231.882812 C 185.1875 231.519531 184.722656 231.125 184.28125 230.699219 C 183.839844 230.269531 183.425781 229.820312 183.046875 229.347656 C 182.667969 228.875 182.324219 228.386719 182.019531 227.886719 C 181.714844 227.386719 181.453125 226.878906 181.234375 226.367188 C 181.019531 225.859375 180.851562 225.355469 180.726562 224.855469 C 180.605469 224.355469 180.535156 223.871094 180.515625 223.402344 C 180.496094 222.929688 180.523438 222.484375 180.605469 222.0625 C 180.683594 221.644531 180.816406 221.253906 180.992188 220.894531 C 181.171875 220.539062 181.398438 220.21875 181.667969 219.941406 C 181.9375 219.660156 182.246094 219.425781 182.597656 219.234375 C 182.949219 219.042969 183.335938 218.898438 183.753906 218.804688 C 184.171875 218.710938 184.617188 218.664062 185.085938 218.667969 C 185.554688 218.671875 186.042969 218.726562 186.546875 218.832031 C 187.050781 218.9375 187.558594 219.085938 188.078125 219.289062 C 188.59375 219.488281 189.109375 219.730469 189.621094 220.015625 C 190.132812 220.304688 190.632812 220.628906 191.117188 220.992188 C 191.601562 221.359375 192.066406 221.753906 192.507812 222.179688 Z M 192.507812 222.179688 " fill-opacity="1" fill-rule="nonzero"/><path fill="#ffffff" d="M 219.949219 191.941406 C 219.714844 188.210938 221.460938 182.613281 226.875 181.285156 C 226.679688 180.675781 226.53125 180.058594 226.429688 179.425781 C 225.78125 175.453125 226.707031 172.117188 229.050781 170.027344 C 229.796875 169.382812 230.625 168.871094 231.542969 168.496094 C 232.457031 168.121094 233.40625 167.90625 234.390625 167.84375 C 235.378906 167.78125 236.347656 167.878906 237.300781 168.132812 C 238.253906 168.390625 239.144531 168.789062 239.964844 169.339844 C 240.175781 168.34375 240.503906 167.394531 240.953125 166.484375 C 241.355469 165.6875 241.855469 164.964844 242.453125 164.304688 C 243.054688 163.648438 243.730469 163.082031 244.484375 162.609375 C 245.234375 162.132812 246.039062 161.769531 246.890625 161.515625 C 247.742188 161.257812 248.613281 161.121094 249.503906 161.101562 C 250.285156 161.101562 251.054688 161.199219 251.8125 161.390625 C 252.570312 161.582031 253.292969 161.867188 253.980469 162.238281 C 254.667969 162.613281 255.296875 163.066406 255.867188 163.597656 C 256.441406 164.128906 256.941406 164.726562 257.363281 165.382812 C 258.175781 166.824219 258.644531 168.371094 258.769531 170.019531 C 259.660156 169.609375 260.59375 169.371094 261.570312 169.296875 C 262.546875 169.226562 263.507812 169.332031 264.445312 169.609375 C 268.613281 170.988281 270.558594 176.035156 270.953125 179.941406 C 271.0625 181.03125 271.046875 182.121094 270.910156 183.207031 L 263.976562 182.332031 C 264.039062 181.773438 264.039062 181.214844 263.976562 180.65625 C 263.757812 178.507812 262.753906 176.492188 262.226562 176.246094 C 261.535156 176.414062 260.878906 176.679688 260.261719 177.03125 C 258.753906 177.785156 255.949219 179.191406 253.574219 177.03125 C 253.089844 176.582031 252.722656 176.050781 252.46875 175.441406 C 252.21875 174.832031 252.101562 174.199219 252.125 173.539062 C 252.125 173.214844 252.125 172.761719 251.992188 172.105469 C 251.941406 171.039062 251.746094 170 251.40625 168.988281 C 250.925781 168.363281 250.292969 168.046875 249.503906 168.039062 C 249.007812 168.082031 248.550781 168.246094 248.140625 168.523438 C 247.726562 168.804688 247.40625 169.164062 247.179688 169.609375 C 246.765625 170.554688 246.578125 171.546875 246.621094 172.578125 C 246.621094 172.789062 246.621094 172.980469 246.664062 173.171875 C 246.816406 174.007812 246.78125 174.839844 246.566406 175.660156 C 246.351562 176.484375 245.972656 177.222656 245.433594 177.878906 C 244.789062 178.582031 244.015625 179.082031 243.109375 179.382812 C 242.207031 179.679688 241.285156 179.742188 240.351562 179.566406 C 237.730469 179.042969 236.753906 176.839844 236.28125 175.785156 C 236.160156 175.476562 236.007812 175.1875 235.828125 174.910156 C 235.476562 174.777344 235.117188 174.730469 234.75 174.773438 C 234.378906 174.816406 234.039062 174.945312 233.730469 175.15625 C 233.347656 175.503906 233.09375 176.675781 233.347656 178.253906 C 233.464844 178.855469 233.648438 179.4375 233.886719 180.003906 C 234.375 181.257812 235.1875 183.363281 233.78125 185.503906 C 233.222656 186.257812 232.527344 186.847656 231.691406 187.273438 C 230.855469 187.699219 229.96875 187.914062 229.03125 187.921875 C 226.972656 188.117188 226.917969 190.71875 226.945312 191.503906 Z M 219.949219 191.941406 " fill-opacity="1" fill-rule="nonzero"/><path fill="#ffffff" d="M 273.503906 178.351562 L 266.515625 177.96875 C 267.128906 166.867188 270.507812 159.808594 276.558594 157.007812 C 286.167969 152.519531 297.789062 160.847656 299.082031 161.808594 L 294.917969 167.417969 L 296.996094 164.613281 L 294.917969 167.417969 C 292.296875 165.496094 284.4375 161.007812 279.511719 163.339844 C 275.117188 165.382812 273.859375 172.632812 273.503906 178.351562 Z M 273.503906 178.351562 " fill-opacity="1" fill-rule="nonzero"/><path fill="#ffffff" d="M 170.117188 99.09375 C 169.503906 99.09375 168.894531 99.066406 168.289062 99.003906 C 167.679688 98.945312 167.074219 98.855469 166.476562 98.738281 C 165.878906 98.617188 165.285156 98.46875 164.699219 98.292969 C 164.117188 98.113281 163.542969 97.910156 162.976562 97.675781 C 162.414062 97.441406 161.859375 97.179688 161.320312 96.890625 C 160.78125 96.605469 160.257812 96.289062 159.75 95.949219 C 159.242188 95.613281 158.753906 95.25 158.28125 94.859375 C 157.808594 94.472656 157.355469 94.0625 156.925781 93.632812 C 156.492188 93.199219 156.082031 92.746094 155.695312 92.273438 C 155.308594 91.800781 154.945312 91.3125 154.605469 90.804688 C 154.265625 90.296875 153.953125 89.773438 153.664062 89.234375 C 153.375 88.695312 153.113281 88.144531 152.882812 87.578125 C 152.648438 87.015625 152.441406 86.441406 152.265625 85.855469 C 152.085938 85.269531 151.9375 84.679688 151.820312 84.078125 C 151.699219 83.480469 151.609375 82.875 151.550781 82.269531 C 151.492188 81.660156 151.460938 81.050781 151.460938 80.441406 C 151.460938 79.828125 151.492188 79.21875 151.550781 78.613281 C 151.609375 78.003906 151.699219 77.398438 151.820312 76.800781 C 151.9375 76.203125 152.085938 75.609375 152.265625 75.023438 C 152.441406 74.441406 152.648438 73.867188 152.882812 73.300781 C 153.113281 72.738281 153.375 72.183594 153.664062 71.648438 C 153.953125 71.109375 154.265625 70.585938 154.605469 70.078125 C 154.945312 69.566406 155.308594 69.078125 155.695312 68.605469 C 156.082031 68.132812 156.492188 67.679688 156.925781 67.25 C 157.355469 66.816406 157.808594 66.40625 158.28125 66.019531 C 158.753906 65.632812 159.242188 65.269531 159.75 64.929688 C 160.257812 64.589844 160.78125 64.277344 161.320312 63.988281 C 161.859375 63.699219 162.414062 63.4375 162.976562 63.207031 C 163.542969 62.972656 164.117188 62.765625 164.699219 62.589844 C 165.285156 62.410156 165.878906 62.261719 166.476562 62.144531 C 167.074219 62.023438 167.679688 61.933594 168.289062 61.875 C 168.894531 61.816406 169.503906 61.785156 170.117188 61.785156 C 170.726562 61.785156 171.335938 61.816406 171.945312 61.875 C 172.550781 61.933594 173.15625 62.023438 173.753906 62.144531 C 174.355469 62.261719 174.945312 62.410156 175.53125 62.589844 C 176.117188 62.765625 176.691406 62.972656 177.253906 63.207031 C 177.820312 63.4375 178.371094 63.699219 178.910156 63.988281 C 179.449219 64.277344 179.972656 64.589844 180.480469 64.929688 C 180.988281 65.269531 181.476562 65.632812 181.949219 66.019531 C 182.421875 66.40625 182.875 66.816406 183.308594 67.25 C 183.738281 67.679688 184.148438 68.132812 184.535156 68.605469 C 184.921875 69.078125 185.289062 69.566406 185.625 70.078125 C 185.964844 70.585938 186.28125 71.109375 186.566406 71.648438 C 186.855469 72.183594 187.117188 72.738281 187.351562 73.300781 C 187.585938 73.867188 187.789062 74.441406 187.96875 75.023438 C 188.144531 75.609375 188.292969 76.203125 188.410156 76.800781 C 188.53125 77.398438 188.621094 78.003906 188.679688 78.613281 C 188.742188 79.21875 188.769531 79.828125 188.769531 80.441406 C 188.769531 81.050781 188.738281 81.660156 188.679688 82.269531 C 188.617188 82.875 188.527344 83.480469 188.410156 84.078125 C 188.289062 84.675781 188.140625 85.269531 187.964844 85.855469 C 187.785156 86.4375 187.578125 87.011719 187.347656 87.578125 C 187.113281 88.140625 186.851562 88.691406 186.5625 89.230469 C 186.273438 89.769531 185.960938 90.292969 185.621094 90.800781 C 185.28125 91.308594 184.917969 91.796875 184.53125 92.269531 C 184.144531 92.742188 183.734375 93.195312 183.300781 93.625 C 182.871094 94.058594 182.417969 94.46875 181.945312 94.855469 C 181.472656 95.242188 180.984375 95.605469 180.476562 95.945312 C 179.96875 96.285156 179.445312 96.597656 178.90625 96.886719 C 178.367188 97.175781 177.816406 97.4375 177.25 97.671875 C 176.6875 97.90625 176.113281 98.109375 175.527344 98.289062 C 174.945312 98.464844 174.351562 98.613281 173.753906 98.734375 C 173.15625 98.851562 172.550781 98.941406 171.945312 99.003906 C 171.335938 99.0625 170.726562 99.09375 170.117188 99.09375 Z M 170.117188 68.773438 C 169.351562 68.773438 168.589844 68.847656 167.839844 68.996094 C 167.089844 69.144531 166.359375 69.367188 165.652344 69.660156 C 164.941406 69.953125 164.269531 70.3125 163.632812 70.738281 C 162.996094 71.164062 162.40625 71.648438 161.867188 72.191406 C 161.324219 72.730469 160.839844 73.320312 160.414062 73.957031 C 159.988281 74.59375 159.628906 75.265625 159.335938 75.976562 C 159.042969 76.683594 158.820312 77.414062 158.671875 78.164062 C 158.523438 78.914062 158.449219 79.675781 158.449219 80.441406 C 158.449219 81.207031 158.523438 81.964844 158.671875 82.714844 C 158.820312 83.46875 159.042969 84.199219 159.335938 84.90625 C 159.628906 85.613281 159.988281 86.285156 160.414062 86.921875 C 160.839844 87.558594 161.324219 88.148438 161.867188 88.691406 C 162.40625 89.234375 162.996094 89.714844 163.632812 90.140625 C 164.269531 90.566406 164.941406 90.925781 165.652344 91.21875 C 166.359375 91.511719 167.089844 91.734375 167.839844 91.882812 C 168.589844 92.035156 169.351562 92.109375 170.117188 92.109375 C 170.882812 92.109375 171.640625 92.035156 172.390625 91.882812 C 173.144531 91.734375 173.875 91.511719 174.582031 91.21875 C 175.289062 90.925781 175.960938 90.566406 176.597656 90.140625 C 177.234375 89.714844 177.824219 89.234375 178.367188 88.691406 C 178.90625 88.148438 179.390625 87.558594 179.816406 86.921875 C 180.242188 86.285156 180.601562 85.613281 180.894531 84.90625 C 181.1875 84.199219 181.410156 83.46875 181.558594 82.714844 C 181.710938 81.964844 181.785156 81.207031 181.785156 80.441406 C 181.78125 79.675781 181.707031 78.914062 181.558594 78.164062 C 181.410156 77.414062 181.1875 76.683594 180.894531 75.976562 C 180.601562 75.269531 180.242188 74.597656 179.816406 73.960938 C 179.390625 73.324219 178.90625 72.734375 178.363281 72.191406 C 177.820312 71.652344 177.234375 71.167969 176.597656 70.742188 C 175.960938 70.316406 175.289062 69.957031 174.578125 69.664062 C 173.871094 69.371094 173.144531 69.148438 172.390625 68.996094 C 171.640625 68.847656 170.882812 68.773438 170.117188 68.773438 Z M 170.117188 68.773438 " fill-opacity="1" fill-rule="nonzero"/><path fill="#ffffff" d="M 133.25 55.988281 C 132.554688 55.988281 131.863281 55.917969 131.179688 55.78125 C 130.492188 55.644531 129.828125 55.445312 129.183594 55.175781 C 128.539062 54.910156 127.925781 54.582031 127.347656 54.195312 C 126.765625 53.808594 126.230469 53.367188 125.734375 52.875 C 125.242188 52.378906 124.800781 51.84375 124.414062 51.261719 C 124.027344 50.683594 123.699219 50.070312 123.433594 49.425781 C 123.164062 48.78125 122.964844 48.117188 122.828125 47.429688 C 122.691406 46.746094 122.625 46.054688 122.625 45.359375 C 122.625 44.660156 122.691406 43.96875 122.828125 43.285156 C 122.964844 42.601562 123.164062 41.933594 123.433594 41.289062 C 123.699219 40.644531 124.027344 40.03125 124.414062 39.453125 C 124.800781 38.871094 125.242188 38.335938 125.734375 37.84375 C 126.230469 37.347656 126.765625 36.90625 127.347656 36.519531 C 127.925781 36.132812 128.539062 35.804688 129.183594 35.539062 C 129.828125 35.269531 130.492188 35.070312 131.179688 34.933594 C 131.863281 34.796875 132.554688 34.730469 133.25 34.730469 C 133.949219 34.730469 134.640625 34.796875 135.324219 34.933594 C 136.007812 35.070312 136.675781 35.269531 137.320312 35.539062 C 137.964844 35.804688 138.578125 36.132812 139.15625 36.519531 C 139.738281 36.90625 140.273438 37.347656 140.765625 37.84375 C 141.261719 38.335938 141.703125 38.871094 142.089844 39.453125 C 142.476562 40.03125 142.804688 40.644531 143.070312 41.289062 C 143.339844 41.933594 143.539062 42.601562 143.675781 43.285156 C 143.8125 43.96875 143.878906 44.660156 143.878906 45.359375 C 143.878906 46.054688 143.8125 46.746094 143.675781 47.429688 C 143.539062 48.113281 143.335938 48.78125 143.070312 49.425781 C 142.800781 50.070312 142.472656 50.679688 142.085938 51.261719 C 141.699219 51.839844 141.257812 52.378906 140.765625 52.871094 C 140.269531 53.363281 139.734375 53.804688 139.15625 54.191406 C 138.574219 54.582031 137.960938 54.90625 137.316406 55.175781 C 136.671875 55.441406 136.007812 55.644531 135.324219 55.78125 C 134.640625 55.917969 133.949219 55.984375 133.25 55.988281 Z M 133.25 41.714844 C 132.769531 41.714844 132.304688 41.808594 131.859375 41.992188 C 131.410156 42.179688 131.019531 42.441406 130.675781 42.78125 C 130.335938 43.125 130.070312 43.519531 129.886719 43.964844 C 129.703125 44.410156 129.609375 44.875 129.609375 45.359375 C 129.609375 45.839844 129.703125 46.304688 129.886719 46.75 C 130.070312 47.199219 130.335938 47.589844 130.675781 47.933594 C 131.019531 48.273438 131.410156 48.539062 131.859375 48.722656 C 132.304688 48.90625 132.769531 49 133.25 49 C 133.734375 49 134.199219 48.90625 134.644531 48.722656 C 135.089844 48.539062 135.484375 48.273438 135.828125 47.933594 C 136.167969 47.589844 136.429688 47.199219 136.617188 46.75 C 136.800781 46.304688 136.894531 45.839844 136.894531 45.359375 C 136.894531 44.875 136.800781 44.410156 136.617188 43.964844 C 136.429688 43.519531 136.167969 43.125 135.828125 42.78125 C 135.484375 42.441406 135.089844 42.179688 134.644531 41.992188 C 134.199219 41.808594 133.734375 41.714844 133.25 41.714844 Z M 133.25 41.714844 " fill-opacity="1" fill-rule="nonzero"/><path fill="#ffffff" d="M 332.890625 149.941406 C 332.28125 149.941406 331.675781 149.882812 331.078125 149.761719 C 330.480469 149.644531 329.898438 149.46875 329.335938 149.234375 C 328.769531 149 328.234375 148.714844 327.726562 148.375 C 327.222656 148.035156 326.75 147.652344 326.320312 147.21875 C 325.886719 146.789062 325.503906 146.320312 325.164062 145.8125 C 324.824219 145.304688 324.539062 144.769531 324.304688 144.203125 C 324.070312 143.640625 323.894531 143.058594 323.777344 142.460938 C 323.65625 141.863281 323.597656 141.257812 323.597656 140.648438 C 323.597656 140.039062 323.65625 139.433594 323.777344 138.835938 C 323.894531 138.238281 324.070312 137.65625 324.304688 137.09375 C 324.539062 136.527344 324.824219 135.992188 325.164062 135.488281 C 325.503906 134.980469 325.886719 134.507812 326.320312 134.078125 C 326.75 133.648438 327.222656 133.261719 327.726562 132.921875 C 328.234375 132.582031 328.769531 132.296875 329.335938 132.0625 C 329.898438 131.832031 330.480469 131.652344 331.078125 131.535156 C 331.675781 131.417969 332.28125 131.355469 332.890625 131.355469 C 333.5 131.355469 334.105469 131.417969 334.703125 131.535156 C 335.300781 131.652344 335.882812 131.832031 336.445312 132.0625 C 337.011719 132.296875 337.546875 132.582031 338.054688 132.921875 C 338.5625 133.261719 339.03125 133.648438 339.460938 134.078125 C 339.894531 134.507812 340.277344 134.980469 340.617188 135.488281 C 340.957031 135.992188 341.242188 136.527344 341.476562 137.09375 C 341.710938 137.65625 341.886719 138.238281 342.003906 138.835938 C 342.125 139.433594 342.183594 140.039062 342.183594 140.648438 C 342.183594 141.257812 342.121094 141.863281 342 142.460938 C 341.882812 143.058594 341.703125 143.640625 341.472656 144.203125 C 341.238281 144.765625 340.949219 145.300781 340.613281 145.808594 C 340.273438 146.3125 339.886719 146.785156 339.457031 147.214844 C 339.023438 147.644531 338.554688 148.03125 338.050781 148.371094 C 337.542969 148.710938 337.007812 148.996094 336.445312 149.230469 C 335.878906 149.464844 335.300781 149.640625 334.703125 149.761719 C 334.105469 149.878906 333.5 149.941406 332.890625 149.941406 Z M 332.890625 138.34375 C 332.585938 138.34375 332.289062 138.402344 332.007812 138.519531 C 331.726562 138.636719 331.476562 138.800781 331.261719 139.019531 C 331.042969 139.234375 330.878906 139.484375 330.761719 139.765625 C 330.644531 140.050781 330.585938 140.34375 330.585938 140.648438 C 330.585938 140.953125 330.644531 141.25 330.761719 141.53125 C 330.878906 141.8125 331.042969 142.0625 331.261719 142.28125 C 331.476562 142.496094 331.726562 142.664062 332.007812 142.777344 C 332.289062 142.894531 332.585938 142.953125 332.890625 142.953125 C 333.195312 142.953125 333.492188 142.894531 333.773438 142.777344 C 334.054688 142.664062 334.304688 142.496094 334.519531 142.28125 C 334.738281 142.0625 334.902344 141.8125 335.019531 141.53125 C 335.136719 141.25 335.195312 140.953125 335.195312 140.648438 C 335.195312 140.34375 335.136719 140.050781 335.019531 139.765625 C 334.902344 139.484375 334.738281 139.234375 334.519531 139.019531 C 334.304688 138.800781 334.054688 138.636719 333.773438 138.519531 C 333.492188 138.402344 333.195312 138.34375 332.890625 138.34375 Z M 332.890625 138.34375 " fill-opacity="1" fill-rule="nonzero"/><path fill="#ffffff" d="M 266.8125 129.800781 C 266.550781 129.800781 266.296875 129.800781 266.035156 129.800781 L 265.597656 129.800781 C 260.359375 129.355469 255.023438 125.820312 252.890625 121.398438 C 249.710938 114.804688 253.667969 106.832031 257.484375 103.269531 C 263.292969 97.855469 273.667969 97.765625 285.894531 102.511719 C 287.644531 99.03125 289.183594 95.460938 290.507812 91.800781 C 290.726562 91.195312 291.085938 90.683594 291.585938 90.277344 C 292.089844 89.867188 292.660156 89.617188 293.300781 89.523438 C 293.941406 89.433594 294.558594 89.515625 295.15625 89.765625 C 295.75 90.019531 296.238281 90.40625 296.621094 90.929688 C 298.882812 93.988281 300.652344 97.3125 301.921875 100.902344 C 301.984375 101.070312 302.140625 101.523438 302.316406 102.082031 C 303.554688 106.0625 304.167969 110.140625 304.148438 114.308594 C 304.148438 114.953125 303.984375 115.550781 303.65625 116.105469 C 303.324219 116.65625 302.878906 117.085938 302.308594 117.390625 C 301.742188 117.695312 301.136719 117.832031 300.496094 117.804688 C 299.851562 117.773438 299.261719 117.582031 298.726562 117.226562 C 295.597656 115.085938 292.347656 113.148438 288.980469 111.417969 C 283.632812 120.570312 275.957031 129.800781 266.8125 129.800781 Z M 269.90625 106.019531 C 266.464844 106.019531 263.84375 106.839844 262.246094 108.328125 C 260.035156 110.394531 257.738281 115.3125 259.1875 118.316406 C 260.125 120.265625 263.152344 122.527344 266.175781 122.78125 L 266.445312 122.78125 C 271.835938 123.09375 277.722656 116.5625 282.507812 108.625 C 278.457031 107.023438 274.257812 106.152344 269.90625 106.019531 Z M 292.289062 105.304688 C 293.6875 106.003906 295.09375 106.753906 296.515625 107.558594 C 296.292969 106.394531 296.003906 105.25 295.640625 104.125 C 295.503906 103.679688 295.371094 103.3125 295.320312 103.171875 C 295.039062 102.378906 294.726562 101.59375 294.382812 100.824219 C 293.773438 102.195312 293.074219 103.707031 292.289062 105.304688 Z M 292.289062 105.304688 " fill-opacity="1" fill-rule="nonzero"/><path fill="#ffffff" d="M 270.820312 127.390625 L 264.183594 125.21875 C 267.722656 114.414062 259.949219 107.164062 259.617188 106.875 L 264.28125 101.636719 C 264.761719 102.082031 275.808594 112.167969 270.820312 127.390625 Z M 270.820312 127.390625 " fill-opacity="1" fill-rule="nonzero"/><path fill="#ffffff" d="M 68.179688 212.726562 C 61.09375 212.726562 54.144531 206.71875 48.816406 200.421875 C 46.375 202.214844 44.046875 204.148438 41.828125 206.210938 C 41.359375 206.652344 40.808594 206.941406 40.175781 207.074219 C 39.546875 207.210938 38.925781 207.175781 38.316406 206.964844 C 37.703125 206.757812 37.191406 206.40625 36.773438 205.914062 C 36.359375 205.421875 36.097656 204.855469 35.996094 204.21875 C 35.398438 200.675781 35.34375 197.125 35.828125 193.566406 C 35.910156 193.066406 35.976562 192.691406 36.003906 192.5 C 36.582031 189.257812 37.617188 186.175781 39.113281 183.242188 C 39.40625 182.667969 39.828125 182.214844 40.375 181.875 C 40.921875 181.535156 41.515625 181.359375 42.160156 181.347656 L 42.222656 181.347656 C 42.855469 181.347656 43.445312 181.507812 43.988281 181.828125 C 44.535156 182.148438 44.960938 182.585938 45.269531 183.136719 C 46.824219 185.851562 48.523438 188.472656 50.371094 190.996094 C 59.976562 185.425781 68.710938 184.152344 74.464844 187.933594 C 78.308594 190.480469 82.894531 196.875 81.070312 203.109375 C 79.855469 207.285156 75.707031 211.144531 71.21875 212.289062 L 70.816406 212.386719 C 69.949219 212.597656 69.070312 212.710938 68.179688 212.726562 Z M 54.78125 196.570312 C 59.601562 202.117188 65.078125 206.578125 69.3125 205.617188 L 69.558594 205.554688 C 70.660156 205.242188 71.632812 204.699219 72.484375 203.933594 C 73.332031 203.167969 73.972656 202.253906 74.398438 201.191406 C 75.121094 198.71875 72.648438 195.074219 70.640625 193.792969 C 67.75 191.871094 61.988281 192.570312 54.78125 196.5625 Z M 43.097656 192.8125 C 43.039062 193.109375 42.976562 193.417969 42.914062 193.730469 C 42.914062 193.851562 42.832031 194.175781 42.78125 194.5625 C 42.695312 195.164062 42.632812 195.765625 42.589844 196.386719 C 43.234375 195.871094 43.890625 195.375 44.535156 194.894531 C 44.03125 194.175781 43.550781 193.511719 43.097656 192.8125 Z M 43.097656 192.8125 " fill-opacity="1" fill-rule="nonzero"/><path fill="#ffffff" d="M 65.925781 210.824219 C 59.453125 198.429688 67.53125 188.117188 67.882812 187.714844 L 73.324219 192.082031 L 70.605469 189.886719 L 73.339844 192.0625 C 73.113281 192.351562 67.792969 199.292969 72.117188 207.574219 Z M 65.925781 210.824219 " fill-opacity="1" fill-rule="nonzero"/><path fill="#ffffff" d="M 203.539062 253.257812 C 194.910156 253.257812 193.976562 231.371094 193.976562 221.964844 C 193.976562 212.5625 194.910156 190.675781 203.539062 190.675781 C 212.167969 190.675781 213.144531 212.5625 213.144531 221.964844 C 213.144531 231.371094 212.167969 253.257812 203.539062 253.257812 Z M 203.539062 199.703125 C 202.308594 203.40625 200.960938 210.972656 200.960938 221.964844 C 200.960938 232.960938 202.308594 240.523438 203.539062 244.21875 C 204.769531 240.523438 206.160156 232.960938 206.160156 221.964844 C 206.160156 210.972656 204.769531 203.40625 203.539062 199.703125 Z M 203.539062 199.703125 " fill-opacity="1" fill-rule="nonzero"/><path fill="#ffbd59" d="M 308.15625 179.96875 C 308.15625 180.332031 308.121094 180.695312 308.050781 181.054688 C 307.980469 181.414062 307.875 181.761719 307.734375 182.097656 C 307.59375 182.4375 307.421875 182.757812 307.21875 183.0625 C 307.015625 183.367188 306.785156 183.648438 306.527344 183.90625 C 306.265625 184.164062 305.984375 184.398438 305.679688 184.601562 C 305.375 184.804688 305.054688 184.976562 304.71875 185.113281 C 304.378906 185.253906 304.03125 185.359375 303.671875 185.433594 C 303.3125 185.503906 302.953125 185.539062 302.585938 185.539062 C 302.21875 185.539062 301.855469 185.503906 301.5 185.433594 C 301.140625 185.359375 300.792969 185.253906 300.453125 185.113281 C 300.113281 184.976562 299.792969 184.804688 299.488281 184.601562 C 299.1875 184.398438 298.902344 184.164062 298.644531 183.90625 C 298.386719 183.648438 298.15625 183.367188 297.953125 183.0625 C 297.75 182.757812 297.578125 182.4375 297.4375 182.097656 C 297.296875 181.761719 297.191406 181.414062 297.121094 181.054688 C 297.050781 180.695312 297.011719 180.332031 297.011719 179.96875 C 297.011719 179.601562 297.050781 179.238281 297.121094 178.878906 C 297.191406 178.519531 297.296875 178.171875 297.4375 177.835938 C 297.578125 177.496094 297.75 177.175781 297.953125 176.871094 C 298.15625 176.566406 298.386719 176.285156 298.644531 176.027344 C 298.902344 175.769531 299.1875 175.539062 299.488281 175.335938 C 299.792969 175.132812 300.113281 174.960938 300.453125 174.820312 C 300.792969 174.679688 301.140625 174.574219 301.5 174.503906 C 301.855469 174.429688 302.21875 174.394531 302.585938 174.394531 C 302.953125 174.394531 303.3125 174.429688 303.671875 174.503906 C 304.03125 174.574219 304.378906 174.679688 304.71875 174.820312 C 305.054688 174.960938 305.375 175.132812 305.679688 175.335938 C 305.984375 175.539062 306.265625 175.769531 306.527344 176.027344 C 306.785156 176.285156 307.015625 176.566406 307.21875 176.871094 C 307.421875 177.175781 307.59375 177.496094 307.734375 177.835938 C 307.875 178.171875 307.980469 178.519531 308.050781 178.878906 C 308.121094 179.238281 308.15625 179.601562 308.15625 179.96875 Z M 308.15625 179.96875 " fill-opacity="1" fill-rule="nonzero"/><path fill="#ffbd59" d="M 360.984375 226.71875 C 360.984375 227.234375 360.960938 227.75 360.90625 228.261719 C 360.851562 228.773438 360.769531 229.285156 360.660156 229.792969 C 360.550781 230.296875 360.417969 230.796875 360.257812 231.292969 C 360.09375 231.785156 359.910156 232.269531 359.695312 232.746094 C 359.484375 233.222656 359.246094 233.6875 358.984375 234.144531 C 358.722656 234.597656 358.4375 235.042969 358.128906 235.46875 C 357.824219 235.898438 357.492188 236.3125 357.140625 236.710938 C 356.789062 237.113281 356.417969 237.492188 356.023438 237.859375 C 355.632812 238.222656 355.222656 238.570312 354.792969 238.898438 C 354.363281 239.222656 353.917969 239.53125 353.457031 239.816406 C 352.996094 240.105469 352.519531 240.371094 352.03125 240.613281 C 351.539062 240.855469 351.039062 241.074219 350.527344 241.273438 C 350.015625 241.472656 349.492188 241.644531 348.960938 241.792969 C 348.429688 241.945312 347.894531 242.070312 347.347656 242.171875 C 346.804688 242.269531 346.257812 242.347656 345.703125 242.398438 C 345.152344 242.449219 344.597656 242.472656 344.042969 242.472656 C 343.488281 242.472656 342.933594 242.449219 342.382812 242.398438 C 341.832031 242.347656 341.28125 242.269531 340.738281 242.171875 C 340.195312 242.070312 339.65625 241.945312 339.125 241.792969 C 338.59375 241.644531 338.070312 241.472656 337.558594 241.273438 C 337.046875 241.074219 336.546875 240.855469 336.054688 240.613281 C 335.566406 240.371094 335.089844 240.105469 334.628906 239.816406 C 334.167969 239.53125 333.722656 239.222656 333.292969 238.898438 C 332.867188 238.570312 332.457031 238.222656 332.0625 237.859375 C 331.671875 237.492188 331.296875 237.113281 330.945312 236.710938 C 330.59375 236.3125 330.265625 235.898438 329.957031 235.46875 C 329.648438 235.042969 329.363281 234.597656 329.101562 234.144531 C 328.839844 233.6875 328.601562 233.222656 328.390625 232.746094 C 328.175781 232.269531 327.992188 231.785156 327.828125 231.292969 C 327.667969 230.796875 327.535156 230.296875 327.425781 229.792969 C 327.316406 229.285156 327.234375 228.773438 327.183594 228.261719 C 327.128906 227.75 327.101562 227.234375 327.101562 226.71875 C 327.101562 226.203125 327.128906 225.6875 327.183594 225.171875 C 327.234375 224.660156 327.316406 224.148438 327.425781 223.644531 C 327.535156 223.136719 327.667969 222.636719 327.828125 222.144531 C 327.992188 221.648438 328.175781 221.164062 328.390625 220.6875 C 328.601562 220.210938 328.839844 219.746094 329.101562 219.289062 C 329.363281 218.835938 329.648438 218.394531 329.957031 217.964844 C 330.265625 217.535156 330.59375 217.121094 330.945312 216.722656 C 331.296875 216.324219 331.671875 215.941406 332.0625 215.578125 C 332.457031 215.210938 332.867188 214.867188 333.292969 214.539062 C 333.722656 214.210938 334.167969 213.902344 334.628906 213.617188 C 335.089844 213.332031 335.566406 213.066406 336.054688 212.824219 C 336.546875 212.578125 337.046875 212.359375 337.558594 212.160156 C 338.070312 211.964844 338.59375 211.789062 339.125 211.640625 C 339.65625 211.492188 340.195312 211.367188 340.738281 211.265625 C 341.28125 211.164062 341.832031 211.089844 342.382812 211.039062 C 342.933594 210.988281 343.488281 210.960938 344.042969 210.960938 C 344.597656 210.960938 345.152344 210.988281 345.703125 211.039062 C 346.257812 211.089844 346.804688 211.164062 347.347656 211.265625 C 347.894531 211.367188 348.429688 211.492188 348.960938 211.640625 C 349.492188 211.789062 350.015625 211.964844 350.527344 212.160156 C 351.039062 212.359375 351.539062 212.578125 352.03125 212.824219 C 352.519531 213.066406 352.996094 213.332031 353.457031 213.617188 C 353.917969 213.902344 354.363281 214.210938 354.792969 214.539062 C 355.222656 214.867188 355.632812 215.210938 356.023438 215.578125 C 356.417969 215.941406 356.789062 216.324219 357.140625 216.722656 C 357.492188 217.121094 357.824219 217.535156 358.128906 217.964844 C 358.4375 218.394531 358.722656 218.835938 358.984375 219.289062 C 359.246094 219.746094 359.484375 220.210938 359.695312 220.6875 C 359.910156 221.164062 360.09375 221.648438 360.257812 222.144531 C 360.417969 222.636719 360.550781 223.136719 360.660156 223.644531 C 360.769531 224.148438 360.851562 224.660156 360.90625 225.171875 C 360.960938 225.6875 360.984375 226.203125 360.984375 226.71875 Z M 360.984375 226.71875 " fill-opacity="1" fill-rule="nonzero"/><path fill="#ffbd59" d="M 319.902344 216.21875 C 319.902344 216.589844 319.832031 216.945312 319.691406 217.289062 C 319.550781 217.632812 319.347656 217.933594 319.085938 218.195312 C 318.824219 218.457031 318.519531 218.660156 318.179688 218.800781 C 317.835938 218.945312 317.480469 219.015625 317.109375 219.015625 C 316.738281 219.015625 316.382812 218.945312 316.039062 218.800781 C 315.695312 218.660156 315.394531 218.457031 315.132812 218.195312 C 314.871094 217.933594 314.667969 217.632812 314.527344 217.289062 C 314.386719 216.945312 314.316406 216.589844 314.316406 216.21875 C 314.316406 215.847656 314.386719 215.492188 314.527344 215.148438 C 314.667969 214.808594 314.871094 214.503906 315.132812 214.242188 C 315.394531 213.980469 315.695312 213.78125 316.039062 213.636719 C 316.382812 213.496094 316.738281 213.425781 317.109375 213.425781 C 317.480469 213.425781 317.835938 213.496094 318.179688 213.636719 C 318.519531 213.78125 318.824219 213.980469 319.085938 214.242188 C 319.347656 214.503906 319.550781 214.808594 319.691406 215.152344 C 319.832031 215.492188 319.902344 215.847656 319.902344 216.21875 Z M 319.902344 216.21875 " fill-opacity="1" fill-rule="nonzero"/><path fill="#ffbd59" d="M 136.816406 340.882812 C 136.816406 341.332031 136.769531 341.777344 136.683594 342.214844 C 136.597656 342.65625 136.464844 343.082031 136.292969 343.5 C 136.121094 343.914062 135.910156 344.308594 135.664062 344.679688 C 135.414062 345.054688 135.128906 345.398438 134.8125 345.71875 C 134.496094 346.035156 134.148438 346.316406 133.777344 346.566406 C 133.402344 346.816406 133.007812 347.027344 132.59375 347.199219 C 132.179688 347.371094 131.75 347.5 131.3125 347.589844 C 130.871094 347.675781 130.425781 347.71875 129.976562 347.71875 C 129.527344 347.71875 129.082031 347.675781 128.640625 347.589844 C 128.203125 347.5 127.773438 347.371094 127.359375 347.199219 C 126.945312 347.027344 126.550781 346.816406 126.175781 346.566406 C 125.804688 346.316406 125.457031 346.035156 125.140625 345.71875 C 124.824219 345.398438 124.539062 345.054688 124.289062 344.679688 C 124.042969 344.308594 123.832031 343.914062 123.660156 343.5 C 123.488281 343.082031 123.355469 342.65625 123.269531 342.214844 C 123.183594 341.777344 123.136719 341.332031 123.136719 340.882812 C 123.136719 340.433594 123.183594 339.988281 123.269531 339.546875 C 123.355469 339.105469 123.488281 338.679688 123.660156 338.265625 C 123.832031 337.851562 124.042969 337.457031 124.289062 337.082031 C 124.539062 336.710938 124.824219 336.363281 125.140625 336.046875 C 125.457031 335.730469 125.804688 335.445312 126.175781 335.195312 C 126.550781 334.945312 126.945312 334.734375 127.359375 334.5625 C 127.773438 334.390625 128.203125 334.261719 128.640625 334.175781 C 129.082031 334.085938 129.527344 334.042969 129.976562 334.042969 C 130.425781 334.042969 130.871094 334.085938 131.3125 334.175781 C 131.75 334.261719 132.179688 334.390625 132.59375 334.5625 C 133.007812 334.734375 133.402344 334.945312 133.777344 335.195312 C 134.148438 335.445312 134.496094 335.730469 134.8125 336.046875 C 135.128906 336.363281 135.414062 336.710938 135.664062 337.082031 C 135.910156 337.457031 136.121094 337.851562 136.292969 338.265625 C 136.464844 338.679688 136.597656 339.105469 136.683594 339.546875 C 136.769531 339.988281 136.816406 340.433594 136.816406 340.882812 Z M 136.816406 340.882812 " fill-opacity="1" fill-rule="nonzero"/><path fill="#ffbd59" d="M 233.449219 352.804688 C 233.449219 353.585938 233.375 354.359375 233.222656 355.128906 C 233.070312 355.894531 232.84375 356.640625 232.542969 357.363281 C 232.242188 358.089844 231.875 358.773438 231.441406 359.425781 C 231.007812 360.078125 230.511719 360.679688 229.960938 361.234375 C 229.40625 361.785156 228.804688 362.28125 228.152344 362.714844 C 227.503906 363.148438 226.816406 363.515625 226.09375 363.816406 C 225.367188 364.117188 224.625 364.34375 223.855469 364.496094 C 223.085938 364.648438 222.3125 364.722656 221.53125 364.722656 C 220.746094 364.722656 219.972656 364.648438 219.203125 364.496094 C 218.4375 364.34375 217.691406 364.117188 216.96875 363.816406 C 216.246094 363.515625 215.558594 363.148438 214.90625 362.714844 C 214.257812 362.28125 213.652344 361.785156 213.101562 361.234375 C 212.546875 360.679688 212.050781 360.078125 211.617188 359.425781 C 211.183594 358.773438 210.816406 358.089844 210.515625 357.363281 C 210.214844 356.640625 209.992188 355.894531 209.835938 355.128906 C 209.683594 354.359375 209.609375 353.585938 209.609375 352.804688 C 209.609375 352.019531 209.683594 351.246094 209.835938 350.476562 C 209.992188 349.710938 210.214844 348.964844 210.515625 348.242188 C 210.816406 347.519531 211.183594 346.832031 211.617188 346.179688 C 212.050781 345.527344 212.546875 344.925781 213.101562 344.375 C 213.652344 343.820312 214.257812 343.324219 214.90625 342.890625 C 215.558594 342.457031 216.246094 342.089844 216.96875 341.789062 C 217.691406 341.488281 218.4375 341.261719 219.203125 341.109375 C 219.972656 340.957031 220.746094 340.882812 221.53125 340.882812 C 222.3125 340.882812 223.085938 340.957031 223.855469 341.109375 C 224.625 341.261719 225.367188 341.488281 226.09375 341.789062 C 226.816406 342.089844 227.503906 342.457031 228.152344 342.890625 C 228.804688 343.324219 229.40625 343.820312 229.960938 344.375 C 230.511719 344.925781 231.007812 345.527344 231.441406 346.179688 C 231.875 346.832031 232.242188 347.519531 232.542969 348.242188 C 232.84375 348.964844 233.070312 349.710938 233.222656 350.476562 C 233.375 351.246094 233.449219 352.019531 233.449219 352.804688 Z M 233.449219 352.804688 " fill-opacity="1" fill-rule="nonzero"/><g clip-path="url(#6447737a47)"><path fill="#ffffff" d="M 187.625 369.5 C 87.332031 369.5 5.742188 287.914062 5.742188 187.625 C 5.742188 87.339844 87.332031 5.742188 187.625 5.742188 C 287.921875 5.742188 369.5 87.332031 369.5 187.625 C 369.5 287.921875 287.914062 369.5 187.625 369.5 Z M 187.625 12.730469 C 91.183594 12.730469 12.730469 91.183594 12.730469 187.625 C 12.730469 284.070312 91.183594 362.515625 187.625 362.515625 C 284.070312 362.515625 362.515625 284.0625 362.515625 187.625 C 362.515625 91.191406 284.0625 12.730469 187.625 12.730469 Z M 187.625 12.730469 " fill-opacity="1" fill-rule="nonzero"/></g><path fill="#ffffff" d="M 252.761719 301.640625 C 227.78125 276.5 199.554688 278.0625 199.277344 278.0625 L 198.789062 271.074219 C 200.070312 270.988281 230.386719 269.1875 257.722656 296.691406 Z M 252.761719 301.640625 " fill-opacity="1" fill-rule="nonzero"/><path fill="#ffffff" d="M 82.957031 327.328125 L 76.484375 324.601562 C 88.246094 296.761719 105.242188 287.921875 117.433594 285.460938 C 121.460938 284.621094 125.527344 284.328125 129.636719 284.578125 C 133.742188 284.832031 137.742188 285.621094 141.636719 286.945312 L 139.078125 293.449219 C 137.617188 292.875 102.929688 280.042969 82.957031 327.328125 Z M 82.957031 327.328125 " fill-opacity="1" fill-rule="nonzero"/><path fill="#ffffff" d="M 126.929688 249.09375 L 123.515625 242.980469 C 139.445312 234.054688 158.175781 240.671875 158.972656 240.960938 L 156.585938 247.53125 L 157.773438 244.246094 L 156.597656 247.53125 C 156.429688 247.484375 140.027344 241.746094 126.929688 249.09375 Z M 126.929688 249.09375 " fill-opacity="1" fill-rule="nonzero"/><path fill="#ffffff" d="M 256.777344 209.933594 L 300.628906 209.933594 L 300.628906 216.917969 L 256.777344 216.917969 Z M 256.777344 209.933594 " fill-opacity="1" fill-rule="nonzero"/><path fill="#ffffff" d="M 242.535156 227.441406 L 308.15625 227.441406 L 308.15625 234.429688 L 242.535156 234.429688 Z M 242.535156 227.441406 " fill-opacity="1" fill-rule="nonzero"/><path fill="#ffffff" d="M 109.699219 209.933594 L 154.953125 209.933594 L 154.953125 216.917969 L 109.699219 216.917969 Z M 109.699219 209.933594 " fill-opacity="1" fill-rule="nonzero"/><path fill="#ffffff" d="M 97.617188 227.441406 L 115.410156 227.441406 L 115.410156 234.429688 L 97.617188 234.429688 Z M 97.617188 227.441406 " fill-opacity="1" fill-rule="nonzero"/><path fill="#ffffff" d="M 309.015625 259.578125 L 313.957031 254.640625 L 341.210938 281.890625 L 336.269531 286.832031 Z M 309.015625 259.578125 " fill-opacity="1" fill-rule="nonzero"/><path fill="#ffffff" d="M 292.984375 258.453125 L 297.925781 253.511719 L 336.3125 291.898438 L 331.371094 296.839844 Z M 292.984375 258.453125 " fill-opacity="1" fill-rule="nonzero"/><path fill="#ffffff" d="M 276.253906 258.476562 L 281.164062 253.507812 L 329.554688 301.359375 L 324.640625 306.328125 Z M 276.253906 258.476562 " fill-opacity="1" fill-rule="nonzero"/><path fill="#ffffff" d="M 261.761719 261.835938 L 266.675781 256.867188 L 320.851562 310.441406 L 315.9375 315.410156 Z M 261.761719 261.835938 " fill-opacity="1" fill-rule="nonzero"/><path fill="#ffffff" d="M 77.417969 135.679688 L 83.191406 131.742188 L 89.417969 140.878906 L 83.648438 144.816406 Z M 77.417969 135.679688 " fill-opacity="1" fill-rule="nonzero"/><path fill="#ffffff" d="M 92.597656 130.785156 L 99.097656 128.222656 L 103.492188 139.371094 L 96.992188 141.933594 Z M 92.597656 130.785156 " fill-opacity="1" fill-rule="nonzero"/><path fill="#ffffff" d="M 109.066406 127.117188 L 115.867188 125.511719 L 118.808594 137.964844 L 112.007812 139.566406 Z M 109.066406 127.117188 " fill-opacity="1" fill-rule="nonzero"/><path fill="#ffffff" d="M 123.9375 125.230469 L 130.738281 123.628906 L 134.070312 137.785156 L 127.269531 139.386719 Z M 123.9375 125.230469 " fill-opacity="1" fill-rule="nonzero"/><path fill="#ffffff" d="M 143.128906 123.226562 L 150.117188 123.226562 L 150.117188 137.722656 L 143.128906 137.722656 Z M 143.128906 123.226562 " fill-opacity="1" fill-rule="nonzero"/><path fill="#ffffff" d="M 156.257812 138.5 L 162.171875 123.222656 L 168.667969 125.738281 L 162.753906 141.015625 Z M 156.257812 138.5 " fill-opacity="1" fill-rule="nonzero"/><path fill="#ffffff" d="M 171.519531 137.199219 L 179.195312 124.5 L 185.175781 128.117188 L 177.5 140.816406 Z M 171.519531 137.199219 " fill-opacity="1" fill-rule="nonzero"/><path fill="#ffffff" d="M 186.886719 138.390625 L 196.371094 127.238281 L 201.691406 131.765625 L 192.207031 142.917969 Z M 186.886719 138.390625 " fill-opacity="1" fill-rule="nonzero"/><path fill="#ffffff" d="M 201.136719 140.328125 L 208.226562 133.589844 L 213.039062 138.65625 L 205.949219 145.394531 Z M 201.136719 140.328125 " fill-opacity="1" fill-rule="nonzero"/></svg>