<svg xmlns="http://www.w3.org/2000/svg" xmlns:xlink="http://www.w3.org/1999/xlink" width="450" zoomAndPan="magnify" viewBox="0 0 337.5 135.000003" height="180" preserveAspectRatio="xMidYMid meet" version="1.0"><defs><g/></defs><g fill="#ffffff" fill-opacity="1"><g transform="translate(38.898034, 98.865031)"><g><path d="M 14.4375 3.761719 C 15.996094 5.128906 17.605469 5.808594 19.359375 5.695312 C 28.132812 5.125 37.523438 -11.632812 40.910156 -22.816406 C 41.300781 -24.3125 41.503906 -25.695312 41.417969 -27.058594 C 41.023438 -33.105469 35.972656 -38.550781 29.5 -38.71875 C 27.835938 -38.710938 27.039062 -38.953125 26.976562 -39.925781 C 26.824219 -42.265625 31.925781 -49.644531 33.914062 -53.691406 C 35.996094 -57.839844 38.265625 -62.097656 37.851562 -66.964844 L 37.78125 -68.039062 C 37.75 -68.523438 37.816406 -69.019531 37.785156 -69.507812 C 37.359375 -76.039062 32.929688 -79.46875 27.078125 -79.089844 C 16.257812 -78.390625 4.476562 -69.890625 -0.828125 -62.597656 C -1.101562 -62.285156 -1.070312 -61.800781 -1.039062 -61.3125 C -1 -60.726562 -0.851562 -59.953125 -0.808594 -59.269531 C 0.804688 -60.0625 1.429688 -59.515625 3.347656 -61.597656 C 8.929688 -67.636719 18.167969 -74.597656 26.261719 -75.121094 C 30.550781 -75.402344 33.351562 -72.9375 33.613281 -68.941406 C 33.707031 -67.480469 33.5 -64.628906 32.679688 -63.695312 C 28.441406 -55.097656 24.199219 -46.5 19.765625 -37.894531 C 18.722656 -35.867188 15.796875 -32.644531 14.238281 -32.542969 C 13.265625 -32.480469 12.828125 -33.136719 12.761719 -34.207031 C 12.746094 -34.402344 12.742188 -34.5 12.824219 -34.703125 C 13.445312 -41.789062 15.386719 -49.550781 14.9375 -56.472656 C 14.800781 -58.617188 13.847656 -59.730469 10.335938 -59.503906 C 7.414062 -59.316406 6.238281 -56.300781 5.820312 -52.164062 C 4.574219 -41.214844 3.316406 -30.367188 2.363281 -19.4375 C 2.261719 -17.964844 2.257812 -16.496094 2.355469 -15.03125 C 2.519531 -12.496094 2.96875 -10.078125 3.414062 -7.757812 C 3.695312 -6.40625 5.332031 -5.339844 6.492188 -4.042969 C 7.945312 -5.800781 9.539062 -6.882812 9.835938 -9.839844 C 10.433594 -15.75 11.429688 -21.496094 16.855469 -25.371094 L 17.582031 -26.296875 C 19.953125 -30.464844 25.617188 -33.671875 29.617188 -33.929688 C 32.636719 -34.125 35.1875 -31.0625 35.371094 -28.234375 C 35.417969 -27.453125 35.371094 -26.667969 35.132812 -25.871094 C 33.402344 -17.828125 28.949219 -10.980469 24.089844 -4.402344 C 23.191406 -3.167969 22.023438 -1.527344 20.5625 -1.429688 C 17.539062 -1.234375 17.054688 -5.707031 15.886719 -5.628906 C 14.421875 -5.535156 12.734375 -2.882812 12.886719 -0.542969 C 12.960938 0.628906 13.449219 2.066406 14.4375 3.761719 Z M 14.4375 3.761719 "/></g></g></g><g fill="#ffffff" fill-opacity="1"><g transform="translate(80.231065, 96.18567)"><g><path d="M 15.507812 -34.09375 C 13.246094 -32.773438 10.363281 -31.898438 8.507812 -30.3125 C 3.316406 -25.863281 -0.214844 -18.390625 0.242188 -11.371094 C 0.4375 -8.347656 2.449219 -6.03125 5.371094 -6.222656 C 8.6875 -6.4375 11.8125 -9.574219 12.398438 -9.613281 C 14.054688 -9.722656 12.488281 -6.683594 15.425781 -3.644531 C 16.378906 -2.53125 17.203125 -1.898438 18.082031 -1.957031 C 20.421875 -2.105469 20.648438 -6.136719 20.8125 -9.671875 C 21.128906 -15.367188 21.535156 -21.171875 22.046875 -26.882812 C 22.105469 -27.472656 22.160156 -28.160156 22.125 -28.648438 C 21.90625 -32.0625 19.730469 -33.878906 15.507812 -34.09375 Z M 16.058594 -25.613281 C 13.527344 -20.847656 9.953125 -12.589844 6.832031 -12.386719 C 5.664062 -12.308594 5.0625 -14.035156 5.03125 -14.519531 C 4.851562 -17.25 8.859375 -23.382812 11.167969 -27.058594 C 11.625 -27.578125 12.488281 -27.828125 13.367188 -27.886719 C 14.632812 -27.96875 14.769531 -27.386719 16.058594 -25.613281 Z M 16.058594 -25.613281 "/></g></g></g><g fill="#ffffff" fill-opacity="1"><g transform="translate(103.432136, 94.68169)"><g><path d="M 18.480469 -27.53125 C 18.785156 -27.355469 18.894531 -27.167969 19.1875 -27.183594 C 18.390625 -18.324219 18.808594 -8.855469 18.988281 -0.0546875 C 19.058594 1.015625 19.804688 1.945312 20.152344 2.804688 C 20.6875 1.988281 21.3125 1.066406 21.351562 0.183594 C 22.011719 -9.257812 22.582031 -18.59375 23.144531 -28.03125 C 23.191406 -28.816406 23.238281 -29.601562 23.1875 -30.382812 C 23.089844 -31.941406 22.480469 -33.761719 20.53125 -33.636719 C 18.386719 -33.496094 15.699219 -31.167969 14.445312 -29.324219 L 11.070312 -22.546875 C 10.722656 -21.839844 9.6875 -21.1875 9.039062 -20.652344 C 8.890625 -21.425781 8.4375 -22.378906 8.386719 -23.15625 C 8.234375 -25.496094 8.558594 -28.0625 8.40625 -30.402344 C 8.285156 -32.253906 7.488281 -33.964844 5.050781 -33.808594 C 3.101562 -33.679688 1.8125 -32.421875 1.660156 -30.257812 L 1.390625 -25.347656 C 1.34375 -20.058594 1.019531 -14.457031 1.363281 -9.191406 C 1.480469 -7.339844 2.289062 -5.433594 4.53125 -5.582031 C 9.308594 -5.890625 12.714844 -16.78125 15.472656 -22.539062 C 16.34375 -24.261719 17.320312 -25.792969 18.480469 -27.53125 Z M 18.480469 -27.53125 "/></g></g></g><g fill="#ffffff" fill-opacity="1"><g transform="translate(126.828162, 93.165073)"><g><path d="M 15.507812 -34.09375 C 13.246094 -32.773438 10.363281 -31.898438 8.507812 -30.3125 C 3.316406 -25.863281 -0.214844 -18.390625 0.242188 -11.371094 C 0.4375 -8.347656 2.449219 -6.03125 5.371094 -6.222656 C 8.6875 -6.4375 11.8125 -9.574219 12.398438 -9.613281 C 14.054688 -9.722656 12.488281 -6.683594 15.425781 -3.644531 C 16.378906 -2.53125 17.203125 -1.898438 18.082031 -1.957031 C 20.421875 -2.105469 20.648438 -6.136719 20.8125 -9.671875 C 21.128906 -15.367188 21.535156 -21.171875 22.046875 -26.882812 C 22.105469 -27.472656 22.160156 -28.160156 22.125 -28.648438 C 21.90625 -32.0625 19.730469 -33.878906 15.507812 -34.09375 Z M 16.058594 -25.613281 C 13.527344 -20.847656 9.953125 -12.589844 6.832031 -12.386719 C 5.664062 -12.308594 5.0625 -14.035156 5.03125 -14.519531 C 4.851562 -17.25 8.859375 -23.382812 11.167969 -27.058594 C 11.625 -27.578125 12.488281 -27.828125 13.367188 -27.886719 C 14.632812 -27.96875 14.769531 -27.386719 16.058594 -25.613281 Z M 16.058594 -25.613281 "/></g></g></g><g fill="#ffffff" fill-opacity="1"><g transform="translate(150.02923, 91.661093)"><g><path d="M 18.480469 -27.53125 C 18.785156 -27.355469 18.894531 -27.167969 19.1875 -27.183594 C 18.390625 -18.324219 18.808594 -8.855469 18.988281 -0.0546875 C 19.058594 1.015625 19.804688 1.945312 20.152344 2.804688 C 20.6875 1.988281 21.3125 1.066406 21.351562 0.183594 C 22.011719 -9.257812 22.582031 -18.59375 23.144531 -28.03125 C 23.191406 -28.816406 23.238281 -29.601562 23.1875 -30.382812 C 23.089844 -31.941406 22.480469 -33.761719 20.53125 -33.636719 C 18.386719 -33.496094 15.699219 -31.167969 14.445312 -29.324219 L 11.070312 -22.546875 C 10.722656 -21.839844 9.6875 -21.1875 9.039062 -20.652344 C 8.890625 -21.425781 8.4375 -22.378906 8.386719 -23.15625 C 8.234375 -25.496094 8.558594 -28.0625 8.40625 -30.402344 C 8.285156 -32.253906 7.488281 -33.964844 5.050781 -33.808594 C 3.101562 -33.679688 1.8125 -32.421875 1.660156 -30.257812 L 1.390625 -25.347656 C 1.34375 -20.058594 1.019531 -14.457031 1.363281 -9.191406 C 1.480469 -7.339844 2.289062 -5.433594 4.53125 -5.582031 C 9.308594 -5.890625 12.714844 -16.78125 15.472656 -22.539062 C 16.34375 -24.261719 17.320312 -25.792969 18.480469 -27.53125 Z M 18.480469 -27.53125 "/></g></g></g><g fill="#ffffff" fill-opacity="1"><g transform="translate(173.425256, 90.144475)"><g><path d="M 15.507812 -34.09375 C 13.246094 -32.773438 10.363281 -31.898438 8.507812 -30.3125 C 3.316406 -25.863281 -0.214844 -18.390625 0.242188 -11.371094 C 0.4375 -8.347656 2.449219 -6.03125 5.371094 -6.222656 C 8.6875 -6.4375 11.8125 -9.574219 12.398438 -9.613281 C 14.054688 -9.722656 12.488281 -6.683594 15.425781 -3.644531 C 16.378906 -2.53125 17.203125 -1.898438 18.082031 -1.957031 C 20.421875 -2.105469 20.648438 -6.136719 20.8125 -9.671875 C 21.128906 -15.367188 21.535156 -21.171875 22.046875 -26.882812 C 22.105469 -27.472656 22.160156 -28.160156 22.125 -28.648438 C 21.90625 -32.0625 19.730469 -33.878906 15.507812 -34.09375 Z M 16.058594 -25.613281 C 13.527344 -20.847656 9.953125 -12.589844 6.832031 -12.386719 C 5.664062 -12.308594 5.0625 -14.035156 5.03125 -14.519531 C 4.851562 -17.25 8.859375 -23.382812 11.167969 -27.058594 C 11.625 -27.578125 12.488281 -27.828125 13.367188 -27.886719 C 14.632812 -27.96875 14.769531 -27.386719 16.058594 -25.613281 Z M 16.058594 -25.613281 "/></g></g></g><g fill="#ffffff" fill-opacity="1"><g transform="translate(196.626331, 88.640495)"><g><path d="M 1.710938 -18.90625 C 2.859375 -13.304688 3.515625 -0.128906 13.652344 -0.789062 C 16.285156 -0.957031 18.738281 -2.390625 20.140625 -4.925781 C 24.085938 -12.035156 27.425781 -19.398438 31.257812 -26.695312 C 31.78125 -27.707031 32.417969 -28.433594 33.140625 -29.363281 C 33.5 -28.40625 34.339844 -27.484375 34.398438 -26.605469 C 34.769531 -20.855469 33.472656 -15.191406 33.820312 -9.828125 C 34.074219 -5.929688 36.863281 -0.628906 40.472656 -0.863281 C 44.664062 -1.132812 47.417969 -8.457031 47.28125 -10.601562 C 47.085938 -13.625 43.695312 -16.046875 43.480469 -19.363281 C 43.210938 -23.554688 43.824219 -27.707031 44.121094 -32.128906 C 44.769531 -41.765625 46.101562 -51.445312 46.554688 -61.070312 C 46.613281 -61.660156 46.574219 -62.246094 46.542969 -62.730469 C 46.359375 -65.558594 45.207031 -66.757812 42.867188 -66.605469 C 41.015625 -66.484375 38.128906 -65.710938 37.0625 -62.507812 C 33.285156 -51.300781 29.917969 -39.824219 25.753906 -28.589844 C 23.089844 -21.367188 19.507812 -14.675781 15.722656 -8.164062 C 15.015625 -6.945312 14.078125 -6.296875 12.902344 -6.320312 C 8.128906 -6.007812 7.296875 -17.3125 6.878906 -23.746094 C 5.835938 -39.828125 8.113281 -56.03125 9.523438 -72.078125 C 9.492188 -72.566406 9.554688 -73.0625 9.523438 -73.546875 C 9.441406 -74.816406 9.164062 -76.070312 8.980469 -77.429688 L 5.363281 -72.789062 C 5.089844 -72.476562 5.316406 -72.003906 5.136719 -71.796875 C 1.042969 -54.886719 1.777344 -37.511719 1.710938 -18.90625 Z M 1.710938 -18.90625 "/></g></g></g><g fill="#ffffff" fill-opacity="1"><g transform="translate(246.342946, 85.417679)"><g><path d="M -2.351562 45.28125 C -1.558594 45.425781 -0.675781 45.464844 0.105469 45.414062 C 8.097656 44.898438 15.183594 33.375 17.167969 24.730469 C 19.933594 13 21.78125 0.742188 23.355469 -11.207031 C 24.199219 -17.820312 23.964844 -24.460938 24.316406 -31.140625 C 24.167969 -33.382812 23.140625 -35.664062 20.3125 -35.480469 C 18.265625 -35.347656 16.769531 -34.273438 16.226562 -32.085938 C 14.949219 -27.597656 13.566406 -23.296875 12.074219 -19.089844 C 11.574219 -17.785156 10.078125 -16.707031 8.976562 -15.558594 C 8.40625 -16.796875 7.253906 -17.992188 7.058594 -19.449219 C 6.210938 -24.972656 5.652344 -30.617188 4.804688 -36.140625 C 4.625 -37.402344 2.988281 -38.46875 1.945312 -39.480469 C 1.136719 -38.351562 -0.53125 -36.871094 -0.402344 -34.921875 L -0.320312 -33.65625 L 1.636719 -21.542969 C 2.777344 -14.570312 4.675781 -9.40625 9.160156 -9.699219 C 11.207031 -9.832031 11.808594 -11.140625 14.652344 -12.597656 C 14.804688 -11.726562 15.246094 -10.972656 15.300781 -10.097656 C 15.5 -7.074219 14.457031 -3.484375 13.855469 -0.703125 C 11.894531 8.332031 10.625 17.421875 7.871094 26.3125 C 5.609375 33.703125 1.828125 37.277344 -3.921875 37.648438 C -8.601562 37.953125 -15.519531 35.464844 -21.71875 33.417969 C -22.519531 33.175781 -23.390625 33.332031 -24.273438 33.289062 C -24.113281 34.257812 -24.132812 35.4375 -23.609375 35.988281 C -18.1875 41.121094 -12.871094 46.0625 -4.292969 45.503906 C -3.710938 45.46875 -3.027344 45.421875 -2.351562 45.28125 Z M -2.351562 45.28125 "/></g></g></g><g fill="#ffffff" fill-opacity="1"><g transform="translate(270.908786, 83.82523)"><g><path d="M 1.25 -10.945312 C 1.84375 -9.320312 1.859375 -7.558594 2.34375 -6.125 C 3.179688 -3.828125 4.714844 -2.753906 6.375 -2.859375 C 9.296875 -3.050781 10.515625 -6.945312 14.773438 -9.179688 C 16.042969 -6.226562 17.574219 0.820312 20.597656 0.621094 C 22.253906 0.515625 24.675781 -1.402344 24.574219 -2.964844 C 24.492188 -4.230469 23.292969 -6.109375 23.140625 -8.449219 C 23.097656 -9.132812 23.058594 -9.71875 23.210938 -10.414062 C 24.222656 -17.429688 25.433594 -24.457031 26.640625 -31.488281 C 26.707031 -31.980469 26.78125 -32.375 26.753906 -32.765625 C 26.648438 -34.421875 25.164062 -36.1875 22.921875 -36.042969 C 21.652344 -35.960938 21.046875 -34.746094 20.453125 -33.335938 C 17.175781 -26.46875 13.824219 -19.300781 10.355469 -12.417969 C 9.929688 -11.410156 8.792969 -10.847656 7.964844 -10.011719 C 7.492188 -11.253906 6.636719 -12.375 6.566406 -13.445312 C 6.957031 -19.539062 7.527344 -25.84375 8.109375 -31.949219 C 8.066406 -32.632812 8.308594 -33.429688 8.261719 -34.113281 C 8.21875 -34.796875 7.667969 -35.738281 5.816406 -35.617188 C 4.257812 -35.515625 3.550781 -34.296875 3.359375 -32.71875 C 2.554688 -25.519531 1.859375 -18.132812 1.25 -10.945312 Z M 1.25 -10.945312 "/></g></g></g></svg>