<svg xmlns="http://www.w3.org/2000/svg" xmlns:xlink="http://www.w3.org/1999/xlink" width="500" zoomAndPan="magnify" viewBox="0 0 375 374.999991" height="500" preserveAspectRatio="xMidYMid meet" version="1.0"><defs><clipPath id="0c23fa9234"><path d="M 17 16.75 L 358 16.75 L 358 357 L 17 357 Z M 17 16.75 " clip-rule="nonzero"/></clipPath></defs><g clip-path="url(#0c23fa9234)"><path fill="#0f5da7" d="M 187.933594 26.144531 C 99.523438 26.144531 27.601562 98.101562 27.601562 186.542969 C 27.601562 274.988281 99.523438 346.941406 187.933594 346.941406 C 276.339844 346.941406 348.265625 274.988281 348.265625 186.542969 C 348.265625 98.101562 276.339844 26.144531 187.933594 26.144531 Z M 187.933594 356.648438 C 94.175781 356.648438 17.898438 280.339844 17.898438 186.542969 C 17.898438 92.75 94.175781 16.441406 187.933594 16.441406 C 281.6875 16.441406 357.964844 92.75 357.964844 186.542969 C 357.964844 280.339844 281.6875 356.648438 187.933594 356.648438 " fill-opacity="1" fill-rule="nonzero"/></g><path fill="#0f5da7" d="M 295.058594 181.207031 C 352.472656 271.722656 258.082031 348.75 183.261719 345.703125 C 212.46875 343.089844 244.597656 331.34375 268.085938 303.054688 C 291.574219 274.769531 283.746094 211.378906 234.15625 199.777344 C 184.566406 188.171875 169.777344 251.125 198.777344 252.574219 C 206.894531 196.292969 269.246094 231.6875 255.90625 277.527344 C 259.675781 251.125 236.765625 235.167969 215.886719 245.324219 C 195.003906 255.476562 208.636719 285.648438 221.683594 273.175781 C 204.867188 259.539062 226.617188 245.324219 240.539062 255.476562 C 254.457031 265.628906 251.554688 308.566406 216.46875 321.335938 C 181.378906 334.097656 151.796875 341.351562 94.304688 314.589844 C 133.671875 328.296875 155.421875 304.578125 159.335938 283.039062 C 163.253906 261.5 149.332031 239.738281 128.015625 238.867188 C 106.703125 237.996094 105.832031 252.140625 108.878906 256.058594 C 124.972656 243.003906 146.722656 255.1875 147.59375 278.683594 C 148.460938 302.1875 99.742188 319.15625 69.292969 287.824219 C 38.847656 256.496094 16.773438 208.628906 33.410156 128.050781 C 26.527344 146.238281 22.75 165.945312 22.75 186.542969 C 22.75 255.746094 65.273438 314.996094 125.597656 339.613281 C 174.207031 358.429688 216.421875 353.222656 254.464844 337.832031 C 264.386719 333.457031 273.796875 328.136719 282.582031 321.980469 C 303.824219 305.777344 317.578125 283.273438 328.113281 255.621094 C 342.6875 217.386719 321.589844 159.011719 295.058594 181.207031 " fill-opacity="1" fill-rule="nonzero"/><path fill="#27a8e0" d="M 127.4375 322.496094 C 167.125 324.667969 176.566406 319.449219 187.605469 311.46875 C 198.648438 303.492188 202.125 289.128906 195.75 285.359375 C 189.367188 281.585938 175.902344 284.34375 183.035156 295.949219 C 173.085938 299.027344 171.042969 286.628906 176.804688 279.773438 C 182.566406 272.921875 195.164062 272.703125 202.726562 278.902344 C 210.289062 285.105469 212.738281 304.046875 193.007812 315.675781 C 173.445312 327.207031 150.5625 329.09375 127.4375 322.496094 " fill-opacity="1" fill-rule="nonzero"/><path fill="#27a8e0" d="M 284.179688 293.917969 C 302.015625 233.429688 274.175781 184.484375 229.371094 186.542969 C 227.628906 164.667969 257.644531 155.964844 276.785156 179.902344 C 295.925781 203.835938 310.722656 262.929688 284.179688 293.917969 " fill-opacity="1" fill-rule="nonzero"/><path fill="#27a8e0" d="M 47.761719 240.828125 C 57.839844 270.105469 96.480469 300.445312 119.972656 291.960938 C 143.460938 283.472656 131.496094 264.652344 125.191406 264.21875 C 118.882812 263.78125 116.164062 267.046875 114.859375 272.703125 C 104.203125 272.050781 108.878906 256.058594 121.925781 255.839844 C 134.992188 255.621094 143.460938 265.195312 141.066406 279.121094 C 138.675781 293.046875 119.027344 303.855469 99.453125 297.542969 C 79.878906 291.234375 54.070312 271.941406 47.761719 240.828125 " fill-opacity="1" fill-rule="nonzero"/><path fill="#0f5da7" d="M 270.605469 105.148438 C 264.65625 105.027344 257.886719 110.148438 257.886719 110.148438 C 257.886719 110.148438 252.351562 103.71875 246.5 102.589844 C 240.65625 101.460938 233 104.207031 218.839844 106 C 227.085938 109.671875 234.71875 108.324219 240.601562 107.933594 C 246.484375 107.542969 252.519531 112.882812 256.808594 120.320312 C 262.566406 113.949219 269.585938 109.996094 275.253906 111.613281 C 280.921875 113.230469 288.101562 116.152344 296.933594 114.292969 C 283.46875 109.5625 276.558594 105.273438 270.605469 105.148438 " fill-opacity="1" fill-rule="nonzero"/><path fill="#0f5da7" d="M 167.546875 59.910156 C 161.589844 59.785156 154.828125 64.910156 154.828125 64.910156 C 154.828125 64.910156 149.289062 58.480469 143.441406 57.351562 C 137.59375 56.222656 129.9375 58.96875 115.78125 60.765625 C 124.023438 64.433594 131.660156 63.085938 137.542969 62.695312 C 143.421875 62.300781 149.457031 67.644531 153.75 75.082031 C 159.503906 68.710938 166.523438 64.757812 172.191406 66.375 C 177.859375 67.992188 185.042969 70.910156 193.871094 69.054688 C 180.410156 64.324219 173.5 60.035156 167.546875 59.910156 " fill-opacity="1" fill-rule="nonzero"/><path fill="#0f5da7" d="M 122.136719 157.90625 C 114.742188 157.75 106.339844 164.117188 106.339844 164.117188 C 106.339844 164.117188 99.460938 156.128906 92.203125 154.726562 C 84.941406 153.324219 75.433594 156.734375 57.855469 158.964844 C 68.089844 163.523438 77.570312 161.847656 84.875 161.363281 C 92.179688 160.878906 99.675781 167.507812 105 176.75 C 112.148438 168.832031 120.867188 163.921875 127.90625 165.933594 C 134.945312 167.941406 143.863281 171.570312 154.828125 169.261719 C 138.105469 163.386719 129.527344 158.058594 122.136719 157.90625 " fill-opacity="1" fill-rule="nonzero"/></svg>